<?xml version="1.0" encoding="UTF-8"?>
<svg xmlns="http://www.w3.org/2000/svg" viewBox="0 0 2891.34 1247.24" height="1247.24" width="2891.34" >
  <defs>
    <style>
      .cls-1 {
        stroke-width: 4.25px;
      }

      .cls-1, .cls-2, .cls-3, .cls-4, .cls-5, .cls-6, .cls-7, .cls-8, .cls-9, .cls-10, .cls-11, .cls-12, .cls-13, .cls-14, .cls-15, .cls-16, .cls-17, .cls-18, .cls-19 {
        fill: none;
      }

      .cls-1, .cls-2, .cls-3, .cls-6, .cls-16, .cls-18, .cls-19 {
        stroke: #fff;
      }

      .cls-2 {
        stroke-width: 2.83px;
      }

      .cls-20 {
        stroke: #e3000f;
        stroke-miterlimit: 10;
      }

      .cls-20, .cls-21, .cls-22, .cls-23, .cls-5, .cls-6, .cls-7, .cls-8, .cls-9, .cls-10, .cls-11, .cls-12, .cls-13, .cls-14 {
        stroke-width: 4px;
      }

      .cls-20, .cls-24 {
        fill: #fff;
      }

      .cls-21, .cls-22, .cls-23, .cls-4, .cls-5, .cls-6, .cls-7, .cls-8, .cls-9, .cls-10, .cls-11, .cls-12, .cls-13, .cls-14, .cls-15, .cls-17, .cls-18 {
        stroke-linecap: round;
        stroke-linejoin: round;
      }

      .cls-21, .cls-9 {
        stroke: #050505;
      }

      .cls-21, .cls-25 {
        fill: #dbab7d;
      }

      .cls-26, .cls-27, .cls-28, .cls-29, .cls-30, .cls-31, .cls-32, .cls-33, .cls-34, .cls-35, .cls-36, .cls-37, .cls-38, .cls-39, .cls-40, .cls-25, .cls-41, .cls-42, .cls-24, .cls-43, .cls-44, .cls-45 {
        stroke-width: 0px;
      }

      .cls-26, .cls-27, .cls-29, .cls-30, .cls-31 {
        isolation: isolate;
      }

      .cls-26, .cls-27, .cls-30 {
        opacity: .2;
      }

      .cls-26, .cls-37 {
        fill: #58595b;
      }

      .cls-22, .cls-23, .cls-8 {
        stroke: #191919;
      }

      .cls-22, .cls-35 {
        fill: #894c27;
      }

      .cls-27 {
        fill: #050505;
      }

      .cls-23, .cls-43 {
        fill: #e9a48a;
      }

      .cls-3 {
        stroke-width: 5.67px;
      }

      .cls-28 {
        opacity: .4;
      }

      .cls-28, .cls-41 {
        fill: #e3000f;
      }

      .cls-29 {
        fill: #191919;
      }

      .cls-29, .cls-31 {
        opacity: .3;
      }

      .cls-4 {
        stroke-width: 2px;
      }

      .cls-4, .cls-12, .cls-17 {
        stroke: #23211f;
      }

      .cls-5 {
        stroke: #fd7c96;
      }

      .cls-7 {
        stroke: #19285f;
      }

      .cls-10 {
        stroke: #006bb7;
      }

      .cls-11, .cls-15 {
        stroke: #000;
      }

      .cls-13 {
        stroke: #0c0708;
      }

      .cls-14 {
        stroke: #c9c4c2;
      }

      .cls-46 {
        opacity: .2;
      }

      .cls-47 {
        opacity: .5;
      }

      .cls-15 {
        stroke-width: 7px;
      }

      .cls-33 {
        opacity: .3;
      }

      .cls-33, .cls-45 {
        fill: #006bb7;
      }

      .cls-34 {
        fill: #4f051f;
      }

      .cls-36 {
        fill: #9c2b42;
      }

      .cls-38 {
        fill: #19285f;
      }

      .cls-39 {
        fill: #221f1f;
      }

      .cls-40 {
        fill: #c9c4c2;
      }

      .cls-42 {
        fill: #cea482;
      }

      .cls-44 {
        fill: #010508;
      }

      .cls-16 {
        stroke-width: .71px;
      }

      .cls-17, .cls-18 {
        stroke-width: 3px;
      }

      .cls-19 {
        stroke-width: 1.42px;
      }
    </style>
  </defs>
  <g id="background">
    <rect class="cls-33" y="0" width="2892" height="1247"/>
    <path class="cls-24" d="M2084.54,399.97h345.06c24.75,0,44.99,20.09,44.99,44.99v345.06c0,24.75-20.09,44.99-44.99,44.99h-345.06c-24.75,0-44.99-20.09-44.99-44.99v-345.06c0-24.9,20.09-44.99,44.99-44.99Z"/>
  </g>
  <g id="Icone">
    <g class="cls-46">
      <path class="cls-45" d="M0,1247h1586.85c26.4-12.6,50.06-27.32,70.07-45.26,116.87-104.89,112.87-316.61,71.93-515.37-39.94-199.77-116.87-386.53-252.69-498.4-133.84-111.85-327.6-147.82-495.38-125.83-167.81,21.97-308.62,102.86-529.35,137.83-137.29,21.74-305.86,26.1-451.42,57.28v989.75Z"/>
    </g>
  </g>
  <g id="commun_illustration_for_session" data-name="commun illustration for session">
    <g>
      <path class="cls-6" d="M363.46,793.17v28.25"/>
      <path class="cls-6" d="M363.46,901.58v28.25"/>
      <path class="cls-6" d="M431.79,861.5h-28.25"/>
      <path class="cls-6" d="M323.38,861.5h-28.25"/>
      <path class="cls-6" d="M315.2,813.24l19.89,19.89"/>
      <path class="cls-6" d="M391.88,889.92l19.89,19.89"/>
      <path class="cls-6" d="M411.77,813.24l-19.89,19.89"/>
      <path class="cls-6" d="M335.08,889.92l-19.89,19.89"/>
    </g>
    <g>
      <path class="cls-24" d="M414,107.5H93.71v347.45h320.29V107.5Z"/>
      <path class="cls-40" d="M303.8,358.04c-20.59-15.42-32.54-38.95-32.44-63.74v-60.12c0-32.41,30.29-29.48,43.36-14.84,15.66,17.48,47.07,56.91,40.57,119.86-3.8,37.47-29.35,35.14-51.49,18.84Z"/>
      <path class="cls-40" d="M204.01,358.04c20.6-15.42,32.55-38.95,32.44-63.74v-60.12c0-32.41-30.27-29.48-43.36-14.84-15.65,17.48-47.06,56.91-40.57,119.86,3.8,37.47,29.35,35.14,51.49,18.84Z"/>
      <path class="cls-28" d="M290.73,287.77l-24.71-18.74c-4.94-3.71-7.73-9.18-7.73-15.03v-88.24c0-2.15-1.85-3.9-4.12-3.9s-4.11,1.75-4.11,3.9v88.24c0,5.85-2.79,11.32-7.62,14.93l-25.75,18.74c-1.86,1.27-2.17,3.81-.72,5.47,1.45,1.75,4.02,2.04,5.77.69l25.75-18.75c10.92-8.98,2.47-8.98,13.38,0,1.03.39,26.36,21.08,27.3,19.62,3.7.09,5.65-4.79,2.57-6.93Z"/>
      <path class="cls-5" d="M221.1,415.71h65.92"/>
    </g>
    <g class="cls-47">
      <path class="cls-24" d="M549.47,529.17c-2.39,0-4.45-.61-6.16-1.82-1.71-1.22-3.02-2.97-3.94-5.28-.92-2.3-1.37-5.08-1.37-8.32,0-3.25.47-6.01,1.39-8.3.92-2.28,2.23-4.02,3.94-5.23,1.71-1.2,3.76-1.8,6.14-1.8s4.44.6,6.15,1.8c1.72,1.2,3.03,2.95,3.95,5.23.92,2.29,1.37,5.05,1.37,8.29s-.46,6.04-1.37,8.34c-.92,2.3-2.23,4.06-3.94,5.27-1.71,1.21-3.76,1.82-6.16,1.82ZM549.47,524.62c1.86,0,3.33-.92,4.41-2.75,1.08-1.84,1.62-4.54,1.62-8.12,0-2.36-.25-4.35-.74-5.96-.49-1.61-1.19-2.82-2.09-3.64-.9-.82-1.97-1.23-3.2-1.23-1.85,0-3.31.92-4.39,2.75-1.08,1.84-1.62,4.53-1.63,8.08-.01,2.37.23,4.37.72,5.99.49,1.62,1.19,2.84,2.08,3.66.9.82,1.97,1.23,3.21,1.23Z"/>
      <path class="cls-24" d="M578.52,498.82v29.78h-5.39v-24.53h-.18l-6.96,4.45v-4.94l7.4-4.75h5.13Z"/>
      <path class="cls-24" d="M597.75,529.17c-2.39,0-4.45-.61-6.16-1.82-1.71-1.22-3.02-2.97-3.94-5.28-.92-2.3-1.37-5.08-1.37-8.32,0-3.25.47-6.01,1.39-8.3.92-2.28,2.23-4.02,3.94-5.23,1.71-1.2,3.76-1.8,6.14-1.8s4.44.6,6.15,1.8c1.72,1.2,3.03,2.95,3.95,5.23s1.37,5.05,1.37,8.29-.46,6.04-1.37,8.34c-.92,2.3-2.23,4.06-3.94,5.27-1.71,1.21-3.76,1.82-6.16,1.82ZM597.75,524.62c1.86,0,3.33-.92,4.41-2.75,1.08-1.84,1.62-4.54,1.62-8.12,0-2.36-.25-4.35-.74-5.96-.49-1.61-1.19-2.82-2.09-3.64-.9-.82-1.97-1.23-3.2-1.23-1.85,0-3.31.92-4.39,2.75-1.08,1.84-1.62,4.53-1.63,8.08-.01,2.37.23,4.37.72,5.99.49,1.62,1.19,2.84,2.08,3.66.9.82,1.97,1.23,3.21,1.23Z"/>
      <path class="cls-24" d="M625.7,529.17c-2.39,0-4.45-.61-6.16-1.82-1.71-1.22-3.02-2.97-3.94-5.28-.92-2.3-1.37-5.08-1.37-8.32,0-3.25.47-6.01,1.39-8.3.92-2.28,2.23-4.02,3.94-5.23,1.71-1.2,3.76-1.8,6.14-1.8s4.44.6,6.15,1.8c1.72,1.2,3.03,2.95,3.95,5.23s1.37,5.05,1.37,8.29-.46,6.04-1.37,8.34c-.92,2.3-2.23,4.06-3.94,5.27-1.71,1.21-3.76,1.82-6.16,1.82ZM625.7,524.62c1.86,0,3.33-.92,4.41-2.75,1.08-1.84,1.62-4.54,1.62-8.12,0-2.36-.25-4.35-.74-5.96-.49-1.61-1.19-2.82-2.09-3.64-.9-.82-1.97-1.23-3.2-1.23-1.85,0-3.31.92-4.39,2.75-1.08,1.84-1.62,4.53-1.63,8.08-.01,2.37.23,4.37.72,5.99.49,1.62,1.19,2.84,2.08,3.66.9.82,1.97,1.23,3.21,1.23Z"/>
      <path class="cls-24" d="M654.75,498.82v29.78h-5.39v-24.53h-.18l-6.96,4.45v-4.94l7.4-4.75h5.13Z"/>
      <path class="cls-24" d="M675.08,498.82v29.78h-5.39v-24.53h-.18l-6.96,4.45v-4.94l7.4-4.75h5.13Z"/>
      <path class="cls-24" d="M695.41,498.82v29.78h-5.39v-24.53h-.18l-6.96,4.45v-4.94l7.4-4.75h5.13Z"/>
      <path class="cls-24" d="M714.64,529.17c-2.39,0-4.45-.61-6.16-1.82-1.71-1.22-3.02-2.97-3.94-5.28-.92-2.3-1.37-5.08-1.37-8.32,0-3.25.47-6.01,1.39-8.3.92-2.28,2.23-4.02,3.94-5.23,1.71-1.2,3.76-1.8,6.14-1.8s4.44.6,6.15,1.8c1.72,1.2,3.03,2.95,3.95,5.23s1.37,5.05,1.37,8.29-.46,6.04-1.37,8.34c-.92,2.3-2.23,4.06-3.94,5.27-1.71,1.21-3.76,1.82-6.16,1.82ZM714.64,524.62c1.86,0,3.33-.92,4.41-2.75,1.08-1.84,1.62-4.54,1.62-8.12,0-2.36-.25-4.35-.74-5.96-.49-1.61-1.19-2.82-2.09-3.64-.9-.82-1.97-1.23-3.2-1.23-1.85,0-3.31.92-4.39,2.75-1.08,1.84-1.62,4.53-1.63,8.08-.01,2.37.23,4.37.72,5.99.49,1.62,1.19,2.84,2.08,3.66.9.82,1.97,1.23,3.21,1.23Z"/>
      <path class="cls-24" d="M743.69,498.82v29.78h-5.39v-24.53h-.18l-6.96,4.45v-4.94l7.4-4.75h5.13Z"/>
      <path class="cls-24" d="M762.91,529.17c-2.39,0-4.45-.61-6.16-1.82-1.71-1.22-3.02-2.97-3.94-5.28-.92-2.3-1.37-5.08-1.37-8.32,0-3.25.47-6.01,1.39-8.3.92-2.28,2.23-4.02,3.94-5.23,1.71-1.2,3.76-1.8,6.14-1.8s4.44.6,6.15,1.8c1.72,1.2,3.03,2.95,3.95,5.23.92,2.29,1.37,5.05,1.37,8.29s-.46,6.04-1.37,8.34c-.92,2.3-2.23,4.06-3.94,5.27-1.71,1.21-3.76,1.82-6.16,1.82ZM762.91,524.62c1.86,0,3.33-.92,4.41-2.75,1.08-1.84,1.62-4.54,1.62-8.12,0-2.36-.25-4.35-.74-5.96-.49-1.61-1.19-2.82-2.09-3.64-.9-.82-1.97-1.23-3.2-1.23-1.85,0-3.31.92-4.39,2.75-1.08,1.84-1.62,4.53-1.63,8.08-.01,2.37.23,4.37.72,5.99.49,1.62,1.19,2.84,2.08,3.66.9.82,1.97,1.23,3.21,1.23Z"/>
      <path class="cls-24" d="M791.97,498.82v29.78h-5.39v-24.53h-.18l-6.96,4.45v-4.94l7.4-4.75h5.13Z"/>
      <path class="cls-24" d="M811.19,529.17c-2.39,0-4.45-.61-6.16-1.82-1.71-1.22-3.02-2.97-3.94-5.28-.92-2.3-1.37-5.08-1.37-8.32,0-3.25.47-6.01,1.39-8.3.92-2.28,2.23-4.02,3.94-5.23,1.71-1.2,3.76-1.8,6.14-1.8s4.44.6,6.15,1.8c1.72,1.2,3.03,2.95,3.95,5.23.92,2.29,1.37,5.05,1.37,8.29s-.46,6.04-1.37,8.34c-.92,2.3-2.23,4.06-3.94,5.27-1.71,1.21-3.76,1.82-6.16,1.82ZM811.19,524.62c1.86,0,3.33-.92,4.41-2.75,1.08-1.84,1.62-4.54,1.62-8.12,0-2.36-.25-4.35-.74-5.96-.49-1.61-1.19-2.82-2.09-3.64-.9-.82-1.97-1.23-3.2-1.23-1.85,0-3.31.92-4.39,2.75-1.08,1.84-1.62,4.53-1.63,8.08-.01,2.37.23,4.37.72,5.99.49,1.62,1.19,2.84,2.08,3.66.9.82,1.97,1.23,3.21,1.23Z"/>
      <path class="cls-24" d="M839.14,529.17c-2.39,0-4.45-.61-6.16-1.82-1.71-1.22-3.02-2.97-3.94-5.28-.92-2.3-1.37-5.08-1.37-8.32,0-3.25.47-6.01,1.39-8.3.92-2.28,2.23-4.02,3.94-5.23,1.71-1.2,3.76-1.8,6.14-1.8s4.44.6,6.15,1.8c1.72,1.2,3.03,2.95,3.95,5.23s1.37,5.05,1.37,8.29-.46,6.04-1.37,8.34c-.92,2.3-2.23,4.06-3.94,5.27-1.71,1.21-3.76,1.82-6.16,1.82ZM839.14,524.62c1.86,0,3.33-.92,4.41-2.75,1.08-1.84,1.62-4.54,1.62-8.12,0-2.36-.25-4.35-.74-5.96-.49-1.61-1.19-2.82-2.09-3.64-.9-.82-1.97-1.23-3.2-1.23-1.85,0-3.31.92-4.39,2.75-1.08,1.84-1.62,4.53-1.63,8.08-.01,2.37.23,4.37.72,5.99.49,1.62,1.19,2.84,2.08,3.66.9.82,1.97,1.23,3.21,1.23Z"/>
      <path class="cls-24" d="M867.09,529.17c-2.39,0-4.45-.61-6.16-1.82-1.71-1.22-3.02-2.97-3.94-5.28-.92-2.3-1.37-5.08-1.37-8.32,0-3.25.47-6.01,1.39-8.3.92-2.28,2.23-4.02,3.94-5.23,1.71-1.2,3.76-1.8,6.14-1.8s4.44.6,6.15,1.8c1.72,1.2,3.03,2.95,3.95,5.23s1.37,5.05,1.37,8.29-.46,6.04-1.37,8.34c-.92,2.3-2.23,4.06-3.94,5.27-1.71,1.21-3.76,1.82-6.16,1.82ZM867.09,524.62c1.86,0,3.33-.92,4.41-2.75,1.08-1.84,1.62-4.54,1.62-8.12,0-2.36-.25-4.35-.74-5.96-.49-1.61-1.19-2.82-2.09-3.64-.9-.82-1.97-1.23-3.2-1.23-1.85,0-3.31.92-4.39,2.75-1.08,1.84-1.62,4.53-1.63,8.08-.01,2.37.23,4.37.72,5.99.49,1.62,1.19,2.84,2.08,3.66.9.82,1.97,1.23,3.21,1.23Z"/>
      <path class="cls-24" d="M896.15,498.82v29.78h-5.39v-24.53h-.18l-6.96,4.45v-4.94l7.4-4.75h5.13Z"/>
      <path class="cls-24" d="M916.47,498.82v29.78h-5.39v-24.53h-.18l-6.96,4.45v-4.94l7.4-4.75h5.13Z"/>
      <path class="cls-24" d="M936.8,498.82v29.78h-5.39v-24.53h-.18l-6.96,4.45v-4.94l7.4-4.75h5.13Z"/>
      <path class="cls-24" d="M956.03,529.17c-2.39,0-4.45-.61-6.16-1.82-1.71-1.22-3.02-2.97-3.94-5.28-.92-2.3-1.37-5.08-1.37-8.32,0-3.25.47-6.01,1.39-8.3.92-2.28,2.23-4.02,3.94-5.23,1.71-1.2,3.76-1.8,6.14-1.8s4.44.6,6.15,1.8c1.72,1.2,3.03,2.95,3.95,5.23.92,2.29,1.37,5.05,1.37,8.29s-.46,6.04-1.37,8.34c-.92,2.3-2.23,4.06-3.94,5.27-1.71,1.21-3.76,1.82-6.16,1.82ZM956.03,524.62c1.86,0,3.33-.92,4.41-2.75,1.08-1.84,1.62-4.54,1.62-8.12,0-2.36-.25-4.35-.74-5.96-.49-1.61-1.19-2.82-2.09-3.64-.9-.82-1.97-1.23-3.2-1.23-1.85,0-3.31.92-4.39,2.75-1.08,1.84-1.62,4.53-1.63,8.08-.01,2.37.23,4.37.72,5.99.49,1.62,1.19,2.84,2.08,3.66.9.82,1.97,1.23,3.21,1.23Z"/>
      <path class="cls-24" d="M983.98,529.17c-2.39,0-4.45-.61-6.16-1.82-1.71-1.22-3.02-2.97-3.94-5.28-.92-2.3-1.37-5.08-1.37-8.32,0-3.25.47-6.01,1.39-8.3.92-2.28,2.23-4.02,3.94-5.23,1.71-1.2,3.76-1.8,6.14-1.8s4.44.6,6.15,1.8c1.72,1.2,3.03,2.95,3.95,5.23s1.37,5.05,1.37,8.29-.46,6.04-1.37,8.34c-.92,2.3-2.23,4.06-3.94,5.27-1.71,1.21-3.76,1.82-6.16,1.82ZM983.98,524.62c1.86,0,3.33-.92,4.41-2.75,1.08-1.84,1.62-4.54,1.62-8.12,0-2.36-.25-4.35-.74-5.96-.49-1.61-1.19-2.82-2.09-3.64-.9-.82-1.97-1.23-3.2-1.23-1.85,0-3.31.92-4.39,2.75-1.08,1.84-1.62,4.53-1.63,8.08-.01,2.37.23,4.37.72,5.99.49,1.62,1.19,2.84,2.08,3.66.9.82,1.97,1.23,3.21,1.23Z"/>
      <path class="cls-24" d="M1011.93,529.17c-2.39,0-4.45-.61-6.16-1.82-1.71-1.22-3.02-2.97-3.94-5.28-.92-2.3-1.37-5.08-1.37-8.32,0-3.25.47-6.01,1.39-8.3.92-2.28,2.23-4.02,3.94-5.23,1.71-1.2,3.76-1.8,6.14-1.8s4.44.6,6.15,1.8c1.72,1.2,3.03,2.95,3.95,5.23s1.37,5.05,1.37,8.29-.46,6.04-1.37,8.34c-.92,2.3-2.23,4.06-3.94,5.27-1.71,1.21-3.76,1.82-6.16,1.82ZM1011.93,524.62c1.86,0,3.33-.92,4.41-2.75,1.08-1.84,1.62-4.54,1.62-8.12,0-2.36-.25-4.35-.74-5.96-.49-1.61-1.19-2.82-2.09-3.64-.9-.82-1.97-1.23-3.2-1.23-1.85,0-3.31.92-4.39,2.75-1.08,1.84-1.62,4.53-1.63,8.08-.01,2.37.23,4.37.72,5.99.49,1.62,1.19,2.84,2.08,3.66.9.82,1.97,1.23,3.21,1.23Z"/>
      <path class="cls-24" d="M1039.88,529.17c-2.39,0-4.45-.61-6.16-1.82-1.71-1.22-3.02-2.97-3.94-5.28-.92-2.3-1.37-5.08-1.37-8.32,0-3.25.47-6.01,1.39-8.3.92-2.28,2.23-4.02,3.94-5.23,1.71-1.2,3.76-1.8,6.14-1.8s4.44.6,6.15,1.8c1.72,1.2,3.03,2.95,3.95,5.23.92,2.29,1.37,5.05,1.37,8.29s-.46,6.04-1.37,8.34c-.92,2.3-2.23,4.06-3.94,5.27-1.71,1.21-3.76,1.82-6.16,1.82ZM1039.88,524.62c1.86,0,3.33-.92,4.41-2.75,1.08-1.84,1.62-4.54,1.62-8.12,0-2.36-.25-4.35-.74-5.96-.49-1.61-1.19-2.82-2.09-3.64-.9-.82-1.97-1.23-3.2-1.23-1.85,0-3.31.92-4.39,2.75-1.08,1.84-1.62,4.53-1.63,8.08-.01,2.37.23,4.37.72,5.99.49,1.62,1.19,2.84,2.08,3.66.9.82,1.97,1.23,3.21,1.23Z"/>
      <path class="cls-24" d="M1068.93,498.82v29.78h-5.39v-24.53h-.18l-6.96,4.45v-4.94l7.4-4.75h5.13Z"/>
      <path class="cls-24" d="M1088.15,529.17c-2.39,0-4.45-.61-6.16-1.82-1.71-1.22-3.02-2.97-3.94-5.28-.92-2.3-1.37-5.08-1.37-8.32,0-3.25.47-6.01,1.39-8.3.92-2.28,2.23-4.02,3.94-5.23,1.71-1.2,3.76-1.8,6.14-1.8s4.44.6,6.15,1.8c1.72,1.2,3.03,2.95,3.95,5.23.92,2.29,1.37,5.05,1.37,8.29s-.46,6.04-1.37,8.34c-.92,2.3-2.23,4.06-3.94,5.27-1.71,1.21-3.76,1.82-6.16,1.82ZM1088.15,524.62c1.86,0,3.33-.92,4.41-2.75,1.08-1.84,1.62-4.54,1.62-8.12,0-2.36-.25-4.35-.74-5.96-.49-1.61-1.19-2.82-2.09-3.64-.9-.82-1.97-1.23-3.2-1.23-1.85,0-3.31.92-4.39,2.75-1.08,1.84-1.62,4.53-1.63,8.08-.01,2.37.23,4.37.72,5.99.49,1.62,1.19,2.84,2.08,3.66.9.82,1.97,1.23,3.21,1.23Z"/>
      <path class="cls-24" d="M1117.21,498.82v29.78h-5.39v-24.53h-.18l-6.96,4.45v-4.94l7.4-4.75h5.13Z"/>
      <path class="cls-24" d="M1136.43,529.17c-2.39,0-4.45-.61-6.16-1.82-1.71-1.22-3.02-2.97-3.94-5.28-.92-2.3-1.37-5.08-1.37-8.32,0-3.25.47-6.01,1.39-8.3.92-2.28,2.23-4.02,3.94-5.23,1.71-1.2,3.76-1.8,6.14-1.8s4.44.6,6.15,1.8c1.72,1.2,3.03,2.95,3.95,5.23.92,2.29,1.37,5.05,1.37,8.29s-.46,6.04-1.37,8.34c-.92,2.3-2.23,4.06-3.94,5.27-1.71,1.21-3.76,1.82-6.16,1.82ZM1136.43,524.62c1.86,0,3.33-.92,4.41-2.75,1.08-1.84,1.62-4.54,1.62-8.12,0-2.36-.25-4.35-.74-5.96-.49-1.61-1.19-2.82-2.09-3.64-.9-.82-1.97-1.23-3.2-1.23-1.85,0-3.31.92-4.39,2.75-1.08,1.84-1.62,4.53-1.63,8.08-.01,2.37.23,4.37.72,5.99.49,1.62,1.19,2.84,2.08,3.66.9.82,1.97,1.23,3.21,1.23Z"/>
      <path class="cls-24" d="M1165.49,498.82v29.78h-5.39v-24.53h-.18l-6.96,4.45v-4.94l7.4-4.75h5.13Z"/>
      <path class="cls-24" d="M549.47,578.3c-2.39,0-4.45-.61-6.16-1.82-1.71-1.22-3.02-2.97-3.94-5.28-.92-2.3-1.37-5.08-1.37-8.32,0-3.25.47-6.01,1.39-8.3.92-2.28,2.23-4.02,3.94-5.23,1.71-1.2,3.76-1.8,6.14-1.8s4.44.6,6.15,1.8c1.72,1.2,3.03,2.95,3.95,5.23.92,2.29,1.37,5.05,1.37,8.29s-.46,6.04-1.37,8.34c-.92,2.3-2.23,4.06-3.94,5.27-1.71,1.21-3.76,1.82-6.16,1.82ZM549.47,573.75c1.86,0,3.33-.92,4.41-2.75,1.08-1.84,1.62-4.54,1.62-8.12,0-2.36-.25-4.35-.74-5.96-.49-1.61-1.19-2.82-2.09-3.64-.9-.82-1.97-1.23-3.2-1.23-1.85,0-3.31.92-4.39,2.75-1.08,1.84-1.62,4.53-1.63,8.08-.01,2.37.23,4.37.72,5.99.49,1.62,1.19,2.84,2.08,3.66.9.82,1.97,1.23,3.21,1.23Z"/>
      <path class="cls-24" d="M578.33,547.96v29.78h-5.39v-24.53h-.18l-6.96,4.45v-4.94l7.4-4.75h5.13Z"/>
      <path class="cls-24" d="M598.46,547.96v29.78h-5.39v-24.53h-.18l-6.96,4.45v-4.94l7.4-4.75h5.13Z"/>
      <path class="cls-24" d="M618.59,547.96v29.78h-5.39v-24.53h-.18l-6.96,4.45v-4.94l7.4-4.75h5.13Z"/>
      <path class="cls-24" d="M638.73,547.96v29.78h-5.39v-24.53h-.18l-6.96,4.45v-4.94l7.4-4.75h5.13Z"/>
      <path class="cls-24" d="M658.86,547.96v29.78h-5.39v-24.53h-.18l-6.96,4.45v-4.94l7.4-4.75h5.13Z"/>
      <path class="cls-24" d="M677.89,578.3c-2.39,0-4.45-.61-6.16-1.82-1.71-1.22-3.02-2.97-3.94-5.28-.92-2.3-1.37-5.08-1.37-8.32,0-3.25.47-6.01,1.39-8.3.92-2.28,2.23-4.02,3.94-5.23,1.71-1.2,3.76-1.8,6.14-1.8s4.44.6,6.15,1.8c1.72,1.2,3.03,2.95,3.95,5.23.92,2.29,1.37,5.05,1.37,8.29s-.46,6.04-1.37,8.34c-.92,2.3-2.23,4.06-3.94,5.27-1.71,1.21-3.76,1.82-6.16,1.82ZM677.89,573.75c1.86,0,3.33-.92,4.41-2.75,1.08-1.84,1.62-4.54,1.62-8.12,0-2.36-.25-4.35-.74-5.96-.49-1.61-1.19-2.82-2.09-3.64-.9-.82-1.97-1.23-3.2-1.23-1.85,0-3.31.92-4.39,2.75-1.08,1.84-1.62,4.53-1.63,8.08-.01,2.37.23,4.37.72,5.99.49,1.62,1.19,2.84,2.08,3.66.9.82,1.97,1.23,3.21,1.23Z"/>
      <path class="cls-24" d="M705.64,578.3c-2.39,0-4.45-.61-6.16-1.82-1.71-1.22-3.02-2.97-3.94-5.28-.92-2.3-1.37-5.08-1.37-8.32,0-3.25.47-6.01,1.39-8.3.92-2.28,2.23-4.02,3.94-5.23,1.71-1.2,3.76-1.8,6.14-1.8s4.44.6,6.15,1.8c1.72,1.2,3.03,2.95,3.95,5.23.92,2.29,1.37,5.05,1.37,8.29s-.46,6.04-1.37,8.34c-.92,2.3-2.23,4.06-3.94,5.27-1.71,1.21-3.76,1.82-6.16,1.82ZM705.64,573.75c1.86,0,3.33-.92,4.41-2.75,1.08-1.84,1.62-4.54,1.62-8.12,0-2.36-.25-4.35-.74-5.96-.49-1.61-1.19-2.82-2.09-3.64-.9-.82-1.97-1.23-3.2-1.23-1.85,0-3.31.92-4.39,2.75-1.08,1.84-1.62,4.53-1.63,8.08-.01,2.37.23,4.37.72,5.99.49,1.62,1.19,2.84,2.08,3.66.9.82,1.97,1.23,3.21,1.23Z"/>
      <path class="cls-24" d="M733.4,578.3c-2.39,0-4.45-.61-6.16-1.82-1.71-1.22-3.02-2.97-3.94-5.28-.92-2.3-1.37-5.08-1.37-8.32,0-3.25.47-6.01,1.39-8.3.92-2.28,2.23-4.02,3.94-5.23,1.71-1.2,3.76-1.8,6.14-1.8s4.44.6,6.15,1.8c1.72,1.2,3.03,2.95,3.95,5.23.92,2.29,1.37,5.05,1.37,8.29s-.46,6.04-1.37,8.34c-.92,2.3-2.23,4.06-3.94,5.27-1.71,1.21-3.76,1.82-6.16,1.82ZM733.4,573.75c1.86,0,3.33-.92,4.41-2.75,1.08-1.84,1.62-4.54,1.62-8.12,0-2.36-.25-4.35-.74-5.96-.49-1.61-1.19-2.82-2.09-3.64-.9-.82-1.97-1.23-3.2-1.23-1.85,0-3.31.92-4.39,2.75-1.08,1.84-1.62,4.53-1.63,8.08-.01,2.37.23,4.37.72,5.99.49,1.62,1.19,2.84,2.08,3.66.9.82,1.97,1.23,3.21,1.23Z"/>
      <path class="cls-24" d="M761.15,578.3c-2.39,0-4.45-.61-6.16-1.82-1.71-1.22-3.02-2.97-3.94-5.28-.92-2.3-1.37-5.08-1.37-8.32,0-3.25.47-6.01,1.39-8.3.92-2.28,2.23-4.02,3.94-5.23,1.71-1.2,3.76-1.8,6.14-1.8s4.44.6,6.15,1.8c1.72,1.2,3.03,2.95,3.95,5.23s1.37,5.05,1.37,8.29-.46,6.04-1.37,8.34c-.92,2.3-2.23,4.06-3.94,5.27-1.71,1.21-3.76,1.82-6.16,1.82ZM761.15,573.75c1.86,0,3.33-.92,4.41-2.75,1.08-1.84,1.62-4.54,1.62-8.12,0-2.36-.25-4.35-.74-5.96-.49-1.61-1.19-2.82-2.09-3.64-.9-.82-1.97-1.23-3.2-1.23-1.85,0-3.31.92-4.39,2.75-1.08,1.84-1.62,4.53-1.63,8.08-.01,2.37.23,4.37.72,5.99.49,1.62,1.19,2.84,2.08,3.66.9.82,1.97,1.23,3.21,1.23Z"/>
      <path class="cls-24" d="M790.01,547.96v29.78h-5.39v-24.53h-.18l-6.96,4.45v-4.94l7.4-4.75h5.13Z"/>
      <path class="cls-24" d="M810.14,547.96v29.78h-5.39v-24.53h-.18l-6.96,4.45v-4.94l7.4-4.75h5.13Z"/>
      <path class="cls-24" d="M829.17,578.3c-2.39,0-4.45-.61-6.16-1.82-1.71-1.22-3.02-2.97-3.94-5.28-.92-2.3-1.37-5.08-1.37-8.32,0-3.25.47-6.01,1.39-8.3.92-2.28,2.23-4.02,3.94-5.23,1.71-1.2,3.76-1.8,6.14-1.8s4.44.6,6.15,1.8c1.72,1.2,3.03,2.95,3.95,5.23.92,2.29,1.37,5.05,1.37,8.29s-.46,6.04-1.37,8.34c-.92,2.3-2.23,4.06-3.94,5.27-1.71,1.21-3.76,1.82-6.16,1.82ZM829.17,573.75c1.86,0,3.33-.92,4.41-2.75,1.08-1.84,1.62-4.54,1.62-8.12,0-2.36-.25-4.35-.74-5.96-.49-1.61-1.19-2.82-2.09-3.64-.9-.82-1.97-1.23-3.2-1.23-1.85,0-3.31.92-4.39,2.75-1.08,1.84-1.62,4.53-1.63,8.08-.01,2.37.23,4.37.72,5.99.49,1.62,1.19,2.84,2.08,3.66.9.82,1.97,1.23,3.21,1.23Z"/>
      <path class="cls-24" d="M858.03,547.96v29.78h-5.39v-24.53h-.18l-6.96,4.45v-4.94l7.4-4.75h5.13Z"/>
      <path class="cls-24" d="M877.06,578.3c-2.39,0-4.45-.61-6.16-1.82-1.71-1.22-3.02-2.97-3.94-5.28-.92-2.3-1.37-5.08-1.37-8.32,0-3.25.47-6.01,1.39-8.3.92-2.28,2.23-4.02,3.94-5.23,1.71-1.2,3.76-1.8,6.14-1.8s4.44.6,6.15,1.8c1.72,1.2,3.03,2.95,3.95,5.23s1.37,5.05,1.37,8.29-.46,6.04-1.37,8.34c-.92,2.3-2.23,4.06-3.94,5.27-1.71,1.21-3.76,1.82-6.16,1.82ZM877.06,573.75c1.86,0,3.33-.92,4.41-2.75,1.08-1.84,1.62-4.54,1.62-8.12,0-2.36-.25-4.35-.74-5.96-.49-1.61-1.19-2.82-2.09-3.64-.9-.82-1.97-1.23-3.2-1.23-1.85,0-3.31.92-4.39,2.75-1.08,1.84-1.62,4.53-1.63,8.08-.01,2.37.23,4.37.72,5.99.49,1.62,1.19,2.84,2.08,3.66.9.82,1.97,1.23,3.21,1.23Z"/>
      <path class="cls-24" d="M905.92,547.96v29.78h-5.39v-24.53h-.18l-6.96,4.45v-4.94l7.4-4.75h5.13Z"/>
      <path class="cls-24" d="M924.94,578.3c-2.39,0-4.45-.61-6.16-1.82-1.71-1.22-3.02-2.97-3.94-5.28-.92-2.3-1.37-5.08-1.37-8.32,0-3.25.47-6.01,1.39-8.3.92-2.28,2.23-4.02,3.94-5.23,1.71-1.2,3.76-1.8,6.14-1.8s4.44.6,6.15,1.8c1.72,1.2,3.03,2.95,3.95,5.23s1.37,5.05,1.37,8.29-.46,6.04-1.37,8.34c-.92,2.3-2.23,4.06-3.94,5.27-1.71,1.21-3.76,1.82-6.16,1.82ZM924.94,573.75c1.86,0,3.33-.92,4.41-2.75,1.08-1.84,1.62-4.54,1.62-8.12,0-2.36-.25-4.35-.74-5.96-.49-1.61-1.19-2.82-2.09-3.64-.9-.82-1.97-1.23-3.2-1.23-1.85,0-3.31.92-4.39,2.75-1.08,1.84-1.62,4.53-1.63,8.08-.01,2.37.23,4.37.72,5.99.49,1.62,1.19,2.84,2.08,3.66.9.82,1.97,1.23,3.21,1.23Z"/>
      <path class="cls-24" d="M953.8,547.96v29.78h-5.39v-24.53h-.18l-6.96,4.45v-4.94l7.4-4.75h5.13Z"/>
      <path class="cls-24" d="M973.94,547.96v29.78h-5.39v-24.53h-.18l-6.96,4.45v-4.94l7.4-4.75h5.13Z"/>
      <path class="cls-24" d="M994.07,547.96v29.78h-5.39v-24.53h-.18l-6.96,4.45v-4.94l7.4-4.75h5.13Z"/>
      <path class="cls-24" d="M1013.1,578.3c-2.39,0-4.45-.61-6.16-1.82-1.71-1.22-3.02-2.97-3.94-5.28-.92-2.3-1.37-5.08-1.37-8.32,0-3.25.47-6.01,1.39-8.3.92-2.28,2.23-4.02,3.94-5.23,1.71-1.2,3.76-1.8,6.14-1.8s4.44.6,6.15,1.8c1.72,1.2,3.03,2.95,3.95,5.23s1.37,5.05,1.37,8.29-.46,6.04-1.37,8.34c-.92,2.3-2.23,4.06-3.94,5.27-1.71,1.21-3.76,1.82-6.16,1.82ZM1013.1,573.75c1.86,0,3.33-.92,4.41-2.75,1.08-1.84,1.62-4.54,1.62-8.12,0-2.36-.25-4.35-.74-5.96-.49-1.61-1.19-2.82-2.09-3.64-.9-.82-1.97-1.23-3.2-1.23-1.85,0-3.31.92-4.39,2.75-1.08,1.84-1.62,4.53-1.63,8.08-.01,2.37.23,4.37.72,5.99.49,1.62,1.19,2.84,2.08,3.66.9.82,1.97,1.23,3.21,1.23Z"/>
      <path class="cls-24" d="M1040.85,578.3c-2.39,0-4.45-.61-6.16-1.82-1.71-1.22-3.02-2.97-3.94-5.28-.92-2.3-1.37-5.08-1.37-8.32,0-3.25.47-6.01,1.39-8.3.92-2.28,2.23-4.02,3.94-5.23,1.71-1.2,3.76-1.8,6.14-1.8s4.44.6,6.15,1.8c1.72,1.2,3.03,2.95,3.95,5.23s1.37,5.05,1.37,8.29-.46,6.04-1.37,8.34c-.92,2.3-2.23,4.06-3.94,5.27-1.71,1.21-3.76,1.82-6.16,1.82ZM1040.85,573.75c1.86,0,3.33-.92,4.41-2.75,1.08-1.84,1.62-4.54,1.62-8.12,0-2.36-.25-4.35-.74-5.96-.49-1.61-1.19-2.82-2.09-3.64-.9-.82-1.97-1.23-3.2-1.23-1.85,0-3.31.92-4.39,2.75-1.08,1.84-1.62,4.53-1.63,8.08-.01,2.37.23,4.37.72,5.99.49,1.62,1.19,2.84,2.08,3.66.9.82,1.97,1.23,3.21,1.23Z"/>
      <path class="cls-24" d="M1068.61,578.3c-2.39,0-4.45-.61-6.16-1.82-1.71-1.22-3.02-2.97-3.94-5.28-.92-2.3-1.37-5.08-1.37-8.32,0-3.25.47-6.01,1.39-8.3.92-2.28,2.23-4.02,3.94-5.23,1.71-1.2,3.76-1.8,6.14-1.8s4.44.6,6.15,1.8c1.72,1.2,3.03,2.95,3.95,5.23s1.37,5.05,1.37,8.29-.46,6.04-1.37,8.34c-.92,2.3-2.23,4.06-3.94,5.27-1.71,1.21-3.76,1.82-6.16,1.82ZM1068.61,573.75c1.86,0,3.33-.92,4.41-2.75,1.08-1.84,1.62-4.54,1.62-8.12,0-2.36-.25-4.35-.74-5.96-.49-1.61-1.19-2.82-2.09-3.64-.9-.82-1.97-1.23-3.2-1.23-1.85,0-3.31.92-4.39,2.75-1.08,1.84-1.62,4.53-1.63,8.08-.01,2.37.23,4.37.72,5.99.49,1.62,1.19,2.84,2.08,3.66.9.82,1.97,1.23,3.21,1.23Z"/>
      <path class="cls-24" d="M1097.46,547.96v29.78h-5.39v-24.53h-.18l-6.96,4.45v-4.94l7.4-4.75h5.13Z"/>
      <path class="cls-24" d="M1117.6,547.96v29.78h-5.39v-24.53h-.18l-6.96,4.45v-4.94l7.4-4.75h5.13Z"/>
      <path class="cls-24" d="M1137.73,547.96v29.78h-5.39v-24.53h-.18l-6.96,4.45v-4.94l7.4-4.75h5.13Z"/>
      <path class="cls-24" d="M1156.76,578.3c-2.39,0-4.45-.61-6.16-1.82-1.71-1.22-3.02-2.97-3.94-5.28-.92-2.3-1.37-5.08-1.37-8.32,0-3.25.47-6.01,1.39-8.3.92-2.28,2.23-4.02,3.94-5.23,1.71-1.2,3.76-1.8,6.14-1.8s4.44.6,6.15,1.8c1.72,1.2,3.03,2.95,3.95,5.23.92,2.29,1.37,5.05,1.37,8.29s-.46,6.04-1.37,8.34c-.92,2.3-2.23,4.06-3.94,5.27-1.71,1.21-3.76,1.82-6.16,1.82ZM1156.76,573.75c1.86,0,3.33-.92,4.41-2.75,1.08-1.84,1.62-4.54,1.62-8.12,0-2.36-.25-4.35-.74-5.96-.49-1.61-1.19-2.82-2.09-3.64-.9-.82-1.97-1.23-3.2-1.23-1.85,0-3.31.92-4.39,2.75-1.08,1.84-1.62,4.53-1.63,8.08-.01,2.37.23,4.37.72,5.99.49,1.62,1.19,2.84,2.08,3.66.9.82,1.97,1.23,3.21,1.23Z"/>
      <path class="cls-24" d="M549.47,627.43c-2.39,0-4.45-.61-6.16-1.82-1.71-1.22-3.02-2.97-3.94-5.28-.92-2.3-1.37-5.08-1.37-8.32,0-3.25.47-6.01,1.39-8.3.92-2.28,2.23-4.02,3.94-5.23,1.71-1.2,3.76-1.8,6.14-1.8s4.44.6,6.15,1.8c1.72,1.2,3.03,2.95,3.95,5.23.92,2.29,1.37,5.05,1.37,8.29s-.46,6.04-1.37,8.34c-.92,2.3-2.23,4.06-3.94,5.27-1.71,1.21-3.76,1.82-6.16,1.82ZM549.47,622.88c1.86,0,3.33-.92,4.41-2.75,1.08-1.84,1.62-4.54,1.62-8.12,0-2.36-.25-4.35-.74-5.96-.49-1.61-1.19-2.82-2.09-3.64-.9-.82-1.97-1.23-3.2-1.23-1.85,0-3.31.92-4.39,2.75-1.08,1.84-1.62,4.53-1.63,8.08-.01,2.37.23,4.37.72,5.99.49,1.62,1.19,2.84,2.08,3.66.9.82,1.97,1.23,3.21,1.23Z"/>
      <path class="cls-24" d="M578.83,597.09v29.78h-5.39v-24.53h-.18l-6.96,4.45v-4.94l7.4-4.75h5.13Z"/>
      <path class="cls-24" d="M598.36,627.43c-2.39,0-4.45-.61-6.16-1.82-1.71-1.22-3.02-2.97-3.94-5.28-.92-2.3-1.37-5.08-1.37-8.32,0-3.25.47-6.01,1.39-8.3.92-2.28,2.23-4.02,3.94-5.23,1.71-1.2,3.76-1.8,6.14-1.8s4.44.6,6.15,1.8c1.72,1.2,3.03,2.95,3.95,5.23s1.37,5.05,1.37,8.29-.46,6.04-1.37,8.34c-.92,2.3-2.23,4.06-3.94,5.27-1.71,1.21-3.76,1.82-6.16,1.82ZM598.36,622.88c1.86,0,3.33-.92,4.41-2.75,1.08-1.84,1.62-4.54,1.62-8.12,0-2.36-.25-4.35-.74-5.96-.49-1.61-1.19-2.82-2.09-3.64-.9-.82-1.97-1.23-3.2-1.23-1.85,0-3.31.92-4.39,2.75-1.08,1.84-1.62,4.53-1.63,8.08-.01,2.37.23,4.37.72,5.99.49,1.62,1.19,2.84,2.08,3.66.9.82,1.97,1.23,3.21,1.23Z"/>
      <path class="cls-24" d="M627.72,597.09v29.78h-5.39v-24.53h-.18l-6.96,4.45v-4.94l7.4-4.75h5.13Z"/>
      <path class="cls-24" d="M647.24,627.43c-2.39,0-4.45-.61-6.16-1.82-1.71-1.22-3.02-2.97-3.94-5.28-.92-2.3-1.37-5.08-1.37-8.32,0-3.25.47-6.01,1.39-8.3.92-2.28,2.23-4.02,3.94-5.23,1.71-1.2,3.76-1.8,6.14-1.8s4.44.6,6.15,1.8c1.72,1.2,3.03,2.95,3.95,5.23s1.37,5.05,1.37,8.29-.46,6.04-1.37,8.34c-.92,2.3-2.23,4.06-3.94,5.27-1.71,1.21-3.76,1.82-6.16,1.82ZM647.24,622.88c1.86,0,3.33-.92,4.41-2.75,1.08-1.84,1.62-4.54,1.62-8.12,0-2.36-.25-4.35-.74-5.96-.49-1.61-1.19-2.82-2.09-3.64-.9-.82-1.97-1.23-3.2-1.23-1.85,0-3.31.92-4.39,2.75-1.08,1.84-1.62,4.53-1.63,8.08-.01,2.37.23,4.37.72,5.99.49,1.62,1.19,2.84,2.08,3.66.9.82,1.97,1.23,3.21,1.23Z"/>
      <path class="cls-24" d="M676.61,597.09v29.78h-5.39v-24.53h-.18l-6.96,4.45v-4.94l7.4-4.75h5.13Z"/>
      <path class="cls-24" d="M696.13,627.43c-2.39,0-4.45-.61-6.16-1.82-1.71-1.22-3.02-2.97-3.94-5.28-.92-2.3-1.37-5.08-1.37-8.32,0-3.25.47-6.01,1.39-8.3.92-2.28,2.23-4.02,3.94-5.23,1.71-1.2,3.76-1.8,6.14-1.8s4.44.6,6.15,1.8c1.72,1.2,3.03,2.95,3.95,5.23.92,2.29,1.37,5.05,1.37,8.29s-.46,6.04-1.37,8.34c-.92,2.3-2.23,4.06-3.94,5.27-1.71,1.21-3.76,1.82-6.16,1.82ZM696.13,622.88c1.86,0,3.33-.92,4.41-2.75,1.08-1.84,1.62-4.54,1.62-8.12,0-2.36-.25-4.35-.74-5.96-.49-1.61-1.19-2.82-2.09-3.64-.9-.82-1.97-1.23-3.2-1.23-1.85,0-3.31.92-4.39,2.75-1.08,1.84-1.62,4.53-1.63,8.08-.01,2.37.23,4.37.72,5.99.49,1.62,1.19,2.84,2.08,3.66.9.82,1.97,1.23,3.21,1.23Z"/>
      <path class="cls-24" d="M725.49,597.09v29.78h-5.39v-24.53h-.18l-6.96,4.45v-4.94l7.4-4.75h5.13Z"/>
      <path class="cls-24" d="M745.02,627.43c-2.39,0-4.45-.61-6.16-1.82-1.71-1.22-3.02-2.97-3.94-5.28-.92-2.3-1.37-5.08-1.37-8.32,0-3.25.47-6.01,1.39-8.3.92-2.28,2.23-4.02,3.94-5.23,1.71-1.2,3.76-1.8,6.14-1.8s4.44.6,6.15,1.8c1.72,1.2,3.03,2.95,3.95,5.23.92,2.29,1.37,5.05,1.37,8.29s-.46,6.04-1.37,8.34c-.92,2.3-2.23,4.06-3.94,5.27-1.71,1.21-3.76,1.82-6.16,1.82ZM745.02,622.88c1.86,0,3.33-.92,4.41-2.75,1.08-1.84,1.62-4.54,1.62-8.12,0-2.36-.25-4.35-.74-5.96-.49-1.61-1.19-2.82-2.09-3.64-.9-.82-1.97-1.23-3.2-1.23-1.85,0-3.31.92-4.39,2.75-1.08,1.84-1.62,4.53-1.63,8.08-.01,2.37.23,4.37.72,5.99.49,1.62,1.19,2.84,2.08,3.66.9.82,1.97,1.23,3.21,1.23Z"/>
      <path class="cls-24" d="M774.38,597.09v29.78h-5.39v-24.53h-.18l-6.96,4.45v-4.94l7.4-4.75h5.13Z"/>
      <path class="cls-24" d="M795.02,597.09v29.78h-5.39v-24.53h-.18l-6.96,4.45v-4.94l7.4-4.75h5.13Z"/>
      <path class="cls-24" d="M815.65,597.09v29.78h-5.39v-24.53h-.18l-6.96,4.45v-4.94l7.4-4.75h5.13Z"/>
      <path class="cls-24" d="M836.28,597.09v29.78h-5.39v-24.53h-.18l-6.96,4.45v-4.94l7.4-4.75h5.13Z"/>
      <path class="cls-24" d="M856.92,597.09v29.78h-5.39v-24.53h-.18l-6.96,4.45v-4.94l7.4-4.75h5.13Z"/>
      <path class="cls-24" d="M876.45,627.43c-2.39,0-4.45-.61-6.16-1.82-1.71-1.22-3.02-2.97-3.94-5.28-.92-2.3-1.37-5.08-1.37-8.32,0-3.25.47-6.01,1.39-8.3.92-2.28,2.23-4.02,3.94-5.23,1.71-1.2,3.76-1.8,6.14-1.8s4.44.6,6.15,1.8c1.72,1.2,3.03,2.95,3.95,5.23s1.37,5.05,1.37,8.29-.46,6.04-1.37,8.34c-.92,2.3-2.23,4.06-3.94,5.27-1.71,1.21-3.76,1.82-6.16,1.82ZM876.45,622.88c1.86,0,3.33-.92,4.41-2.75,1.08-1.84,1.62-4.54,1.62-8.12,0-2.36-.25-4.35-.74-5.96-.49-1.61-1.19-2.82-2.09-3.64-.9-.82-1.97-1.23-3.2-1.23-1.85,0-3.31.92-4.39,2.75-1.08,1.84-1.62,4.53-1.63,8.08-.01,2.37.23,4.37.72,5.99.49,1.62,1.19,2.84,2.08,3.66.9.82,1.97,1.23,3.21,1.23Z"/>
      <path class="cls-24" d="M904.7,627.43c-2.39,0-4.45-.61-6.16-1.82-1.71-1.22-3.02-2.97-3.94-5.28-.92-2.3-1.37-5.08-1.37-8.32,0-3.25.47-6.01,1.39-8.3.92-2.28,2.23-4.02,3.94-5.23,1.71-1.2,3.76-1.8,6.14-1.8s4.44.6,6.15,1.8c1.72,1.2,3.03,2.95,3.95,5.23s1.37,5.05,1.37,8.29-.46,6.04-1.37,8.34c-.92,2.3-2.23,4.06-3.94,5.27-1.71,1.21-3.76,1.82-6.16,1.82ZM904.7,622.88c1.86,0,3.33-.92,4.41-2.75,1.08-1.84,1.62-4.54,1.62-8.12,0-2.36-.25-4.35-.74-5.96-.49-1.61-1.19-2.82-2.09-3.64-.9-.82-1.97-1.23-3.2-1.23-1.85,0-3.31.92-4.39,2.75-1.08,1.84-1.62,4.53-1.63,8.08-.01,2.37.23,4.37.72,5.99.49,1.62,1.19,2.84,2.08,3.66.9.82,1.97,1.23,3.21,1.23Z"/>
      <path class="cls-24" d="M932.96,627.43c-2.39,0-4.45-.61-6.16-1.82-1.71-1.22-3.02-2.97-3.94-5.28-.92-2.3-1.37-5.08-1.37-8.32,0-3.25.47-6.01,1.39-8.3.92-2.28,2.23-4.02,3.94-5.23,1.71-1.2,3.76-1.8,6.14-1.8s4.44.6,6.15,1.8c1.72,1.2,3.03,2.95,3.95,5.23.92,2.29,1.37,5.05,1.37,8.29s-.46,6.04-1.37,8.34c-.92,2.3-2.23,4.06-3.94,5.27-1.71,1.21-3.76,1.82-6.16,1.82ZM932.96,622.88c1.86,0,3.33-.92,4.41-2.75,1.08-1.84,1.62-4.54,1.62-8.12,0-2.36-.25-4.35-.74-5.96-.49-1.61-1.19-2.82-2.09-3.64-.9-.82-1.97-1.23-3.2-1.23-1.85,0-3.31.92-4.39,2.75-1.08,1.84-1.62,4.53-1.63,8.08-.01,2.37.23,4.37.72,5.99.49,1.62,1.19,2.84,2.08,3.66.9.82,1.97,1.23,3.21,1.23Z"/>
      <path class="cls-24" d="M961.21,627.43c-2.39,0-4.45-.61-6.16-1.82-1.71-1.22-3.02-2.97-3.94-5.28-.92-2.3-1.37-5.08-1.37-8.32,0-3.25.47-6.01,1.39-8.3.92-2.28,2.23-4.02,3.94-5.23,1.71-1.2,3.76-1.8,6.14-1.8s4.44.6,6.15,1.8c1.72,1.2,3.03,2.95,3.95,5.23s1.37,5.05,1.37,8.29-.46,6.04-1.37,8.34c-.92,2.3-2.23,4.06-3.94,5.27-1.71,1.21-3.76,1.82-6.16,1.82ZM961.21,622.88c1.86,0,3.33-.92,4.41-2.75,1.08-1.84,1.62-4.54,1.62-8.12,0-2.36-.25-4.35-.74-5.96-.49-1.61-1.19-2.82-2.09-3.64-.9-.82-1.97-1.23-3.2-1.23-1.85,0-3.31.92-4.39,2.75-1.08,1.84-1.62,4.53-1.63,8.08-.01,2.37.23,4.37.72,5.99.49,1.62,1.19,2.84,2.08,3.66.9.82,1.97,1.23,3.21,1.23Z"/>
      <path class="cls-24" d="M989.46,627.43c-2.39,0-4.45-.61-6.16-1.82-1.71-1.22-3.02-2.97-3.94-5.28-.92-2.3-1.37-5.08-1.37-8.32,0-3.25.47-6.01,1.39-8.3.92-2.28,2.23-4.02,3.94-5.23,1.71-1.2,3.76-1.8,6.14-1.8s4.44.6,6.15,1.8c1.72,1.2,3.03,2.95,3.95,5.23.92,2.29,1.37,5.05,1.37,8.29s-.46,6.04-1.37,8.34c-.92,2.3-2.23,4.06-3.94,5.27-1.71,1.21-3.76,1.82-6.16,1.82ZM989.46,622.88c1.86,0,3.33-.92,4.41-2.75,1.08-1.84,1.62-4.54,1.62-8.12,0-2.36-.25-4.35-.74-5.96-.49-1.61-1.19-2.82-2.09-3.64-.9-.82-1.97-1.23-3.2-1.23-1.85,0-3.31.92-4.39,2.75-1.08,1.84-1.62,4.53-1.63,8.08-.01,2.37.23,4.37.72,5.99.49,1.62,1.19,2.84,2.08,3.66.9.82,1.97,1.23,3.21,1.23Z"/>
      <path class="cls-24" d="M1018.82,597.09v29.78h-5.39v-24.53h-.18l-6.96,4.45v-4.94l7.4-4.75h5.13Z"/>
      <path class="cls-24" d="M1039.46,597.09v29.78h-5.39v-24.53h-.18l-6.96,4.45v-4.94l7.4-4.75h5.13Z"/>
      <path class="cls-24" d="M1060.09,597.09v29.78h-5.39v-24.53h-.18l-6.96,4.45v-4.94l7.4-4.75h5.13Z"/>
      <path class="cls-24" d="M1080.72,597.09v29.78h-5.39v-24.53h-.18l-6.96,4.45v-4.94l7.4-4.75h5.13Z"/>
      <path class="cls-24" d="M1100.26,627.43c-2.39,0-4.45-.61-6.16-1.82-1.71-1.22-3.02-2.97-3.94-5.28-.92-2.3-1.37-5.08-1.37-8.32,0-3.25.47-6.01,1.39-8.3.92-2.28,2.23-4.02,3.94-5.23,1.71-1.2,3.76-1.8,6.14-1.8s4.44.6,6.15,1.8c1.72,1.2,3.03,2.95,3.95,5.23.92,2.29,1.37,5.05,1.37,8.29s-.46,6.04-1.37,8.34c-.92,2.3-2.23,4.06-3.94,5.27-1.71,1.21-3.76,1.82-6.16,1.82ZM1100.26,622.88c1.86,0,3.33-.92,4.41-2.75,1.08-1.84,1.62-4.54,1.62-8.12,0-2.36-.25-4.35-.74-5.96-.49-1.61-1.19-2.82-2.09-3.64-.9-.82-1.97-1.23-3.2-1.23-1.85,0-3.31.92-4.39,2.75-1.08,1.84-1.62,4.53-1.63,8.08-.01,2.37.23,4.37.72,5.99.49,1.62,1.19,2.84,2.08,3.66.9.82,1.97,1.23,3.21,1.23Z"/>
      <path class="cls-24" d="M1128.51,627.43c-2.39,0-4.45-.61-6.16-1.82-1.71-1.22-3.02-2.97-3.94-5.28-.92-2.3-1.37-5.08-1.37-8.32,0-3.25.47-6.01,1.39-8.3.92-2.28,2.23-4.02,3.94-5.23,1.71-1.2,3.76-1.8,6.14-1.8s4.44.6,6.15,1.8c1.72,1.2,3.03,2.95,3.95,5.23s1.37,5.05,1.37,8.29-.46,6.04-1.37,8.34c-.92,2.3-2.23,4.06-3.94,5.27-1.71,1.21-3.76,1.82-6.16,1.82ZM1128.51,622.88c1.86,0,3.33-.92,4.41-2.75,1.08-1.84,1.62-4.54,1.62-8.12,0-2.36-.25-4.35-.74-5.96-.49-1.61-1.19-2.82-2.09-3.64-.9-.82-1.97-1.23-3.2-1.23-1.85,0-3.31.92-4.39,2.75-1.08,1.84-1.62,4.53-1.63,8.08-.01,2.37.23,4.37.72,5.99.49,1.62,1.19,2.84,2.08,3.66.9.82,1.97,1.23,3.21,1.23Z"/>
      <path class="cls-24" d="M1156.76,627.43c-2.39,0-4.45-.61-6.16-1.82-1.71-1.22-3.02-2.97-3.94-5.28-.92-2.3-1.37-5.08-1.37-8.32,0-3.25.47-6.01,1.39-8.3.92-2.28,2.23-4.02,3.94-5.23,1.71-1.2,3.76-1.8,6.14-1.8s4.44.6,6.15,1.8c1.72,1.2,3.03,2.95,3.95,5.23.92,2.29,1.37,5.05,1.37,8.29s-.46,6.04-1.37,8.34c-.92,2.3-2.23,4.06-3.94,5.27-1.71,1.21-3.76,1.82-6.16,1.82ZM1156.76,622.88c1.86,0,3.33-.92,4.41-2.75,1.08-1.84,1.62-4.54,1.62-8.12,0-2.36-.25-4.35-.74-5.96-.49-1.61-1.19-2.82-2.09-3.64-.9-.82-1.97-1.23-3.2-1.23-1.85,0-3.31.92-4.39,2.75-1.08,1.84-1.62,4.53-1.63,8.08-.01,2.37.23,4.37.72,5.99.49,1.62,1.19,2.84,2.08,3.66.9.82,1.97,1.23,3.21,1.23Z"/>
      <path class="cls-24" d="M549.47,676.56c-2.39,0-4.45-.61-6.16-1.82-1.71-1.22-3.02-2.97-3.94-5.28-.92-2.3-1.37-5.08-1.37-8.32,0-3.25.47-6.01,1.39-8.3.92-2.28,2.23-4.02,3.94-5.23,1.71-1.2,3.76-1.8,6.14-1.8s4.44.6,6.15,1.8c1.72,1.2,3.03,2.95,3.95,5.23.92,2.29,1.37,5.05,1.37,8.29s-.46,6.04-1.37,8.34c-.92,2.3-2.23,4.06-3.94,5.27-1.71,1.21-3.76,1.82-6.16,1.82ZM549.47,672.01c1.86,0,3.33-.92,4.41-2.75,1.08-1.84,1.62-4.54,1.62-8.12,0-2.36-.25-4.35-.74-5.96-.49-1.61-1.19-2.82-2.09-3.64-.9-.82-1.97-1.23-3.2-1.23-1.85,0-3.31.92-4.39,2.75-1.08,1.84-1.62,4.53-1.63,8.08-.01,2.37.23,4.37.72,5.99.49,1.62,1.19,2.84,2.08,3.66.9.82,1.97,1.23,3.21,1.23Z"/>
      <path class="cls-24" d="M578.03,646.22v29.78h-5.39v-24.53h-.18l-6.96,4.45v-4.94l7.4-4.75h5.13Z"/>
      <path class="cls-24" d="M597.87,646.22v29.78h-5.39v-24.53h-.18l-6.96,4.45v-4.94l7.4-4.75h5.13Z"/>
      <path class="cls-24" d="M616.61,676.56c-2.39,0-4.45-.61-6.16-1.82-1.71-1.22-3.02-2.97-3.94-5.28-.92-2.3-1.37-5.08-1.37-8.32,0-3.25.47-6.01,1.39-8.3.92-2.28,2.23-4.02,3.94-5.23,1.71-1.2,3.76-1.8,6.14-1.8s4.44.6,6.15,1.8c1.72,1.2,3.03,2.95,3.95,5.23s1.37,5.05,1.37,8.29-.46,6.04-1.37,8.34c-.92,2.3-2.23,4.06-3.94,5.27-1.71,1.21-3.76,1.82-6.16,1.82ZM616.61,672.01c1.86,0,3.33-.92,4.41-2.75,1.08-1.84,1.62-4.54,1.62-8.12,0-2.36-.25-4.35-.74-5.96-.49-1.61-1.19-2.82-2.09-3.64-.9-.82-1.97-1.23-3.2-1.23-1.85,0-3.31.92-4.39,2.75-1.08,1.84-1.62,4.53-1.63,8.08-.01,2.37.23,4.37.72,5.99.49,1.62,1.19,2.84,2.08,3.66.9.82,1.97,1.23,3.21,1.23Z"/>
      <path class="cls-24" d="M645.18,646.22v29.78h-5.39v-24.53h-.18l-6.96,4.45v-4.94l7.4-4.75h5.13Z"/>
      <path class="cls-24" d="M663.91,676.56c-2.39,0-4.45-.61-6.16-1.82-1.71-1.22-3.02-2.97-3.94-5.28-.92-2.3-1.37-5.08-1.37-8.32,0-3.25.47-6.01,1.39-8.3.92-2.28,2.23-4.02,3.94-5.23,1.71-1.2,3.76-1.8,6.14-1.8s4.44.6,6.15,1.8c1.72,1.2,3.03,2.95,3.95,5.23.92,2.29,1.37,5.05,1.37,8.29s-.46,6.04-1.37,8.34c-.92,2.3-2.23,4.06-3.94,5.27-1.71,1.21-3.76,1.82-6.16,1.82ZM663.91,672.01c1.86,0,3.33-.92,4.41-2.75,1.08-1.84,1.62-4.54,1.62-8.12,0-2.36-.25-4.35-.74-5.96-.49-1.61-1.19-2.82-2.09-3.64-.9-.82-1.97-1.23-3.2-1.23-1.85,0-3.31.92-4.39,2.75-1.08,1.84-1.62,4.53-1.63,8.08-.01,2.37.23,4.37.72,5.99.49,1.62,1.19,2.84,2.08,3.66.9.82,1.97,1.23,3.21,1.23Z"/>
      <path class="cls-24" d="M692.48,646.22v29.78h-5.39v-24.53h-.18l-6.96,4.45v-4.94l7.4-4.75h5.13Z"/>
      <path class="cls-24" d="M711.21,676.56c-2.39,0-4.45-.61-6.16-1.82-1.71-1.22-3.02-2.97-3.94-5.28-.92-2.3-1.37-5.08-1.37-8.32,0-3.25.47-6.01,1.39-8.3.92-2.28,2.23-4.02,3.94-5.23,1.71-1.2,3.76-1.8,6.14-1.8s4.44.6,6.15,1.8c1.72,1.2,3.03,2.95,3.95,5.23.92,2.29,1.37,5.05,1.37,8.29s-.46,6.04-1.37,8.34c-.92,2.3-2.23,4.06-3.94,5.27-1.71,1.21-3.76,1.82-6.16,1.82ZM711.21,672.01c1.86,0,3.33-.92,4.41-2.75,1.08-1.84,1.62-4.54,1.62-8.12,0-2.36-.25-4.35-.74-5.96-.49-1.61-1.19-2.82-2.09-3.64-.9-.82-1.97-1.23-3.2-1.23-1.85,0-3.31.92-4.39,2.75-1.08,1.84-1.62,4.53-1.63,8.08-.01,2.37.23,4.37.72,5.99.49,1.62,1.19,2.84,2.08,3.66.9.82,1.97,1.23,3.21,1.23Z"/>
      <path class="cls-24" d="M739.78,646.22v29.78h-5.39v-24.53h-.18l-6.96,4.45v-4.94l7.4-4.75h5.13Z"/>
      <path class="cls-24" d="M758.51,676.56c-2.39,0-4.45-.61-6.16-1.82-1.71-1.22-3.02-2.97-3.94-5.28-.92-2.3-1.37-5.08-1.37-8.32,0-3.25.47-6.01,1.39-8.3.92-2.28,2.23-4.02,3.94-5.23,1.71-1.2,3.76-1.8,6.14-1.8s4.44.6,6.15,1.8c1.72,1.2,3.03,2.95,3.95,5.23.92,2.29,1.37,5.05,1.37,8.29s-.46,6.04-1.37,8.34c-.92,2.3-2.23,4.06-3.94,5.27-1.71,1.21-3.76,1.82-6.16,1.82ZM758.51,672.01c1.86,0,3.33-.92,4.41-2.75,1.08-1.84,1.62-4.54,1.62-8.12,0-2.36-.25-4.35-.74-5.96-.49-1.61-1.19-2.82-2.09-3.64-.9-.82-1.97-1.23-3.2-1.23-1.85,0-3.31.92-4.39,2.75-1.08,1.84-1.62,4.53-1.63,8.08-.01,2.37.23,4.37.72,5.99.49,1.62,1.19,2.84,2.08,3.66.9.82,1.97,1.23,3.21,1.23Z"/>
      <path class="cls-24" d="M787.08,646.22v29.78h-5.39v-24.53h-.18l-6.96,4.45v-4.94l7.4-4.75h5.13Z"/>
      <path class="cls-24" d="M805.81,676.56c-2.39,0-4.45-.61-6.16-1.82-1.71-1.22-3.02-2.97-3.94-5.28-.92-2.3-1.37-5.08-1.37-8.32,0-3.25.47-6.01,1.39-8.3.92-2.28,2.23-4.02,3.94-5.23,1.71-1.2,3.76-1.8,6.14-1.8s4.44.6,6.15,1.8c1.72,1.2,3.03,2.95,3.95,5.23s1.37,5.05,1.37,8.29-.46,6.04-1.37,8.34c-.92,2.3-2.23,4.06-3.94,5.27-1.71,1.21-3.76,1.82-6.16,1.82ZM805.81,672.01c1.86,0,3.33-.92,4.41-2.75,1.08-1.84,1.62-4.54,1.62-8.12,0-2.36-.25-4.35-.74-5.96-.49-1.61-1.19-2.82-2.09-3.64-.9-.82-1.97-1.23-3.2-1.23-1.85,0-3.31.92-4.39,2.75-1.08,1.84-1.62,4.53-1.63,8.08-.01,2.37.23,4.37.72,5.99.49,1.62,1.19,2.84,2.08,3.66.9.82,1.97,1.23,3.21,1.23Z"/>
      <path class="cls-24" d="M833.28,676.56c-2.39,0-4.45-.61-6.16-1.82-1.71-1.22-3.02-2.97-3.94-5.28-.92-2.3-1.37-5.08-1.37-8.32,0-3.25.47-6.01,1.39-8.3.92-2.28,2.23-4.02,3.94-5.23,1.71-1.2,3.76-1.8,6.14-1.8s4.44.6,6.15,1.8c1.72,1.2,3.03,2.95,3.95,5.23.92,2.29,1.37,5.05,1.37,8.29s-.46,6.04-1.37,8.34c-.92,2.3-2.23,4.06-3.94,5.27-1.71,1.21-3.76,1.82-6.16,1.82ZM833.28,672.01c1.86,0,3.33-.92,4.41-2.75,1.08-1.84,1.62-4.54,1.62-8.12,0-2.36-.25-4.35-.74-5.96-.49-1.61-1.19-2.82-2.09-3.64-.9-.82-1.97-1.23-3.2-1.23-1.85,0-3.31.92-4.39,2.75-1.08,1.84-1.62,4.53-1.63,8.08-.01,2.37.23,4.37.72,5.99.49,1.62,1.19,2.84,2.08,3.66.9.82,1.97,1.23,3.21,1.23Z"/>
      <path class="cls-24" d="M861.84,646.22v29.78h-5.39v-24.53h-.18l-6.96,4.45v-4.94l7.4-4.75h5.13Z"/>
      <path class="cls-24" d="M880.58,676.56c-2.39,0-4.45-.61-6.16-1.82-1.71-1.22-3.02-2.97-3.94-5.28-.92-2.3-1.37-5.08-1.37-8.32,0-3.25.47-6.01,1.39-8.3.92-2.28,2.23-4.02,3.94-5.23,1.71-1.2,3.76-1.8,6.14-1.8s4.44.6,6.15,1.8c1.72,1.2,3.03,2.95,3.95,5.23.92,2.29,1.37,5.05,1.37,8.29s-.46,6.04-1.37,8.34c-.92,2.3-2.23,4.06-3.94,5.27-1.71,1.21-3.76,1.82-6.16,1.82ZM880.58,672.01c1.86,0,3.33-.92,4.41-2.75,1.08-1.84,1.62-4.54,1.62-8.12,0-2.36-.25-4.35-.74-5.96-.49-1.61-1.19-2.82-2.09-3.64-.9-.82-1.97-1.23-3.2-1.23-1.85,0-3.31.92-4.39,2.75-1.08,1.84-1.62,4.53-1.63,8.08-.01,2.37.23,4.37.72,5.99.49,1.62,1.19,2.84,2.08,3.66.9.82,1.97,1.23,3.21,1.23Z"/>
      <path class="cls-24" d="M908.03,676.56c-2.39,0-4.45-.61-6.16-1.82-1.71-1.22-3.02-2.97-3.94-5.28-.92-2.3-1.37-5.08-1.37-8.32,0-3.25.47-6.01,1.39-8.3.92-2.28,2.23-4.02,3.94-5.23,1.71-1.2,3.76-1.8,6.14-1.8s4.44.6,6.15,1.8c1.72,1.2,3.03,2.95,3.95,5.23s1.37,5.05,1.37,8.29-.46,6.04-1.37,8.34c-.92,2.3-2.23,4.06-3.94,5.27-1.71,1.21-3.76,1.82-6.16,1.82ZM908.03,672.01c1.86,0,3.33-.92,4.41-2.75,1.08-1.84,1.62-4.54,1.62-8.12,0-2.36-.25-4.35-.74-5.96-.49-1.61-1.19-2.82-2.09-3.64-.9-.82-1.97-1.23-3.2-1.23-1.85,0-3.31.92-4.39,2.75-1.08,1.84-1.62,4.53-1.63,8.08-.01,2.37.23,4.37.72,5.99.49,1.62,1.19,2.84,2.08,3.66.9.82,1.97,1.23,3.21,1.23Z"/>
      <path class="cls-24" d="M936.6,646.22v29.78h-5.39v-24.53h-.18l-6.96,4.45v-4.94l7.4-4.75h5.13Z"/>
      <path class="cls-24" d="M956.44,646.22v29.78h-5.39v-24.53h-.18l-6.96,4.45v-4.94l7.4-4.75h5.13Z"/>
      <path class="cls-24" d="M976.28,646.22v29.78h-5.39v-24.53h-.18l-6.96,4.45v-4.94l7.4-4.75h5.13Z"/>
      <path class="cls-24" d="M995.02,676.56c-2.39,0-4.45-.61-6.16-1.82-1.71-1.22-3.02-2.97-3.94-5.28-.92-2.3-1.37-5.08-1.37-8.32,0-3.25.47-6.01,1.39-8.3.92-2.28,2.23-4.02,3.94-5.23,1.71-1.2,3.76-1.8,6.14-1.8s4.44.6,6.15,1.8c1.72,1.2,3.03,2.95,3.95,5.23s1.37,5.05,1.37,8.29-.46,6.04-1.37,8.34c-.92,2.3-2.23,4.06-3.94,5.27-1.71,1.21-3.76,1.82-6.16,1.82ZM995.02,672.01c1.86,0,3.33-.92,4.41-2.75,1.08-1.84,1.62-4.54,1.62-8.12,0-2.36-.25-4.35-.74-5.96-.49-1.61-1.19-2.82-2.09-3.64-.9-.82-1.97-1.23-3.2-1.23-1.85,0-3.31.92-4.39,2.75-1.08,1.84-1.62,4.53-1.63,8.08-.01,2.37.23,4.37.72,5.99.49,1.62,1.19,2.84,2.08,3.66.9.82,1.97,1.23,3.21,1.23Z"/>
      <path class="cls-24" d="M1023.58,646.22v29.78h-5.39v-24.53h-.18l-6.96,4.45v-4.94l7.4-4.75h5.13Z"/>
      <path class="cls-24" d="M1043.43,646.22v29.78h-5.39v-24.53h-.18l-6.96,4.45v-4.94l7.4-4.75h5.13Z"/>
      <path class="cls-24" d="M1062.16,676.56c-2.39,0-4.45-.61-6.16-1.82-1.71-1.22-3.02-2.97-3.94-5.28-.92-2.3-1.37-5.08-1.37-8.32,0-3.25.47-6.01,1.39-8.3.92-2.28,2.23-4.02,3.94-5.23,1.71-1.2,3.76-1.8,6.14-1.8s4.44.6,6.15,1.8c1.72,1.2,3.03,2.95,3.95,5.23.92,2.29,1.37,5.05,1.37,8.29s-.46,6.04-1.37,8.34c-.92,2.3-2.23,4.06-3.94,5.27-1.71,1.21-3.76,1.82-6.16,1.82ZM1062.16,672.01c1.86,0,3.33-.92,4.41-2.75,1.08-1.84,1.62-4.54,1.62-8.12,0-2.36-.25-4.35-.74-5.96-.49-1.61-1.19-2.82-2.09-3.64-.9-.82-1.97-1.23-3.2-1.23-1.85,0-3.31.92-4.39,2.75-1.08,1.84-1.62,4.53-1.63,8.08-.01,2.37.23,4.37.72,5.99.49,1.62,1.19,2.84,2.08,3.66.9.82,1.97,1.23,3.21,1.23Z"/>
      <path class="cls-24" d="M1090.72,646.22v29.78h-5.39v-24.53h-.18l-6.96,4.45v-4.94l7.4-4.75h5.13Z"/>
      <path class="cls-24" d="M1109.46,676.56c-2.39,0-4.45-.61-6.16-1.82-1.71-1.22-3.02-2.97-3.94-5.28-.92-2.3-1.37-5.08-1.37-8.32,0-3.25.47-6.01,1.39-8.3.92-2.28,2.23-4.02,3.94-5.23,1.71-1.2,3.76-1.8,6.14-1.8s4.44.6,6.15,1.8c1.72,1.2,3.03,2.95,3.95,5.23.92,2.29,1.37,5.05,1.37,8.29s-.46,6.04-1.37,8.34c-.92,2.3-2.23,4.06-3.94,5.27-1.71,1.21-3.76,1.82-6.16,1.82ZM1109.46,672.01c1.86,0,3.33-.92,4.41-2.75,1.08-1.84,1.62-4.54,1.62-8.12,0-2.36-.25-4.35-.74-5.96-.49-1.61-1.19-2.82-2.09-3.64-.9-.82-1.97-1.23-3.2-1.23-1.85,0-3.31.92-4.39,2.75-1.08,1.84-1.62,4.53-1.63,8.08-.01,2.37.23,4.37.72,5.99.49,1.62,1.19,2.84,2.08,3.66.9.82,1.97,1.23,3.21,1.23Z"/>
      <path class="cls-24" d="M1136.92,676.56c-2.39,0-4.45-.61-6.16-1.82-1.71-1.22-3.02-2.97-3.94-5.28-.92-2.3-1.37-5.08-1.37-8.32,0-3.25.47-6.01,1.39-8.3.92-2.28,2.23-4.02,3.94-5.23,1.71-1.2,3.76-1.8,6.14-1.8s4.44.6,6.15,1.8c1.72,1.2,3.03,2.95,3.95,5.23s1.37,5.05,1.37,8.29-.46,6.04-1.37,8.34c-.92,2.3-2.23,4.06-3.94,5.27-1.71,1.21-3.76,1.82-6.16,1.82ZM1136.92,672.01c1.86,0,3.33-.92,4.41-2.75,1.08-1.84,1.62-4.54,1.62-8.12,0-2.36-.25-4.35-.74-5.96-.49-1.61-1.19-2.82-2.09-3.64-.9-.82-1.97-1.23-3.2-1.23-1.85,0-3.31.92-4.39,2.75-1.08,1.84-1.62,4.53-1.63,8.08-.01,2.37.23,4.37.72,5.99.49,1.62,1.19,2.84,2.08,3.66.9.82,1.97,1.23,3.21,1.23Z"/>
      <path class="cls-24" d="M1165.49,646.22v29.78h-5.39v-24.53h-.18l-6.96,4.45v-4.94l7.4-4.75h5.13Z"/>
      <path class="cls-24" d="M550.57,695.35v29.78h-5.39v-24.53h-.18l-6.96,4.45v-4.94l7.4-4.75h5.13Z"/>
      <path class="cls-24" d="M569.6,725.69c-2.39,0-4.45-.61-6.16-1.82-1.71-1.22-3.02-2.97-3.94-5.28-.92-2.3-1.37-5.08-1.37-8.32,0-3.25.47-6.01,1.39-8.3.92-2.28,2.23-4.02,3.94-5.23,1.71-1.2,3.76-1.8,6.14-1.8s4.44.6,6.15,1.8c1.72,1.2,3.03,2.95,3.95,5.23s1.37,5.05,1.37,8.29-.46,6.04-1.37,8.34c-.92,2.3-2.23,4.06-3.94,5.27-1.71,1.21-3.76,1.82-6.16,1.82ZM569.6,721.14c1.86,0,3.33-.92,4.41-2.75,1.08-1.84,1.62-4.54,1.62-8.12,0-2.36-.25-4.35-.74-5.96-.49-1.61-1.19-2.82-2.09-3.64-.9-.82-1.97-1.23-3.2-1.23-1.85,0-3.31.92-4.39,2.75-1.08,1.84-1.62,4.53-1.63,8.08-.01,2.37.23,4.37.72,5.99.49,1.62,1.19,2.84,2.08,3.66.9.82,1.97,1.23,3.21,1.23Z"/>
      <path class="cls-24" d="M598.46,695.35v29.78h-5.39v-24.53h-.18l-6.96,4.45v-4.94l7.4-4.75h5.13Z"/>
      <path class="cls-24" d="M617.49,725.69c-2.39,0-4.45-.61-6.16-1.82-1.71-1.22-3.02-2.97-3.94-5.28-.92-2.3-1.37-5.08-1.37-8.32,0-3.25.47-6.01,1.39-8.3.92-2.28,2.23-4.02,3.94-5.23,1.71-1.2,3.76-1.8,6.14-1.8s4.44.6,6.15,1.8c1.72,1.2,3.03,2.95,3.95,5.23.92,2.29,1.37,5.05,1.37,8.29s-.46,6.04-1.37,8.34c-.92,2.3-2.23,4.06-3.94,5.27-1.71,1.21-3.76,1.82-6.16,1.82ZM617.49,721.14c1.86,0,3.33-.92,4.41-2.75,1.08-1.84,1.62-4.54,1.62-8.12,0-2.36-.25-4.35-.74-5.96-.49-1.61-1.19-2.82-2.09-3.64-.9-.82-1.97-1.23-3.2-1.23-1.85,0-3.31.92-4.39,2.75-1.08,1.84-1.62,4.53-1.63,8.08-.01,2.37.23,4.37.72,5.99.49,1.62,1.19,2.84,2.08,3.66.9.82,1.97,1.23,3.21,1.23Z"/>
      <path class="cls-24" d="M646.35,695.35v29.78h-5.39v-24.53h-.18l-6.96,4.45v-4.94l7.4-4.75h5.13Z"/>
      <path class="cls-24" d="M665.38,725.69c-2.39,0-4.45-.61-6.16-1.82-1.71-1.22-3.02-2.97-3.94-5.28-.92-2.3-1.37-5.08-1.37-8.32,0-3.25.47-6.01,1.39-8.3.92-2.28,2.23-4.02,3.94-5.23,1.71-1.2,3.76-1.8,6.14-1.8s4.44.6,6.15,1.8c1.72,1.2,3.03,2.95,3.95,5.23.92,2.29,1.37,5.05,1.37,8.29s-.46,6.04-1.37,8.34c-.92,2.3-2.23,4.06-3.94,5.27-1.71,1.21-3.76,1.82-6.16,1.82ZM665.38,721.14c1.86,0,3.33-.92,4.41-2.75,1.08-1.84,1.62-4.54,1.62-8.12,0-2.36-.25-4.35-.74-5.96-.49-1.61-1.19-2.82-2.09-3.64-.9-.82-1.97-1.23-3.2-1.23-1.85,0-3.31.92-4.39,2.75-1.08,1.84-1.62,4.53-1.63,8.08-.01,2.37.23,4.37.72,5.99.49,1.62,1.19,2.84,2.08,3.66.9.82,1.97,1.23,3.21,1.23Z"/>
      <path class="cls-24" d="M694.24,695.35v29.78h-5.39v-24.53h-.18l-6.96,4.45v-4.94l7.4-4.75h5.13Z"/>
      <path class="cls-24" d="M713.26,725.69c-2.39,0-4.45-.61-6.16-1.82-1.71-1.22-3.02-2.97-3.94-5.28-.92-2.3-1.37-5.08-1.37-8.32,0-3.25.47-6.01,1.39-8.3.92-2.28,2.23-4.02,3.94-5.23,1.71-1.2,3.76-1.8,6.14-1.8s4.44.6,6.15,1.8c1.72,1.2,3.03,2.95,3.95,5.23.92,2.29,1.37,5.05,1.37,8.29s-.46,6.04-1.37,8.34c-.92,2.3-2.23,4.06-3.94,5.27-1.71,1.21-3.76,1.82-6.16,1.82ZM713.26,721.14c1.86,0,3.33-.92,4.41-2.75,1.08-1.84,1.62-4.54,1.62-8.12,0-2.36-.25-4.35-.74-5.96-.49-1.61-1.19-2.82-2.09-3.64-.9-.82-1.97-1.23-3.2-1.23-1.85,0-3.31.92-4.39,2.75-1.08,1.84-1.62,4.53-1.63,8.08-.01,2.37.23,4.37.72,5.99.49,1.62,1.19,2.84,2.08,3.66.9.82,1.97,1.23,3.21,1.23Z"/>
      <path class="cls-24" d="M742.12,695.35v29.78h-5.39v-24.53h-.18l-6.96,4.45v-4.94l7.4-4.75h5.13Z"/>
      <path class="cls-24" d="M762.25,695.35v29.78h-5.39v-24.53h-.18l-6.96,4.45v-4.94l7.4-4.75h5.13Z"/>
      <path class="cls-24" d="M782.39,695.35v29.78h-5.39v-24.53h-.18l-6.96,4.45v-4.94l7.4-4.75h5.13Z"/>
      <path class="cls-24" d="M802.52,695.35v29.78h-5.39v-24.53h-.18l-6.96,4.45v-4.94l7.4-4.75h5.13Z"/>
      <path class="cls-24" d="M821.55,725.69c-2.39,0-4.45-.61-6.16-1.82-1.71-1.22-3.02-2.97-3.94-5.28-.92-2.3-1.37-5.08-1.37-8.32,0-3.25.47-6.01,1.39-8.3.92-2.28,2.23-4.02,3.94-5.23,1.71-1.2,3.76-1.8,6.14-1.8s4.44.6,6.15,1.8c1.72,1.2,3.03,2.95,3.95,5.23.92,2.29,1.37,5.05,1.37,8.29s-.46,6.04-1.37,8.34c-.92,2.3-2.23,4.06-3.94,5.27-1.71,1.21-3.76,1.82-6.16,1.82ZM821.55,721.14c1.86,0,3.33-.92,4.41-2.75,1.08-1.84,1.62-4.54,1.62-8.12,0-2.36-.25-4.35-.74-5.96-.49-1.61-1.19-2.82-2.09-3.64-.9-.82-1.97-1.23-3.2-1.23-1.85,0-3.31.92-4.39,2.75-1.08,1.84-1.62,4.53-1.63,8.08-.01,2.37.23,4.37.72,5.99.49,1.62,1.19,2.84,2.08,3.66.9.82,1.97,1.23,3.21,1.23Z"/>
      <path class="cls-24" d="M849.31,725.69c-2.39,0-4.45-.61-6.16-1.82-1.71-1.22-3.02-2.97-3.94-5.28-.92-2.3-1.37-5.08-1.37-8.32,0-3.25.47-6.01,1.39-8.3.92-2.28,2.23-4.02,3.94-5.23,1.71-1.2,3.76-1.8,6.14-1.8s4.44.6,6.15,1.8c1.72,1.2,3.03,2.95,3.95,5.23.92,2.29,1.37,5.05,1.37,8.29s-.46,6.04-1.37,8.34c-.92,2.3-2.23,4.06-3.94,5.27-1.71,1.21-3.76,1.82-6.16,1.82ZM849.31,721.14c1.86,0,3.33-.92,4.41-2.75,1.08-1.84,1.62-4.54,1.62-8.12,0-2.36-.25-4.35-.74-5.96-.49-1.61-1.19-2.82-2.09-3.64-.9-.82-1.97-1.23-3.2-1.23-1.85,0-3.31.92-4.39,2.75-1.08,1.84-1.62,4.53-1.63,8.08-.01,2.37.23,4.37.72,5.99.49,1.62,1.19,2.84,2.08,3.66.9.82,1.97,1.23,3.21,1.23Z"/>
      <path class="cls-24" d="M877.06,725.69c-2.39,0-4.45-.61-6.16-1.82-1.71-1.22-3.02-2.97-3.94-5.28-.92-2.3-1.37-5.08-1.37-8.32,0-3.25.47-6.01,1.39-8.3.92-2.28,2.23-4.02,3.94-5.23,1.71-1.2,3.76-1.8,6.14-1.8s4.44.6,6.15,1.8c1.72,1.2,3.03,2.95,3.95,5.23s1.37,5.05,1.37,8.29-.46,6.04-1.37,8.34c-.92,2.3-2.23,4.06-3.94,5.27-1.71,1.21-3.76,1.82-6.16,1.82ZM877.06,721.14c1.86,0,3.33-.92,4.41-2.75,1.08-1.84,1.62-4.54,1.62-8.12,0-2.36-.25-4.35-.74-5.96-.49-1.61-1.19-2.82-2.09-3.64-.9-.82-1.97-1.23-3.2-1.23-1.85,0-3.31.92-4.39,2.75-1.08,1.84-1.62,4.53-1.63,8.08-.01,2.37.23,4.37.72,5.99.49,1.62,1.19,2.84,2.08,3.66.9.82,1.97,1.23,3.21,1.23Z"/>
      <path class="cls-24" d="M904.81,725.69c-2.39,0-4.45-.61-6.16-1.82-1.71-1.22-3.02-2.97-3.94-5.28-.92-2.3-1.37-5.08-1.37-8.32,0-3.25.47-6.01,1.39-8.3.92-2.28,2.23-4.02,3.94-5.23,1.71-1.2,3.76-1.8,6.14-1.8s4.44.6,6.15,1.8c1.72,1.2,3.03,2.95,3.95,5.23s1.37,5.05,1.37,8.29-.46,6.04-1.37,8.34c-.92,2.3-2.23,4.06-3.94,5.27-1.71,1.21-3.76,1.82-6.16,1.82ZM904.81,721.14c1.86,0,3.33-.92,4.41-2.75,1.08-1.84,1.62-4.54,1.62-8.12,0-2.36-.25-4.35-.74-5.96-.49-1.61-1.19-2.82-2.09-3.64-.9-.82-1.97-1.23-3.2-1.23-1.85,0-3.31.92-4.39,2.75-1.08,1.84-1.62,4.53-1.63,8.08-.01,2.37.23,4.37.72,5.99.49,1.62,1.19,2.84,2.08,3.66.9.82,1.97,1.23,3.21,1.23Z"/>
      <path class="cls-24" d="M933.67,695.35v29.78h-5.39v-24.53h-.18l-6.96,4.45v-4.94l7.4-4.75h5.13Z"/>
      <path class="cls-24" d="M952.7,725.69c-2.39,0-4.45-.61-6.16-1.82-1.71-1.22-3.02-2.97-3.94-5.28-.92-2.3-1.37-5.08-1.37-8.32,0-3.25.47-6.01,1.39-8.3.92-2.28,2.23-4.02,3.94-5.23,1.71-1.2,3.76-1.8,6.14-1.8s4.44.6,6.15,1.8c1.72,1.2,3.03,2.95,3.95,5.23s1.37,5.05,1.37,8.29-.46,6.04-1.37,8.34c-.92,2.3-2.23,4.06-3.94,5.27-1.71,1.21-3.76,1.82-6.16,1.82ZM952.7,721.14c1.86,0,3.33-.92,4.41-2.75,1.08-1.84,1.62-4.54,1.62-8.12,0-2.36-.25-4.35-.74-5.96-.49-1.61-1.19-2.82-2.09-3.64-.9-.82-1.97-1.23-3.2-1.23-1.85,0-3.31.92-4.39,2.75-1.08,1.84-1.62,4.53-1.63,8.08-.01,2.37.23,4.37.72,5.99.49,1.62,1.19,2.84,2.08,3.66.9.82,1.97,1.23,3.21,1.23Z"/>
      <path class="cls-24" d="M981.56,695.35v29.78h-5.39v-24.53h-.18l-6.96,4.45v-4.94l7.4-4.75h5.13Z"/>
      <path class="cls-24" d="M1000.59,725.69c-2.39,0-4.45-.61-6.16-1.82-1.71-1.22-3.02-2.97-3.94-5.28-.92-2.3-1.37-5.08-1.37-8.32,0-3.25.47-6.01,1.39-8.3.92-2.28,2.23-4.02,3.94-5.23,1.71-1.2,3.76-1.8,6.14-1.8s4.44.6,6.15,1.8c1.72,1.2,3.03,2.95,3.95,5.23.92,2.29,1.37,5.05,1.37,8.29s-.46,6.04-1.37,8.34c-.92,2.3-2.23,4.06-3.94,5.27-1.71,1.21-3.76,1.82-6.16,1.82ZM1000.59,721.14c1.86,0,3.33-.92,4.41-2.75,1.08-1.84,1.62-4.54,1.62-8.12,0-2.36-.25-4.35-.74-5.96-.49-1.61-1.19-2.82-2.09-3.64-.9-.82-1.97-1.23-3.2-1.23-1.85,0-3.31.92-4.39,2.75-1.08,1.84-1.62,4.53-1.63,8.08-.01,2.37.23,4.37.72,5.99.49,1.62,1.19,2.84,2.08,3.66.9.82,1.97,1.23,3.21,1.23Z"/>
      <path class="cls-24" d="M1029.44,695.35v29.78h-5.39v-24.53h-.18l-6.96,4.45v-4.94l7.4-4.75h5.13Z"/>
      <path class="cls-24" d="M1049.58,695.35v29.78h-5.39v-24.53h-.18l-6.96,4.45v-4.94l7.4-4.75h5.13Z"/>
      <path class="cls-24" d="M1069.71,695.35v29.78h-5.39v-24.53h-.18l-6.96,4.45v-4.94l7.4-4.75h5.13Z"/>
      <path class="cls-24" d="M1089.85,695.35v29.78h-5.39v-24.53h-.18l-6.96,4.45v-4.94l7.4-4.75h5.13Z"/>
      <path class="cls-24" d="M1108.87,725.69c-2.39,0-4.45-.61-6.16-1.82-1.71-1.22-3.02-2.97-3.94-5.28-.92-2.3-1.37-5.08-1.37-8.32,0-3.25.47-6.01,1.39-8.3.92-2.28,2.23-4.02,3.94-5.23,1.71-1.2,3.76-1.8,6.14-1.8s4.44.6,6.15,1.8c1.72,1.2,3.03,2.95,3.95,5.23.92,2.29,1.37,5.05,1.37,8.29s-.46,6.04-1.37,8.34c-.92,2.3-2.23,4.06-3.94,5.27-1.71,1.21-3.76,1.82-6.16,1.82ZM1108.87,721.14c1.86,0,3.33-.92,4.41-2.75,1.08-1.84,1.62-4.54,1.62-8.12,0-2.36-.25-4.35-.74-5.96-.49-1.61-1.19-2.82-2.09-3.64-.9-.82-1.97-1.23-3.2-1.23-1.85,0-3.31.92-4.39,2.75-1.08,1.84-1.62,4.53-1.63,8.08-.01,2.37.23,4.37.72,5.99.49,1.62,1.19,2.84,2.08,3.66.9.82,1.97,1.23,3.21,1.23Z"/>
      <path class="cls-24" d="M1137.73,695.35v29.78h-5.39v-24.53h-.18l-6.96,4.45v-4.94l7.4-4.75h5.13Z"/>
      <path class="cls-24" d="M1156.76,725.69c-2.39,0-4.45-.61-6.16-1.82-1.71-1.22-3.02-2.97-3.94-5.28-.92-2.3-1.37-5.08-1.37-8.32,0-3.25.47-6.01,1.39-8.3.92-2.28,2.23-4.02,3.94-5.23,1.71-1.2,3.76-1.8,6.14-1.8s4.44.6,6.15,1.8c1.72,1.2,3.03,2.95,3.95,5.23.92,2.29,1.37,5.05,1.37,8.29s-.46,6.04-1.37,8.34c-.92,2.3-2.23,4.06-3.94,5.27-1.71,1.21-3.76,1.82-6.16,1.82ZM1156.76,721.14c1.86,0,3.33-.92,4.41-2.75,1.08-1.84,1.62-4.54,1.62-8.12,0-2.36-.25-4.35-.74-5.96-.49-1.61-1.19-2.82-2.09-3.64-.9-.82-1.97-1.23-3.2-1.23-1.85,0-3.31.92-4.39,2.75-1.08,1.84-1.62,4.53-1.63,8.08-.01,2.37.23,4.37.72,5.99.49,1.62,1.19,2.84,2.08,3.66.9.82,1.97,1.23,3.21,1.23Z"/>
      <path class="cls-24" d="M550.57,744.48v29.78h-5.39v-24.53h-.18l-6.96,4.45v-4.94l7.4-4.75h5.13Z"/>
      <path class="cls-24" d="M570.1,774.82c-2.39,0-4.45-.61-6.16-1.82-1.71-1.22-3.02-2.97-3.94-5.28-.92-2.3-1.37-5.08-1.37-8.32,0-3.25.47-6.01,1.39-8.3.92-2.28,2.23-4.02,3.94-5.23,1.71-1.2,3.76-1.8,6.14-1.8s4.44.6,6.15,1.8c1.72,1.2,3.03,2.95,3.95,5.23s1.37,5.05,1.37,8.29-.46,6.04-1.37,8.34c-.92,2.3-2.23,4.06-3.94,5.27-1.71,1.21-3.76,1.82-6.16,1.82ZM570.1,770.27c1.86,0,3.33-.92,4.41-2.75,1.08-1.84,1.62-4.54,1.62-8.12,0-2.36-.25-4.35-.74-5.96-.49-1.61-1.19-2.82-2.09-3.64-.9-.82-1.97-1.23-3.2-1.23-1.85,0-3.31.92-4.39,2.75-1.08,1.84-1.62,4.53-1.63,8.08-.01,2.37.23,4.37.72,5.99.49,1.62,1.19,2.84,2.08,3.66.9.82,1.97,1.23,3.21,1.23Z"/>
      <path class="cls-24" d="M599.46,744.48v29.78h-5.39v-24.53h-.18l-6.96,4.45v-4.94l7.4-4.75h5.13Z"/>
      <path class="cls-24" d="M620.1,744.48v29.78h-5.39v-24.53h-.18l-6.96,4.45v-4.94l7.4-4.75h5.13Z"/>
      <path class="cls-24" d="M640.73,744.48v29.78h-5.39v-24.53h-.18l-6.96,4.45v-4.94l7.4-4.75h5.13Z"/>
      <path class="cls-24" d="M660.26,774.82c-2.39,0-4.45-.61-6.16-1.82-1.71-1.22-3.02-2.97-3.94-5.28-.92-2.3-1.37-5.08-1.37-8.32,0-3.25.47-6.01,1.39-8.3.92-2.28,2.23-4.02,3.94-5.23,1.71-1.2,3.76-1.8,6.14-1.8s4.44.6,6.15,1.8c1.72,1.2,3.03,2.95,3.95,5.23.92,2.29,1.37,5.05,1.37,8.29s-.46,6.04-1.37,8.34c-.92,2.3-2.23,4.06-3.94,5.27-1.71,1.21-3.76,1.82-6.16,1.82ZM660.26,770.27c1.86,0,3.33-.92,4.41-2.75,1.08-1.84,1.62-4.54,1.62-8.12,0-2.36-.25-4.35-.74-5.96-.49-1.61-1.19-2.82-2.09-3.64-.9-.82-1.97-1.23-3.2-1.23-1.85,0-3.31.92-4.39,2.75-1.08,1.84-1.62,4.53-1.63,8.08-.01,2.37.23,4.37.72,5.99.49,1.62,1.19,2.84,2.08,3.66.9.82,1.97,1.23,3.21,1.23Z"/>
      <path class="cls-24" d="M688.52,774.82c-2.39,0-4.45-.61-6.16-1.82-1.71-1.22-3.02-2.97-3.94-5.28-.92-2.3-1.37-5.08-1.37-8.32,0-3.25.47-6.01,1.39-8.3.92-2.28,2.23-4.02,3.94-5.23,1.71-1.2,3.76-1.8,6.14-1.8s4.44.6,6.15,1.8c1.72,1.2,3.03,2.95,3.95,5.23.92,2.29,1.37,5.05,1.37,8.29s-.46,6.04-1.37,8.34c-.92,2.3-2.23,4.06-3.94,5.27-1.71,1.21-3.76,1.82-6.16,1.82ZM688.52,770.27c1.86,0,3.33-.92,4.41-2.75,1.08-1.84,1.62-4.54,1.62-8.12,0-2.36-.25-4.35-.74-5.96-.49-1.61-1.19-2.82-2.09-3.64-.9-.82-1.97-1.23-3.2-1.23-1.85,0-3.31.92-4.39,2.75-1.08,1.84-1.62,4.53-1.63,8.08-.01,2.37.23,4.37.72,5.99.49,1.62,1.19,2.84,2.08,3.66.9.82,1.97,1.23,3.21,1.23Z"/>
      <path class="cls-24" d="M716.77,774.82c-2.39,0-4.45-.61-6.16-1.82-1.71-1.22-3.02-2.97-3.94-5.28-.92-2.3-1.37-5.08-1.37-8.32,0-3.25.47-6.01,1.39-8.3.92-2.28,2.23-4.02,3.94-5.23,1.71-1.2,3.76-1.8,6.14-1.8s4.44.6,6.15,1.8c1.72,1.2,3.03,2.95,3.95,5.23s1.37,5.05,1.37,8.29-.46,6.04-1.37,8.34c-.92,2.3-2.23,4.06-3.94,5.27-1.71,1.21-3.76,1.82-6.16,1.82ZM716.77,770.27c1.86,0,3.33-.92,4.41-2.75,1.08-1.84,1.62-4.54,1.62-8.12,0-2.36-.25-4.35-.74-5.96-.49-1.61-1.19-2.82-2.09-3.64-.9-.82-1.97-1.23-3.2-1.23-1.85,0-3.31.92-4.39,2.75-1.08,1.84-1.62,4.53-1.63,8.08-.01,2.37.23,4.37.72,5.99.49,1.62,1.19,2.84,2.08,3.66.9.82,1.97,1.23,3.21,1.23Z"/>
      <path class="cls-24" d="M745.02,774.82c-2.39,0-4.45-.61-6.16-1.82-1.71-1.22-3.02-2.97-3.94-5.28-.92-2.3-1.37-5.08-1.37-8.32,0-3.25.47-6.01,1.39-8.3.92-2.28,2.23-4.02,3.94-5.23,1.71-1.2,3.76-1.8,6.14-1.8s4.44.6,6.15,1.8c1.72,1.2,3.03,2.95,3.95,5.23.92,2.29,1.37,5.05,1.37,8.29s-.46,6.04-1.37,8.34c-.92,2.3-2.23,4.06-3.94,5.27-1.71,1.21-3.76,1.82-6.16,1.82ZM745.02,770.27c1.86,0,3.33-.92,4.41-2.75,1.08-1.84,1.62-4.54,1.62-8.12,0-2.36-.25-4.35-.74-5.96-.49-1.61-1.19-2.82-2.09-3.64-.9-.82-1.97-1.23-3.2-1.23-1.85,0-3.31.92-4.39,2.75-1.08,1.84-1.62,4.53-1.63,8.08-.01,2.37.23,4.37.72,5.99.49,1.62,1.19,2.84,2.08,3.66.9.82,1.97,1.23,3.21,1.23Z"/>
      <path class="cls-24" d="M774.38,744.48v29.78h-5.39v-24.53h-.18l-6.96,4.45v-4.94l7.4-4.75h5.13Z"/>
      <path class="cls-24" d="M793.91,774.82c-2.39,0-4.45-.61-6.16-1.82-1.71-1.22-3.02-2.97-3.94-5.28-.92-2.3-1.37-5.08-1.37-8.32,0-3.25.47-6.01,1.39-8.3.92-2.28,2.23-4.02,3.94-5.23,1.71-1.2,3.76-1.8,6.14-1.8s4.44.6,6.15,1.8c1.72,1.2,3.03,2.95,3.95,5.23s1.37,5.05,1.37,8.29-.46,6.04-1.37,8.34c-.92,2.3-2.23,4.06-3.94,5.27-1.71,1.21-3.76,1.82-6.16,1.82ZM793.91,770.27c1.86,0,3.33-.92,4.41-2.75,1.08-1.84,1.62-4.54,1.62-8.12,0-2.36-.25-4.35-.74-5.96-.49-1.61-1.19-2.82-2.09-3.64-.9-.82-1.97-1.23-3.2-1.23-1.85,0-3.31.92-4.39,2.75-1.08,1.84-1.62,4.53-1.63,8.08-.01,2.37.23,4.37.72,5.99.49,1.62,1.19,2.84,2.08,3.66.9.82,1.97,1.23,3.21,1.23Z"/>
      <path class="cls-24" d="M823.27,744.48v29.78h-5.39v-24.53h-.18l-6.96,4.45v-4.94l7.4-4.75h5.13Z"/>
      <path class="cls-24" d="M842.8,774.82c-2.39,0-4.45-.61-6.16-1.82-1.71-1.22-3.02-2.97-3.94-5.28-.92-2.3-1.37-5.08-1.37-8.32,0-3.25.47-6.01,1.39-8.3.92-2.28,2.23-4.02,3.94-5.23,1.71-1.2,3.76-1.8,6.14-1.8s4.44.6,6.15,1.8c1.72,1.2,3.03,2.95,3.95,5.23.92,2.29,1.37,5.05,1.37,8.29s-.46,6.04-1.37,8.34c-.92,2.3-2.23,4.06-3.94,5.27-1.71,1.21-3.76,1.82-6.16,1.82ZM842.8,770.27c1.86,0,3.33-.92,4.41-2.75,1.08-1.84,1.62-4.54,1.62-8.12,0-2.36-.25-4.35-.74-5.96-.49-1.61-1.19-2.82-2.09-3.64-.9-.82-1.97-1.23-3.2-1.23-1.85,0-3.31.92-4.39,2.75-1.08,1.84-1.62,4.53-1.63,8.08-.01,2.37.23,4.37.72,5.99.49,1.62,1.19,2.84,2.08,3.66.9.82,1.97,1.23,3.21,1.23Z"/>
      <path class="cls-24" d="M872.16,744.48v29.78h-5.39v-24.53h-.18l-6.96,4.45v-4.94l7.4-4.75h5.13Z"/>
      <path class="cls-24" d="M891.68,774.82c-2.39,0-4.45-.61-6.16-1.82-1.71-1.22-3.02-2.97-3.94-5.28-.92-2.3-1.37-5.08-1.37-8.32,0-3.25.47-6.01,1.39-8.3.92-2.28,2.23-4.02,3.94-5.23,1.71-1.2,3.76-1.8,6.14-1.8s4.44.6,6.15,1.8c1.72,1.2,3.03,2.95,3.95,5.23.92,2.29,1.37,5.05,1.37,8.29s-.46,6.04-1.37,8.34c-.92,2.3-2.23,4.06-3.94,5.27-1.71,1.21-3.76,1.82-6.16,1.82ZM891.68,770.27c1.86,0,3.33-.92,4.41-2.75,1.08-1.84,1.62-4.54,1.62-8.12,0-2.36-.25-4.35-.74-5.96-.49-1.61-1.19-2.82-2.09-3.64-.9-.82-1.97-1.23-3.2-1.23-1.85,0-3.31.92-4.39,2.75-1.08,1.84-1.62,4.53-1.63,8.08-.01,2.37.23,4.37.72,5.99.49,1.62,1.19,2.84,2.08,3.66.9.82,1.97,1.23,3.21,1.23Z"/>
      <path class="cls-24" d="M921.04,744.48v29.78h-5.39v-24.53h-.18l-6.96,4.45v-4.94l7.4-4.75h5.13Z"/>
      <path class="cls-24" d="M940.57,774.82c-2.39,0-4.45-.61-6.16-1.82-1.71-1.22-3.02-2.97-3.94-5.28-.92-2.3-1.37-5.08-1.37-8.32,0-3.25.47-6.01,1.39-8.3.92-2.28,2.23-4.02,3.94-5.23,1.71-1.2,3.76-1.8,6.14-1.8s4.44.6,6.15,1.8c1.72,1.2,3.03,2.95,3.95,5.23.92,2.29,1.37,5.05,1.37,8.29s-.46,6.04-1.37,8.34c-.92,2.3-2.23,4.06-3.94,5.27-1.71,1.21-3.76,1.82-6.16,1.82ZM940.57,770.27c1.86,0,3.33-.92,4.41-2.75,1.08-1.84,1.62-4.54,1.62-8.12,0-2.36-.25-4.35-.74-5.96-.49-1.61-1.19-2.82-2.09-3.64-.9-.82-1.97-1.23-3.2-1.23-1.85,0-3.31.92-4.39,2.75-1.08,1.84-1.62,4.53-1.63,8.08-.01,2.37.23,4.37.72,5.99.49,1.62,1.19,2.84,2.08,3.66.9.82,1.97,1.23,3.21,1.23Z"/>
      <path class="cls-24" d="M969.93,744.48v29.78h-5.39v-24.53h-.18l-6.96,4.45v-4.94l7.4-4.75h5.13Z"/>
      <path class="cls-24" d="M990.57,744.48v29.78h-5.39v-24.53h-.18l-6.96,4.45v-4.94l7.4-4.75h5.13Z"/>
      <path class="cls-24" d="M1010.1,774.82c-2.39,0-4.45-.61-6.16-1.82-1.71-1.22-3.02-2.97-3.94-5.28-.92-2.3-1.37-5.08-1.37-8.32,0-3.25.47-6.01,1.39-8.3.92-2.28,2.23-4.02,3.94-5.23,1.71-1.2,3.76-1.8,6.14-1.8s4.44.6,6.15,1.8c1.72,1.2,3.03,2.95,3.95,5.23.92,2.29,1.37,5.05,1.37,8.29s-.46,6.04-1.37,8.34c-.92,2.3-2.23,4.06-3.94,5.27-1.71,1.21-3.76,1.82-6.16,1.82ZM1010.1,770.27c1.86,0,3.33-.92,4.41-2.75,1.08-1.84,1.62-4.54,1.62-8.12,0-2.36-.25-4.35-.74-5.96-.49-1.61-1.19-2.82-2.09-3.64-.9-.82-1.97-1.23-3.2-1.23-1.85,0-3.31.92-4.39,2.75-1.08,1.84-1.62,4.53-1.63,8.08-.01,2.37.23,4.37.72,5.99.49,1.62,1.19,2.84,2.08,3.66.9.82,1.97,1.23,3.21,1.23Z"/>
      <path class="cls-24" d="M1038.35,774.82c-2.39,0-4.45-.61-6.16-1.82-1.71-1.22-3.02-2.97-3.94-5.28-.92-2.3-1.37-5.08-1.37-8.32,0-3.25.47-6.01,1.39-8.3.92-2.28,2.23-4.02,3.94-5.23,1.71-1.2,3.76-1.8,6.14-1.8s4.44.6,6.15,1.8c1.72,1.2,3.03,2.95,3.95,5.23s1.37,5.05,1.37,8.29-.46,6.04-1.37,8.34c-.92,2.3-2.23,4.06-3.94,5.27-1.71,1.21-3.76,1.82-6.16,1.82ZM1038.35,770.27c1.86,0,3.33-.92,4.41-2.75,1.08-1.84,1.62-4.54,1.62-8.12,0-2.36-.25-4.35-.74-5.96-.49-1.61-1.19-2.82-2.09-3.64-.9-.82-1.97-1.23-3.2-1.23-1.85,0-3.31.92-4.39,2.75-1.08,1.84-1.62,4.53-1.63,8.08-.01,2.37.23,4.37.72,5.99.49,1.62,1.19,2.84,2.08,3.66.9.82,1.97,1.23,3.21,1.23Z"/>
      <path class="cls-24" d="M1066.6,774.82c-2.39,0-4.45-.61-6.16-1.82-1.71-1.22-3.02-2.97-3.94-5.28-.92-2.3-1.37-5.08-1.37-8.32,0-3.25.47-6.01,1.39-8.3.92-2.28,2.23-4.02,3.94-5.23,1.71-1.2,3.76-1.8,6.14-1.8s4.44.6,6.15,1.8c1.72,1.2,3.03,2.95,3.95,5.23s1.37,5.05,1.37,8.29-.46,6.04-1.37,8.34c-.92,2.3-2.23,4.06-3.94,5.27-1.71,1.21-3.76,1.82-6.16,1.82ZM1066.6,770.27c1.86,0,3.33-.92,4.41-2.75,1.08-1.84,1.62-4.54,1.62-8.12,0-2.36-.25-4.35-.74-5.96-.49-1.61-1.19-2.82-2.09-3.64-.9-.82-1.97-1.23-3.2-1.23-1.85,0-3.31.92-4.39,2.75-1.08,1.84-1.62,4.53-1.63,8.08-.01,2.37.23,4.37.72,5.99.49,1.62,1.19,2.84,2.08,3.66.9.82,1.97,1.23,3.21,1.23Z"/>
      <path class="cls-24" d="M1095.96,744.48v29.78h-5.39v-24.53h-.18l-6.96,4.45v-4.94l7.4-4.75h5.13Z"/>
      <path class="cls-24" d="M1116.6,744.48v29.78h-5.39v-24.53h-.18l-6.96,4.45v-4.94l7.4-4.75h5.13Z"/>
      <path class="cls-24" d="M1137.23,744.48v29.78h-5.39v-24.53h-.18l-6.96,4.45v-4.94l7.4-4.75h5.13Z"/>
      <path class="cls-24" d="M1156.76,774.82c-2.39,0-4.45-.61-6.16-1.82-1.71-1.22-3.02-2.97-3.94-5.28-.92-2.3-1.37-5.08-1.37-8.32,0-3.25.47-6.01,1.39-8.3.92-2.28,2.23-4.02,3.94-5.23,1.71-1.2,3.76-1.8,6.14-1.8s4.44.6,6.15,1.8c1.72,1.2,3.03,2.95,3.95,5.23.92,2.29,1.37,5.05,1.37,8.29s-.46,6.04-1.37,8.34c-.92,2.3-2.23,4.06-3.94,5.27-1.71,1.21-3.76,1.82-6.16,1.82ZM1156.76,770.27c1.86,0,3.33-.92,4.41-2.75,1.08-1.84,1.62-4.54,1.62-8.12,0-2.36-.25-4.35-.74-5.96-.49-1.61-1.19-2.82-2.09-3.64-.9-.82-1.97-1.23-3.2-1.23-1.85,0-3.31.92-4.39,2.75-1.08,1.84-1.62,4.53-1.63,8.08-.01,2.37.23,4.37.72,5.99.49,1.62,1.19,2.84,2.08,3.66.9.82,1.97,1.23,3.21,1.23Z"/>
    </g>
    <line class="cls-16" x1="2367.14" y1="505.28" x2="2156.99" y2="505.28"/>
    <line class="cls-19" x1="2367.14" y1="740.65" x2="2156.99" y2="740.65"/>
    <line class="cls-16" x1="2132.97" y1="740.65" x2="1922.82" y2="740.65"/>
    <line class="cls-2" x1="2367.14" y1="974.82" x2="2156.99" y2="974.82"/>
    <line class="cls-19" x1="2132.97" y1="974.82" x2="1922.82" y2="974.82"/>
    <line class="cls-16" x1="1898.8" y1="974.82" x2="1688.65" y2="974.82"/>
    <line class="cls-16" x1="2379.29" y1="283.87" x2="2379.29" y2="494.02"/>
    <line class="cls-19" x1="2379.29" y1="518.04" x2="2379.29" y2="728.19"/>
    <line class="cls-2" x1="2379.29" y1="752.2" x2="2379.29" y2="962.36"/>
    <line class="cls-16" x1="2145.12" y1="518.04" x2="2145.12" y2="728.19"/>
    <line class="cls-19" x1="2145.12" y1="752.2" x2="2145.12" y2="962.36"/>
    <line class="cls-16" x1="1910.95" y1="752.2" x2="1910.95" y2="962.36"/>
    <line class="cls-1" x1="2379.29" y1="986.37" x2="2379.29" y2="1196.52"/>
    <line class="cls-16" x1="2601.31" y1="271.86" x2="2391.16" y2="271.86"/>
    <line class="cls-19" x1="2601.31" y1="505.28" x2="2391.16" y2="505.28"/>
    <line class="cls-2" x1="2601.31" y1="740.65" x2="2391.16" y2="740.65"/>
    <line class="cls-1" x1="2601.31" y1="974.82" x2="2391.16" y2="974.82"/>
    <line class="cls-19" x1="2835.48" y1="271.86" x2="2625.33" y2="271.86"/>
    <line class="cls-2" x1="2835.48" y1="505.28" x2="2625.33" y2="505.28"/>
    <line class="cls-1" x1="2835.48" y1="740.65" x2="2625.33" y2="740.65"/>
    <line class="cls-3" x1="2835.48" y1="974.82" x2="2625.33" y2="974.82"/>
    <line class="cls-19" x1="2613.46" y1="283.87" x2="2613.46" y2="494.02"/>
    <line class="cls-2" x1="2613.46" y1="518.04" x2="2613.46" y2="728.19"/>
    <line class="cls-1" x1="2613.46" y1="752.2" x2="2613.46" y2="962.36"/>
    <line class="cls-16" x1="2613.46" y1="49.7" x2="2613.46" y2="259.85"/>
    <line class="cls-3" x1="2613.46" y1="986.37" x2="2613.46" y2="1196.52"/>
    <line class="cls-2" x1="2145.12" y1="986.37" x2="2145.12" y2="1196.52"/>
    <line class="cls-19" x1="1910.95" y1="986.37" x2="1910.95" y2="1196.52"/>
    <line class="cls-16" x1="1676.78" y1="986.37" x2="1676.78" y2="1196.52"/>
    <path class="cls-6" d="M2570.44,864.57c29.7,21.5,96.7-3.8,138.1-28.6,46-27.6,48.1-57.3,29.7-57.3-25.6,0-89,78.8-52.2,96.1,30.4,14.4,85.9-11.2,100.2,5.1,14.3,16.3,20.5,52.2,60.3,70.6"/>
    <g>
      <path class="cls-41" d="M2744.73,1100.88l-54.98-87.84v-52.68h5.61c5.15-.57,9.23-4.45,9.23-9.19v-.57c0-4.74-4.08-8.6-9.08-8.6h-45.9c-5,0-9.08,3.86-9.08,8.6v.57c0,4.74,4.08,8.62,8.93,9.19h5.76v52.68l-54.83,87.84c-2.89,4.74-1.21,10.48,3.49,13.36,1.51.86,3.32,1.29,5.14,1.29h126.62c5.76,0,10.3-4.45,10.3-9.77.15-1.72-.3-3.44-1.21-4.88Z"/>
      <path class="cls-34" d="M2744.43,1100.88l-25.14-40.48c-63.62,50.53-43.16-23.54-88.61-8.03l-30.29,48.51c-2.89,4.74-1.21,10.48,3.49,13.36,1.51.86,3.32,1.29,5.14,1.29h126.62c5.76,0,10.3-4.45,10.3-9.77,0-1.72-.45-3.44-1.51-4.88Z"/>
    </g>
  </g>
  <g id="Layer_6" data-name="Layer 6">
    <g>
      <ellipse class="cls-25" cx="1320.4" cy="637.21" rx="13.5" ry="42.33" transform="translate(-130.44 848.33) rotate(-34.04)"/>
      <g>
        <path class="cls-6" d="M1502.46,564.17v28.25"/>
        <path class="cls-6" d="M1502.46,672.58v28.25"/>
        <path class="cls-6" d="M1570.79,632.5h-28.25"/>
        <path class="cls-6" d="M1462.38,632.5h-28.25"/>
        <path class="cls-6" d="M1454.2,584.24l19.89,19.89"/>
        <path class="cls-6" d="M1530.88,660.92l19.89,19.89"/>
        <path class="cls-6" d="M1550.77,584.24l-19.89,19.89"/>
        <path class="cls-6" d="M1474.08,660.92l-19.89,19.89"/>
      </g>
      <path class="cls-40" d="M1410.16,335h87c11.25,0,20.43,9.13,20.43,20.43v87c0,11.25-9.13,20.43-20.43,20.43h-87c-11.25,0-20.43-9.13-20.43-20.43v-87c0-11.3,9.13-20.43,20.43-20.43Z"/>
      <g>
        <path class="cls-7" d="M1454.3,465.47v44.57c0,4.66-3.76,8.41-8.41,8.41h-132.14c-4.66,0-8.41-3.75-8.41-8.41v-70.14"/>
        <path class="cls-38" d="M1454.47,459.24c-6.93,0-12.53,5.61-12.53,12.53s5.61,12.53,12.53,12.53,12.53-5.61,12.53-12.53-5.61-12.53-12.53-12.53Z"/>
        <path class="cls-37" d="M1342.23,514.23c-2.24,0-4.05,1.82-4.05,4.05s1.82,4.05,4.05,4.05,4.05-1.81,4.05-4.05-1.81-4.05-4.05-4.05Z"/>
      </g>
      <g>
        <path class="cls-7" d="M1107.04,405.47v44.57c0,4.66,3.76,8.41,8.41,8.41h132.14c4.66,0,8.41-3.75,8.41-8.41"/>
        <path class="cls-38" d="M1106.87,399.24c6.93,0,12.53,5.61,12.53,12.53s-5.61,12.53-12.53,12.53-12.53-5.61-12.53-12.53,5.61-12.53,12.53-12.53Z"/>
        <path class="cls-37" d="M1219.11,454.23c2.24,0,4.05,1.82,4.05,4.05s-1.82,4.05-4.05,4.05-4.05-1.81-4.05-4.05,1.81-4.05,4.05-4.05Z"/>
      </g>
      <g>
        <path class="cls-34" d="M1228.06,404.62l92.18-.62c13.86-.09,25.17,8.92,25.26,20.13l1.5,187.78c.09,11.21-11.08,20.37-24.94,20.47l-92.18.62c-13.86.09-25.17-8.92-25.26-20.13l-1.5-187.78c-.09-11.21,11.08-20.37,24.94-20.47Z"/>
        <g>
          <path class="cls-24" d="M1233.74,625.36c-11.43,0-20.78-7.71-20.86-17.19l-1.43-178.8c-.03-4.02,1.64-7.95,4.72-11.08,3.96-4.02,9.81-6.35,16.03-6.39l84.26-.57c11.43,0,20.78,7.71,20.86,17.19l1.43,178.8c.03,4.02-1.64,7.95-4.72,11.08-3.96,4.02-9.81,6.35-16.03,6.39l-84.26.57Z"/>
          <path class="cls-45" d="M1316.47,413.34c10.33,0,18.79,6.82,18.86,15.21l1.43,178.8c.03,3.54-1.41,6.88-4.15,9.66-3.59,3.64-8.92,5.75-14.62,5.79l-84.09.56h-.16c-10.33,0-18.79-6.82-18.86-15.21l-1.43-178.8c-.03-3.54,1.41-6.88,4.15-9.66,3.59-3.64,8.92-5.75,14.62-5.79l84.09-.56h.16M1316.47,409.34c-.06,0-.13,0-.19,0l-84.09.56c-12.64.08-22.82,8.81-22.74,19.48l1.43,178.8c.09,10.62,10.31,19.17,22.86,19.17.06,0,.13,0,.19,0l84.09-.56c12.64-.08,22.82-8.81,22.74-19.48l-1.43-178.8c-.09-10.62-10.31-19.17-22.86-19.17h0Z"/>
        </g>
        <g>
          <ellipse class="cls-40" cx="1253.66" cy="422.27" rx="3.13" ry="5.8"/>
          <ellipse class="cls-40" cx="1299.71" cy="422.27" rx="3.13" ry="5.8"/>
          <rect class="cls-40" x="1253.66" y="416.47" width="46.06" height="11.59"/>
        </g>
      </g>
      <g>
        <path class="cls-30" d="M1277.16,551.72c23.41,0,42.38-18.98,42.38-42.39s-18.97-42.38-42.38-42.38-42.39,18.97-42.39,42.38,18.98,42.39,42.39,42.39Z"/>
        <path class="cls-41" d="M1277.16,538.77c23.41,0,42.38-18.97,42.38-42.38s-18.97-42.39-42.38-42.39-42.39,18.98-42.39,42.39,18.98,42.38,42.39,42.38Z"/>
        <path class="cls-6" d="M1277.16,475.92v26.39"/>
        <path class="cls-6" d="M1277.16,512.54v4.32"/>
      </g>
      <g>
        <path class="cls-45" d="M2029.23,729.24c-27.32-65.81-75.68-88.18-84.24-91.69-.68-.21-1.14-1.08-.93-1.76l6.03-26.74c.22-1.32-.71-2.64-2.07-2.64h-22.68l-143.02,1.96-4.88,26.33c-.22,1.08-1.14,1.76-2.07,1.76h-26.14c-37.05,0-83.31,28.93-129.61,72.8-47.9,45.39-103,102.44-116.88,117.11-1.85,1.99-5.1,1.99-6.95,0l-147.19-160.75-85.38,89.7c67.12,129.38,130.53,230.71,199.01,250.01,97.9,27.41,191.63-42.55,198.58-48.03.22-.21.46,0,.46.23l8.1,55.7,7.88,54.59,1.61.23h-1.61c-11.59,25.45-30.78,55.5-52.53,90.14-12.98,20.82-38.58,79.76-45.17,88.79h444.35c-9.17-49.31-21.87-93.77-41.17-133.53,8.78-1.52,29.39-6.15,50.22-15.58,21.29-9.64,42.58-24.34,51.82-46.27,32.42-83.32-30.78-262.72-55.53-322.38Z"/>
        <g>
          <path class="cls-25" d="M1279.81,604.86c-15.15-8.29-44.57-23.52-60.55-20.26-7.68,1.64-9.28,8.42-9.63,11.71,0,.76-.75,1.48-1.4,1.26-4.42-.62-15.43,1.87-16.21,16.54-.03.56-.37,1.33-.83,1.83-21.54,21.38,21.08,46.01,30.7,55.7.45.49-.16,1.46-.79,1.27-9.58-2.29-32.62-11.59-36.31-3.19-4.78,10.62,17.18,22.17,54.94,36.2,17.93,28.68,28.58,32.21,36.16,34.98l41.09-30.6,29.22-44.61s.08-.13-.04-.21c-17.93-26.18-43.79-48.12-66.35-60.64Z"/>
          <path class="cls-21" d="M1247.08,652.41c-20.36-18.52-52.22-33.32-52.22-33.32"/>
          <path class="cls-21" d="M1265.56,628.93c-23.11-20.27-53.98-27.65-53.98-27.65"/>
        </g>
        <path class="cls-25" d="M1947.55,511.67c9.24-32.92,27.29-64.49,28.46-93.86,2.32-57.05-32.42-118.43-131.92-133.81-53.22-8.32-87.95,27.21-106.46,49.14-23.15-10.98-56.71-16.02-58.78,16.9-2.32,37.28,35.63,45.83,35.63,45.83-4.39,23.46-2.53,30.25-6.92,53.07-.25,1.32-1.39,2.4-2.56,2.64-5.32,1.08-18.97,4.83-19.9,12.07-1.14,9.2,11.81,15.79,16.66,17.98.93.44,1.64,1.52,1.39,2.4-4.85,22.61-12.27,45.39-4.39,67.56,6.95,19.74,32.85,45.83,87.95,32.89l-4.17,23.9,70.37,8.35,72.65-10.31,6.95-30.69c62.02,4.36,63.63-50.9,15.05-64.05Z"/>
        <path class="cls-44" d="M1957.25,508.36c-1.14-.44-1.85-1.52-1.61-2.61,9.02-32.04,19.19-59.01,20.36-87.95,2.32-57.05-32.42-118.43-131.92-133.81-53.22-8.32-87.95,19.74-106.46,41.67-23.15-10.95-67.34-8.76-69.41,24.13-2.32,37.28,46.26,46.07,46.26,46.07,0,0,27.53,3.92,48.15-3.31,1.61-.44,3.24.23,3.71,1.76,9.95,30.05,17.58,49.14,32.17,69.52.93,1.32,2.78,1.55,3.92.67,11.81-7.91,65.48-41.23,90.27-5.07,26.36,38.39-19.9,71.72-31.95,79.39-1.39.88-1.61,2.87-.46,3.95,22.68,20.41,49.29,30.72,71.76,32.92,63.88,6.56,71.51-53.1,25.22-67.36Z"/>
        <path class="cls-9" d="M1786.24,584.48c10.17-4.16,32.85-13.38,41.66-17.54"/>
        <path class="cls-9" d="M1723.5,510.12c4.17,1.99,18.51,2.43,23.39-8.32"/>
        <path class="cls-44" d="M1744.58,453.33c3.96,0,7.17-3.05,7.17-6.79s-3.21-6.82-7.17-6.82-7.17,3.08-7.17,6.82,3.21,6.79,7.17,6.79Z"/>
        <path class="cls-9" d="M1856.35,481.62l-23.36,15.35"/>
        <path class="cls-45" d="M1737.63,325.68l224.73,157.91s50.9-77.4,32.17-120.63c-16.19-37.28-136.56-133.78-189.77-116.24-40.73,13.62-67.12,78.95-67.12,78.95Z"/>
        <path class="cls-11" d="M1747.11,636.46h28"/>
        <path class="cls-11" d="M1661.26,957.31c10.63-8.76,27.53-16.02,57.63-55.5"/>
        <path class="cls-30" d="M1661.26,957.75l11.09,74.8c0,.21.46.21.46,0l47-130.06c.22-.67-.71-1.11-1.17-.67-6.49,7.47-26.39,33.36-57.17,54.85,0,.21-.22.64-.22,1.08Z"/>
        <path class="cls-38" d="M1967.2,1013.25h-297.63l7.88,54.82,279.11-.67,10.63-54.15Z"/>
        <path class="cls-11" d="M1993.35,880.35l-36.77,187.05s18.51,28.32,26.36,45.86"/>
        <path class="cls-7" d="M1806.82,289.71l-21.51,29.61"/>
        <path class="cls-7" d="M1811.7,314.72l-31.24-20.41"/>
        <path class="cls-30" d="M1956.57,1067.4s16.19,23.69,26.36,45.86c0,0,26.85-4.83,50-15.38.22,0,.22-.21,0-.44-3.24-3.49-44.65-51.95-38.2-216.89,0-.88-1.39-1.08-1.39-.2l-36.77,187.05Z"/>
        <path class="cls-27" d="M1786.24,584.48s24.29-9.64,41.66-17.54c.68-.44,1.39.64.93,1.08l-48.15,48.7,1.64-8.35,3.92-23.9Z"/>
      </g>
      <g>
        <path class="cls-12" d="M1465.15,425.72h5.55"/>
        <path class="cls-24" d="M1453.77,444.18c24.9,0,45.1-20.19,45.1-45.1s-20.19-45.1-45.1-45.1-45.1,20.19-45.1,45.1,20.19,45.1,45.1,45.1Z"/>
        <path class="cls-41" d="M1471.13,426.16v-4.29l-25.38-.04v4.72h-8.46c-6.41,0-11.57,3.78-13.89,5.82,18.38,16.8,46.87,15.5,63.67-2.87.24-.28.51-.55.75-.83-2.44-1.61-5.31-2.48-8.26-2.56l-8.42.04Z"/>
        <path class="cls-43" d="M1432.68,401.33c.91-4.56.87-10.19,1.65-15.27.55-3.46,1.46-6.65,3.34-9.01,4.64-5.78,17.12-8.03,27.11-.71,9.99,7.32,9.48,17.63,9.09,22.27l-2.79,15.62.04,7.75h-25.38l-.04-4.21s-5.55,1.18-8.81-1.06c-4.41-3.03-5.75-7.71-4.21-15.39Z"/>
        <path class="cls-39" d="M1437.68,377.05c4.64-5.78,17.86-9.4,27.86-2.09,9.99,7.32,8.74,19.01,8.34,23.65l-2.79,15.62s-7.52-2.36-10.7-8.34c0,0,10.9-4.88,5.94-11.88-4.76-6.73-13.06,1.57-13.06,1.57-4.76-1.57-9.52-8.34-9.52-8.34-7.12.39-9.4-1.22-9.4-1.22.55-3.42,1.46-6.61,3.34-8.97Z"/>
        <path class="cls-32" d="M1444.92,398.93c.67,0,1.22-.55,1.22-1.22s-.55-1.22-1.22-1.22-1.22.55-1.22,1.22.55,1.22,1.22,1.22Z"/>
        <path class="cls-32" d="M1436.22,398.1c.67,0,1.22-.55,1.22-1.22s-.55-1.22-1.22-1.22-1.22.55-1.22,1.22.54,1.22,1.22,1.22Z"/>
        <path class="cls-4" d="M1438.86,400.93c-.2.67-.31,1.26-.2,1.5.2.35.51.67.87.87"/>
        <path class="cls-17" d="M1442.91,406.72c-.75.71-1.81,1.02-2.83.79"/>
        <path class="cls-4" d="M1450.55,416.79c-1.42.63-3.34.51-4.84.98"/>
        <path class="cls-4" d="M1460.39,398.38l-2.75,1.97"/>
      </g>
      <path class="cls-9" d="M1279.81,604.86s33.84,17.69,40.19,32.14"/>
      <g>
        <path class="cls-15" d="M1292.62,355.74c-9.87-9.34-25.31-9.34-35.18,0"/>
        <path class="cls-15" d="M1327.8,321.93c-29.61-28-75.94-28-105.55,0"/>
        <path class="cls-15" d="M1362.98,288.13c-49.35-46.67-126.56-46.67-175.91,0"/>
      </g>
      <g>
        <path class="cls-45" d="M979.52,249.79h80.63c4.14,0,7.52,3.38,7.52,7.52v92.42c0,4.14-3.38,7.52-7.52,7.52h-80.63c-4.14,0-7.52-3.38-7.52-7.52v-92.42c0-4.18,3.38-7.52,7.52-7.52Z"/>
        <path class="cls-6" d="M989.16,273.53l3.31,3.31,5.36-5.32"/>
        <path class="cls-6" d="M995.61,305.81c1.67-1.16,2.08-3.44.93-5.11-1.16-1.67-3.44-2.08-5.11-.93-1.67,1.15-2.08,3.44-.93,5.11,1.16,1.66,3.45,2.08,5.11.93Z"/>
        <path class="cls-6" d="M995.6,334.38c1.67-1.16,2.08-3.44.93-5.11-1.15-1.66-3.44-2.08-5.11-.93-1.67,1.15-2.08,3.44-.93,5.11,1.16,1.67,3.44,2.08,5.11.93Z"/>
        <path class="cls-6" d="M1008.23,274.86h33.46"/>
        <path class="cls-6" d="M1008.23,302.82h33.46"/>
        <path class="cls-6" d="M1008.23,331.13h33.46"/>
      </g>
      <circle class="cls-36" cx="1094.25" cy="347.82" r="56.23"/>
      <g>
        <path class="cls-18" d="M1110.24,351.45c0-.68-.55-1.24-1.24-1.24h-6.18v-6.18c0-.68-.55-1.24-1.24-1.24h-4.94c-.68,0-1.24.55-1.24,1.24v6.18h-6.18c-.68,0-1.24.55-1.24,1.24v4.94c0,.68.55,1.24,1.24,1.24h6.18v6.18c0,.68.55,1.24,1.24,1.24h4.94c.68,0,1.24-.55,1.24-1.24h0v-6.18h6.18c.68,0,1.24-.55,1.24-1.24h0v-4.94Z"/>
        <path class="cls-18" d="M1071.95,372.44h43.23c4.09,0,7.41-3.32,7.41-7.41v-28.41c0-.68-.55-1.24-1.24-1.24h-42c-.68,0-1.24.55-1.24,1.24h0v29.65c0,3.41-2.77,6.18-6.18,6.18-3.41,0-6.17-2.76-6.18-6.18v-44.47c0-.68.55-1.24,1.24-1.24h14.82c.68,0,1.24.55,1.24,1.24h0v4.94c0,.68.55,1.24,1.24,1.24h30.88"/>
      </g>
    </g>
    <path class="cls-10" d="M99.9,720.88c-16.83-75.48-2.14-166.3,28.58-169.95,29.15-3.51,38.82,69.62,30.01,88.67-6.66,14.39-19.41-.29-6.59-30.8,11.75-27.86,46.12-84.94,78.35-83.51,32.23,1.43,4.37,59.37,4.37,59.37l126.77-46.91"/>
    <g>
      <g>
        <path class="cls-24" d="M742.95,899.59c.25-.5.75-.75,1-.25,22.28,33.3,47.57,64.1,71.34,86.87,29.3,28.03,55.83,44.06,78.86,47.82,7.77,1.25,16.28,1.74,25.54,1.74,67.33,0,163.22-31.29,214.77-50.31l-32.78-165.21c-88.62,14.26-163.72,33.03-164.46,33.28-.75-1.74-83.61-166.21-160.21-245.31-37.06-37.06-97.13-40.05-97.63-40.05l-152.71-7.52s-9.51-1.25-24.52-1.25c-35.3,0-101.63,7.25-150.7,56.33l-10.26,10.51,43,374.54s-92.19,189.21-75.19,246.21h542c25-57-77.01-293.67-107.8-348.9l8.76-99.62"/>
        <path class="cls-35" d="M1276.89,988.46c-2.74,0-5.25-.75-7.49-1.74-6.02-3.26-10.03-9.76-10.03-16.28,0,0-18.77,5.52-38.04,5.52-15.78,0-27.53-3.51-34.8-10.28,0,0-.25-.25-.25,0-2.26,1.02-28.19,11.34-56.72,21.51l-31.65-165.93c68.33-14.6,131.18-17.52,177.73-17.52,91.88,0,140.44,5,147.69,15.51,1.27,1.52,1.52,3.51.75,5.52-6.75,20.51-85.11,24.27-118.3,25.45,32.69-1.18,47.98,8.83,48.72,23.12.5,8.49-4.26,16.75-13.77,24.77,0,0,5.75,6.27,5,14.76-.5,6.77-4.75,13.02-12.77,19.04l-8.76,6c.25,0,11,14.51-8.76,30.54-17.77,13.77-29.55,20.01-38.56,20.01Z"/>
        <path class="cls-13" d="M737.08,988.55h-288.26"/>
        <path class="cls-31" d="M789.77,958.69c-16.28-18.77-31.79-39.3-46.07-60.84l8.26-99.37,37.81,160.21Z"/>
        <path class="cls-11" d="M937.21,853.54l-16.53,34.05"/>
        <path class="cls-8" d="M1259.11,969.44c-.75-11.75,14.29-22.03,14.29-22.03"/>
        <path class="cls-35" d="M617.04,636.01c-76.87,0-97.38-74.35-97.63-75.1.25-1.99,16.78-178.73,20.51-212.78,7.52-68.83,43.81-70.84,109.15-70.84,9.76,0,21.28-19.77,32.29-18.02,55.58,8.26,95.88,14.26,111.64,55.58,6.52,16.51,5.52,40.3,4.75,65.32-.25,9.28-.75,18.54-.75,28.05,0,0,20.04,11.75,19.54,21.28-.75,11-22.78,22.03-22.78,22.03-1.27,30.52-2.51,62.08-24.54,84.61-8.76,9.01-25.29,14.26-43.56,14.26-12.52,0-24.77-2.51-36.04-7.02l-2.49,27.53c0,.77-17.52,65.09-70.1,65.09Z"/>
        <path class="cls-29" d="M654.58,522.38c12.27,25.77,26.78,36.79,31.54,39.78.77.52,1.77,0,2.02-1l1.49-17.03c0-.5-.25-1-.5-1.25l-32.53-22.28c-1.27-.75-2.76.5-2.01,1.77Z"/>
        <path class="cls-23" d="M689.63,543.39c-9.76-6.25-21.53-14.76-31.79-21.78"/>
        <path class="cls-8" d="M636.81,445.51l-22.53-20.01"/>
        <path class="cls-8" d="M764.78,463.58c-5.8,1.48-12.76,1.47-18.33-3.9"/>
        <path class="cls-32" d="M761.22,407.47c4.28,0,7.77-3.49,7.77-7.77s-3.49-7.77-7.77-7.77-7.74,3.49-7.74,7.77,3.46,7.77,7.74,7.77Z"/>
        <path class="cls-34" d="M542.94,510.35c-7,0-12.52-.5-15.76-.75-2.02-.25-3.26-1.77-3.01-3.76,4.75-57.58,12.77-145.2,15.26-168.47,7.52-68.6,44.56-103.38,109.9-103.38,9.76,0,20.54.75,31.54,2.49,55.58,8.26,96.88,36.54,112.91,77.86,3.74,9.51,4.51,21.53,5,31.54,0,1.74-1.27,3.24-3.01,3.51-1.74.25-4.01.5-6.75.5-10.53,0-31.04-3.51-57.08-26.04-2.76-2.26-6.52.25-5.77,3.51,4.26,15.51,4.01,26.78-.75,33.53-3.26,4.75-9.01,7.27-16.78,7.27-9.26,0-19.77-3.51-26.01-6.02-2.51-1-5.03,1.02-4.78,3.51.77,9.26,1.02,27.53-6,40.55-1,2.01-3.76,2.26-5.25,1.02-9.26-8.01-37.56-31.04-61.33-31.04-9.51,0-17.52,3.74-23.27,11.25-32.53,41.3,13.77,87.87,26.78,99.89,1.74,1.49,1.49,4.26-.5,5.5-20.78,14.51-46.82,17.52-65.34,17.52Z"/>
        <g>
          <path class="cls-40" d="M1259.52,733h58.17v213.36c0,3.71-.71,7.38-2.13,10.81-1.43,3.43-3.49,6.54-6.12,9.17-2.63,2.63-5.73,4.7-9.16,6.11-3.43,1.42-7.1,2.14-10.81,2.14h-1.73c-3.71,0-7.38-.72-10.81-2.14-3.43-1.41-6.53-3.48-9.16-6.11-2.63-2.63-4.71-5.74-6.13-9.17-1.41-3.42-2.13-7.09-2.13-10.81v-213.36Z"/>
          <path class="cls-26" d="M1300.76,733v213.36c.02,6.17-1.98,12.17-5.71,17.07-3.73,4.91-8.96,8.45-14.91,10.07,2.48.7,5.03,1.05,7.6,1.09h1.73c3.71,0,7.38-.72,10.81-2.14,3.43-1.41,6.53-3.48,9.16-6.11,2.63-2.63,4.69-5.74,6.12-9.17,1.41-3.42,2.13-7.09,2.13-10.81v-213.36s-16.92,0-16.92,0Z"/>
          <path class="cls-24" d="M1259.52,860.4h58.17v85.95c0,3.71-.71,7.38-2.13,10.81-1.43,3.43-3.49,6.54-6.12,9.17-2.63,2.63-5.73,4.7-9.16,6.11-3.43,1.42-7.1,2.14-10.81,2.14h-1.73c-3.71,0-7.38-.72-10.81-2.14-3.43-1.41-6.53-3.48-9.16-6.11-2.63-2.63-4.71-5.74-6.13-9.17-1.41-3.42-2.13-7.09-2.13-10.81v-85.95Z"/>
          <path class="cls-14" d="M1253.22,733h71.63"/>
        </g>
        <g>
          <ellipse class="cls-35" cx="1308" cy="887.5" rx="21" ry="13.5"/>
          <ellipse class="cls-35" cx="1300.5" cy="924" rx="29.5" ry="16"/>
          <path class="cls-22" d="M1340.66,899.34c-10.8,6.86-62.05,37.48-75.63,19.18-13.58-18.3,20.72-37.8,20.72-37.8"/>
        </g>
        <g>
          <ellipse class="cls-35" cx="1293.9" cy="957.55" rx="33.83" ry="20.77" transform="translate(-257.73 529.16) rotate(-21.07)"/>
          <path class="cls-22" d="M1323.96,937.65c-23.03,13.52-59.57,24.02-54.81-9.76"/>
        </g>
        <path class="cls-22" d="M1231.08,804.98s92.87,49.06,95.63,69.35c2.74,21.78-83.86-6.27-83.86-6.27,0,0-29.3,40.55-61.58,50.83"/>
        <path class="cls-45" d="M815.23,1247c-27.83-132.52-65.58-230.01-77.02-256.61l-8.74-24.07h-275.4c-.75,18.57-82.87,111.1-102.63,224.07-3.08,17.66-5.49,36.67-7.57,56.61h471.36Z"/>
      </g>
      <polygon class="cls-24" points="719 823 851 1247 767 1247 691 1247 650.58 746.27 687.14 570.92 719 823"/>
      <polygon class="cls-24" points="574.23 702.39 488 1247 367 1247 309 1247 368.3 1104.81 534.45 702.39 574.23 702.39"/>
      <polyline class="cls-11" points="687.14 570.92 650.58 746.27 667.99 1025.18"/>
      <polyline class="cls-11" points="520.03 561.56 560.35 743.02 488 1247"/>
      <g>
        <path class="cls-42" d="M684.38,1048.8c17.77,11.28,33.8,24.02,34.3,30.04.5,6-10.28,13.02-26.04,11.5l-26.04-19.52,17.77-22.03Z"/>
        <path class="cls-40" d="M570,1247l138.65-240.25,168.97,97.36-82.62,142.89h-225Z"/>
        <path class="cls-24" d="M455.48,815.32l-63.98,90.79c.75.25,71.59,35.3,125.91,61.08l-68.58,155.45c-71.59-17.03-199.01-55.83-247.58-123.91-79.6-111.39,80.33-316.45,150.2-382.99"/>
        <path class="cls-35" d="M686.89,1246.56c-29.8,0-181.24-111.66-182.76-112.66-.25,0-23.03-3.51-55.81-11.25l68.08-155.95c23.03,10.75,42.81,20.01,52.82,24.52,91.63,39.55,114.9,57.33,115.15,57.58l-12.52,22.53c.75.5,87.87,60.34,102.63,82.62,5.25,7.74,7.02,15.01,5.5,21.26-1.74,7.77-7.99,11.28-7.99,11.28,5.75,10.75,7,19.02,3.76,24.79-4.51,7.74-16.03,7.74-16.28,7.74-1,8.76-6.77,13.02-17.03,13.02-26.29,0-74.6-30.02-75.6-30.54,1,.77,33.55,30.29,29.3,41.07-1.02,2.74-4.01,4.01-9.26,4.01Z"/>
        <path class="cls-11" d="M420.27,865.31l34.05-48.32"/>
        <path class="cls-11" d="M391.5,903.6l-51.58,8.01"/>
        <path class="cls-8" d="M772,1186.47l-110.15-77.59"/>
        <path class="cls-8" d="M759.48,1219.01l-117.66-77.59"/>
        <path class="cls-8" d="M666.85,1201.48l-42.56-27.53"/>
      </g>
      <polyline class="cls-11" points="759.48 764.79 743.2 898.1 780.51 988.55"/>
      <line class="cls-11" x1="417.61" y1="918.88" x2="635.07" y2="1021.35"/>
    </g>
    <polygon class="cls-31" points="451 818 390.79 907.09 458 940 451 818"/>
    <g id="x9kxWz.tif">
      <path class="cls-24" d="M2740.19,224.73c-3.8.04-8.45,2.05-11.16,4.72-4.97,4.89-7.6,4.43-9.98-1.83-1.25-3.29-2.81-6.45-5.2-11.86-4.03,7.94-7.03,14.25-10.45,20.32-1.06,1.89-3.3,3.11-5,4.64-1.01-2.02-2.69-3.96-2.94-6.06-3.94-32.76-7.69-65.55-11.49-98.33-.31-2.65-.69-5.29-2.78-7.94-.75,11.5-1.58,22.99-2.24,34.49-2.94,51.37-5.79,102.75-8.82,154.12-.15,2.56-1.59,5.04-4.22,7.41-5.66-37.36-6.11-74.91-11.11-112.54-3.26,6.81-6.62,13.57-9.76,20.43-2.68,5.84-5.57,5.33-8.71.52-4.19-6.43-8.28-12.91-13.49-21.05-6.91,15.83-19.95,12.71-31.89,12.72-31.76.05-63.52-.02-95.28.04-9.18.02-19.4-2.73-24.7,12.11-4.44-8.04-7.34-13.3-11.09-20.09-3.6,7.15-6.56,13.47-9.97,19.53-1.05,1.87-3.33,3.06-5.04,4.57-1.01-2.02-2.68-3.97-2.93-6.08-3.92-32.49-7.65-65-11.43-97.5-.3-2.59-.67-5.17-2.84-7.73-.72,10.44-1.53,20.87-2.13,31.32-2.94,51.37-5.82,102.75-8.72,154.12-.08,1.37.28,2.92-.25,4.09-.8,1.77-2.2,3.27-3.34,4.89-1.15-1.61-3.16-3.15-3.3-4.85-1.06-12.89-1.79-25.8-2.56-38.71-1.36-22.73-2.67-45.46-5.72-68.82-3.12,6.44-6.14,12.93-9.43,19.29-1.07,2.06-2.85,3.74-4.31,5.6-1.98-1.65-4.4-2.99-5.86-5.02-4.14-5.76-7.89-11.8-12.84-19.32-6.99,15.42-19.88,12.59-31.85,12.58-34.24,0-68.49.08-102.73-.08-5.53-.02-10.2.44-13.61,5.61-3.12,4.72-6.21,3.74-8.37-1.16-1.62-3.68-3.23-7.37-5.67-12.92-4.11,7.85-7.18,14.16-10.7,20.21-1.08,1.87-3.35,3.05-5.08,4.54-.97-2.07-2.57-4.07-2.83-6.22-3.91-32.77-7.64-65.57-11.42-98.36-.3-2.6-.73-5.18-2.78-7.7-.71,10.75-1.49,21.5-2.11,32.25-2.95,51.65-5.86,103.3-8.77,154.95-.05.82.18,1.77-.16,2.45-.99,2.01-2.2,3.91-3.33,5.86-1.21-1.85-3.33-3.62-3.5-5.56-1.04-11.78-1.71-23.6-2.38-35.41-1.27-22.25-2.44-44.51-3.69-66.76-.07-1.29-.44-2.56-2.4-4.41-3.06,6.42-6.08,12.85-9.19,19.25-3.43,7.06-5.55,7.21-9.9.71-3.52-5.26-6.96-10.58-10.45-15.86-.45-.68-1.03-1.28-1.44-1.78-.85.18-1.63.11-1.83.42-6.48,9.9-16.11,10.68-26.79,10.11-12.2-.64-24.46-.15-36.69-.15l-.19-2.32c1.88-.31,3.75-.87,5.63-.88,11.6-.08,23.23-.53,34.79.12,8.1.46,14.45-1.35,19.27-8.06,3.85-5.36,7.29-4.61,10.59.86,3.51,5.81,7.42,11.38,12,18.35,5.4-10.78,10.16-20.29,14.92-29.8,1.16.2,2.33.39,3.49.59,3.83,33.35,3.88,67.05,8.23,100.48,3.82-64.2,7.64-128.4,11.46-192.59,1.36-.13,2.71-.25,4.07-.38.85,2.72,2.17,5.38,2.49,8.15,4.53,38.22,8.93,76.46,14.94,115.35,2.98-5.84,5.79-11.78,9.04-17.47,1.09-1.91,3.33-3.17,5.05-4.73,1.35,1.63,3.01,3.1,3.97,4.93,1.89,3.61,3.39,7.41,5.96,13.17,4.68-10.93,13.1-9,20.87-9,36.18-.02,72.36-.17,108.53.13,7.12.06,12.48-1.48,17.22-7.15,5.85-6.99,6.73-6.59,11.9,1.22,3.48,5.26,6.93,10.54,11.38,17.31,5.28-10.8,9.95-20.35,14.62-29.9,1.2.16,2.39.32,3.59.48,4.3,33.34,3.92,67.14,8.4,100.63,3.8-64.17,7.6-128.34,11.41-192.52,1.35-.2,2.7-.39,4.06-.59.9,2.81,2.28,5.57,2.62,8.45,4.5,37.95,8.86,75.92,13.56,116.54,5.25-9.37,9.37-16.7,14.82-26.42,4.08,7.53,7.18,13.25,10.87,20.05,3.93-9.1,11.22-8.33,18.52-8.3,37.28.12,74.56-.08,111.84.19,6.29.05,10.86-1.47,15.08-6.31,7.04-8.07,7.37-7.78,13.42,1.45,3.26,4.98,6.62,9.9,10.71,16,5.23-10.67,9.84-20.06,14.45-29.46,1.01.01,2.03.02,3.04.03.74,3.29,1.94,6.56,2.15,9.88,1.94,30.73,3.71,61.47,6.88,92.26,3.84-64.62,7.68-129.23,11.52-193.85,1.34-.16,2.67-.31,4.01-.47.89,2.68,2.28,5.3,2.61,8.04,4.12,34.97,8.08,69.95,12.11,104.93.39,3.41.92,6.81,1.68,12.47,5.1-9.65,9.1-17.24,14.45-27.37,4.19,7.93,7.12,13.49,10.86,20.57,4.7-10.44,13.42-8.27,21.39-8.28"/>
    </g>
    <path class="cls-20" d="M2358.08,635.52c3.35-3.36,6.72-6.7,10.07-10.07,15.23-15.29,23.92-33.59,23.75-55.48-.05-32.4-21.96-60.71-53.37-68.99-26.82-6.98-50.71-.81-70.88,18.4-3.69,3.52-6.98,7.47-11.05,11.85-4.07-4.38-7.36-8.33-11.05-11.85-20.17-19.22-44.06-25.39-70.88-18.4-31.42,8.28-53.32,36.59-53.37,68.99-.16,21.89,8.52,40.19,23.75,55.48,26.69,26.82,53.56,53.45,80.33,80.19l31.27,31.29c9.17-9.21,18.08-18.19,27.01-27.12M2249.83,671.59h142.07M2320.87,742v-140.81"/>
  </g>
</svg>