<?xml version="1.0" encoding="UTF-8"?>
<svg xmlns="http://www.w3.org/2000/svg" viewBox="0 0 2891.34 1247.24" height="1247.24" width="2891.34" >
  <defs>
    <style>
      .cls-1 {
        stroke: #58595b;
        stroke-width: 2px;
      }

      .cls-1, .cls-2, .cls-3, .cls-4, .cls-5 {
        stroke-miterlimit: 10;
      }

      .cls-1, .cls-2, .cls-3, .cls-4, .cls-6 {
        fill: #fff;
      }

      .cls-2, .cls-3, .cls-4, .cls-7, .cls-8, .cls-9, .cls-10, .cls-11, .cls-12, .cls-13, .cls-14, .cls-15, .cls-16, .cls-17, .cls-18, .cls-19, .cls-20 {
        stroke-width: 4px;
      }

      .cls-2, .cls-4, .cls-13 {
        stroke: #006bb7;
      }

      .cls-3 {
        stroke: #e3000f;
      }

      .cls-4, .cls-7, .cls-8, .cls-9, .cls-10, .cls-11, .cls-12, .cls-13, .cls-14, .cls-15, .cls-16, .cls-17, .cls-18, .cls-21, .cls-22 {
        stroke-linecap: round;
      }

      .cls-23, .cls-24, .cls-25, .cls-26, .cls-27, .cls-28, .cls-29 {
        isolation: isolate;
      }

      .cls-23, .cls-24, .cls-25, .cls-26, .cls-27, .cls-28, .cls-29, .cls-30, .cls-31, .cls-32, .cls-33, .cls-34, .cls-35, .cls-36, .cls-37, .cls-38, .cls-39, .cls-40, .cls-41, .cls-42, .cls-43, .cls-6, .cls-44, .cls-45, .cls-46 {
        stroke-width: 0px;
      }

      .cls-23, .cls-24, .cls-25, .cls-28 {
        opacity: .2;
      }

      .cls-23, .cls-40 {
        fill: #c9c4c2;
      }

      .cls-24 {
        fill: #515151;
      }

      .cls-25 {
        fill: #78331a;
      }

      .cls-7 {
        fill: #e9a48a;
      }

      .cls-7, .cls-8, .cls-9, .cls-10, .cls-11, .cls-12, .cls-13, .cls-14, .cls-15, .cls-16, .cls-17, .cls-18, .cls-21, .cls-19, .cls-20, .cls-22 {
        stroke-linejoin: round;
      }

      .cls-7, .cls-12 {
        stroke: #191919;
      }

      .cls-26, .cls-27, .cls-29 {
        opacity: .3;
      }

      .cls-26, .cls-37 {
        fill: #191919;
      }

      .cls-27, .cls-39 {
        fill: #0c0708;
      }

      .cls-8 {
        stroke: #fff;
      }

      .cls-8, .cls-9, .cls-10, .cls-11, .cls-12, .cls-13, .cls-14, .cls-15, .cls-16, .cls-17, .cls-18, .cls-5, .cls-21, .cls-19, .cls-20, .cls-22 {
        fill: none;
      }

      .cls-9, .cls-19 {
        stroke: #202020;
      }

      .cls-10 {
        stroke: #0a0a0a;
      }

      .cls-11 {
        stroke: #19285f;
      }

      .cls-14, .cls-21, .cls-22 {
        stroke: #000;
      }

      .cls-15 {
        stroke: #0c0708;
      }

      .cls-16 {
        stroke: #1a1a1a;
      }

      .cls-17 {
        stroke: #bf7550;
      }

      .cls-18 {
        stroke: #515151;
      }

      .cls-5 {
        stroke: #4f051f;
      }

      .cls-47 {
        opacity: .2;
      }

      .cls-21 {
        stroke-width: 7px;
      }

      .cls-20 {
        stroke: #ededed;
      }

      .cls-31 {
        opacity: .3;
      }

      .cls-31, .cls-46 {
        fill: #006bb7;
      }

      .cls-32 {
        fill: #4f051f;
      }

      .cls-33 {
        fill: #894c27;
      }

      .cls-34 {
        fill: #9c2b42;
      }

      .cls-35 {
        fill: #58595b;
      }

      .cls-36 {
        fill: #0a0a0a;
      }

      .cls-38 {
        fill: #19285f;
      }

      .cls-41 {
        fill: #e3000f;
      }

      .cls-42 {
        fill: #cea482;
      }

      .cls-43 {
        fill: #ff8c9e;
      }

      .cls-44 {
        fill: #f1c5b4;
      }

      .cls-45 {
        fill: #010508;
      }

      .cls-22 {
        stroke-width: 3px;
      }
    </style>
  </defs>
  <g id="background">
    <rect class="cls-31" width="2892" height="1248"/>
    <path class="cls-6" d="M2084.54,399.97h345.06c24.75,0,44.99,20.09,44.99,44.99v345.06c0,24.75-20.09,44.99-44.99,44.99h-345.06c-24.75,0-44.99-20.09-44.99-44.99v-345.06c0-24.9,20.09-44.99,44.99-44.99Z"/>
  </g>
  <g id="icone">
    <g class="cls-47">
      <path class="cls-46" d="M1637.49,452.1c24.24,117.64,26.6,242.95-42.57,305.03-68.56,61.47-209.26,59.11-320.4,118.22-109.94,59.11-192.12,179.11-304.44,220.5-111.73,41.98-254.78,4.15-360-83.35-104.64-88.09-172.03-225.22-201.58-374.2-30.15-148.37-22.47-307.39,70.94-383.06,92.81-76.26,271.33-70.34,401.97-91.03,130.64-20.7,213.99-68.58,313.31-81.58,99.3-13.02,213.99,8.28,293.2,74.47,80.39,66.21,125.92,176.75,149.56,294.99Z"/>
    </g>
  </g>
  <g id="Icone">
    <g>
      <path class="cls-6" d="M943.74,411.48l-17.3,25.91,31.51-12.86-14.21-13.05Z"/>
      <path class="cls-24" d="M943.74,411.48l-17.3,25.91,31.51-12.86-14.21-13.05Z"/>
      <path class="cls-6" d="M943.74,411.48l18.26,40.32,59.67-70.93c.13-.13,0-.32-.19-.25l-77.74,30.86Z"/>
      <path class="cls-6" d="M908.5,386.27l35.24,25.21,77.8-30.86c.07-.07.07-.2-.06-.2l-112.98,5.85Z"/>
      <path class="cls-18" d="M943.74,411.48l7.65,16.91"/>
      <path class="cls-18" d="M1021.48,380.62l-77.74,30.86"/>
    </g>
    <path class="cls-8" d="M2511.81,387.81c18.05-12.8,20.74-28.22,15.06-43.65-5.26-14.29-18.05-21.1-21.04-9.8-2.99,11.3,15.06,35.39,42.15,34.61,27.08-.77,32.4-44.42,6.04-91.83-26.37-47.42-59.85-39.4-47.59-7.66,12.25,31.75,62.12,82.75,101.82,70.14,45.2-14.29,27.86-97.16-35.4-146.84"/>
  </g>
  <g id="commun_illustration_for_session" data-name="commun illustration for session">
    <g>
      <path class="cls-46" d="M2065.45,186.12h-44.72s-5.17,26.44,10.39,40.46h44.72c-15.56-14.02-10.39-40.46-10.39-40.46Z"/>
      <path class="cls-41" d="M2002.77,163.26h-44.72s-5.17,26.44,10.39,40.46h44.72c-15.62-14.02-10.39-40.46-10.39-40.46Z"/>
    </g>
    <path class="cls-34" d="M2000.97,274.18h-73.56c-4.05,0-7.36-3.3-7.36-7.36v-51.76c0-4.05,3.3-7.36,7.36-7.36h19.88c2.61,0,5.01,1.39,6.34,3.62l2.29,3.89c1.33,2.24,3.73,3.62,6.34,3.62h38.75c4.05,0,7.36,3.3,7.36,7.36v40.62c0,4.05-3.3,7.36-7.41,7.36q.05,0,0,0Z"/>
    <g>
      <path class="cls-14" d="M2511.38,922.56c-15.7,0-26.19,12.12-23.5,26.98l.8,4.27c.21,1.03,1.2,1.89,2.4,1.89h52.96c.9,0,1.7-.65,1.7-1.51v-.38l-.8-4.27c-2.79-14.96-17.79-26.98-33.57-26.98Z"/>
      <path class="cls-38" d="M2380.86,1109.12h181.98c3.9,0,7.2-2.65,7.79-6.25l25.79-138.46c1.4-7.68-4.8-14.77-13.09-14.77h-154.1c-10.89,0-20.19,7.39-22.09,17.51l-26.29,141.97Z"/>
      <path class="cls-46" d="M2644.89,1109.12h-188.68l-7.79-42.14-21.57-115.84c-.21-.85.5-1.51,1.4-1.51h168.19c10.89,0,20.19,7.39,22.09,17.51l26.38,141.97Z"/>
      <path class="cls-28" d="M2640.6,1086.02l-4.7-25.29h-188.67l1.19,6.26,192.18,19.03Z"/>
      <path class="cls-14" d="M2420.04,1008.74v98.49"/>
      <path class="cls-14" d="M2633.89,1060.83h-184.87"/>
      <path class="cls-11" d="M2530.26,989.32l6.5,35.05"/>
      <path class="cls-11" d="M2551.95,1006.85h-36.97"/>
    </g>
    <g>
      <path class="cls-46" d="M372.36,416.6h61.79c7.97,0,14.47,6.16,14.47,13.71v147.35c0,7.56-6.5,13.71-14.47,13.71h-61.79c-7.97,0-14.47-6.16-14.47-13.71v-147.35c0-7.56,6.5-13.71,14.47-13.71Z"/>
      <path class="cls-6" d="M421.1,450.92h-35.45c-4.55,0-8.26-3.52-8.26-7.83s3.72-7.85,8.26-7.85h35.45c4.55,0,8.26,3.54,8.26,7.85s-3.72,7.83-8.26,7.83Z"/>
      <path class="cls-34" d="M387.49,452.71c-5.61,0-10.1-4.31-10.1-9.57s4.55-9.57,10.1-9.57,10.1,4.31,10.1,9.57c.06,5.27-4.49,9.57-10.1,9.57Z"/>
      <path class="cls-6" d="M385.65,495.98h35.45c4.55,0,8.26,3.52,8.26,7.83s-3.72,7.85-8.26,7.85h-35.45c-4.55,0-8.26-3.54-8.26-7.85s3.72-7.83,8.26-7.83Z"/>
      <path class="cls-43" d="M419.27,494.24c5.61,0,10.1,4.32,10.1,9.57s-4.55,9.57-10.1,9.57-10.1-4.31-10.1-9.57c-.06-5.25,4.49-9.57,10.1-9.57Z"/>
      <path class="cls-6" d="M385.65,556.72h35.45c4.55,0,8.26,3.54,8.26,7.85s-3.72,7.83-8.26,7.83h-35.45c-4.55,0-8.26-3.52-8.26-7.83s3.72-7.85,8.26-7.85Z"/>
      <path class="cls-43" d="M419.27,554.99c5.61,0,10.1,4.31,10.1,9.57s-4.55,9.57-10.1,9.57-10.1-4.31-10.1-9.57c-.06-5.27,4.49-9.57,10.1-9.57Z"/>
      <path class="cls-6" d="M385.65,465.64h35.45c4.55,0,8.26,3.54,8.26,7.85s-3.72,7.83-8.26,7.83h-35.45c-4.55,0-8.26-3.52-8.26-7.83s3.72-7.85,8.26-7.85Z"/>
      <path class="cls-34" d="M387.49,463.86c5.61,0,10.1,4.31,10.1,9.56s-4.56,9.57-10.1,9.57-10.1-4.31-10.1-9.57,4.55-9.56,10.1-9.56Z"/>
      <path class="cls-6" d="M385.65,526.38h35.45c4.55,0,8.26,3.52,8.26,7.83s-3.72,7.85-8.26,7.85h-35.45c-4.55,0-8.26-3.54-8.26-7.85s3.72-7.83,8.26-7.83Z"/>
      <path class="cls-34" d="M387.49,524.64c5.61,0,10.1,4.31,10.1,9.57s-4.56,9.57-10.1,9.57-10.1-4.31-10.1-9.57,4.55-9.57,10.1-9.57Z"/>
    </g>
    <g>
      <path class="cls-16" d="M179.71,137.21l69.13-65.53c2.18-2.07,5.71-2.07,7.89,0l69.13,65.53"/>
      <path class="cls-6" d="M149.49,128.86h206.62c4.64,0,8.46,3.6,8.46,8.02v98.83c0,4.41-3.81,8.02-8.46,8.02h-206.62c-4.66,0-8.46-3.6-8.46-8.02v-98.83c0-4.41,3.8-8.02,8.46-8.02Z"/>
    </g>
    <g>
      <path class="cls-8" d="M210.46,898.17v28.25"/>
      <path class="cls-8" d="M210.46,1006.58v28.25"/>
      <path class="cls-8" d="M278.79,966.5h-28.25"/>
      <path class="cls-8" d="M170.38,966.5h-28.25"/>
      <path class="cls-8" d="M162.2,918.24l19.89,19.89"/>
      <path class="cls-8" d="M238.88,994.92l19.89,19.89"/>
      <path class="cls-8" d="M258.77,918.24l-19.89,19.89"/>
      <path class="cls-8" d="M182.08,994.92l-19.89,19.89"/>
    </g>
    <g>
      <path class="cls-8" d="M800.46,131.17v28.25"/>
      <path class="cls-8" d="M800.46,239.58v28.25"/>
      <path class="cls-8" d="M868.79,199.5h-28.25"/>
      <path class="cls-8" d="M760.38,199.5h-28.25"/>
      <path class="cls-8" d="M752.2,151.24l19.89,19.89"/>
      <path class="cls-8" d="M828.88,227.92l19.89,19.89"/>
      <path class="cls-8" d="M848.77,151.24l-19.89,19.89"/>
      <path class="cls-8" d="M772.08,227.92l-19.89,19.89"/>
    </g>
    <g>
      <path class="cls-8" d="M2201.46,147.17v28.25"/>
      <path class="cls-8" d="M2201.46,255.58v28.25"/>
      <path class="cls-8" d="M2269.79,215.5h-28.25"/>
      <path class="cls-8" d="M2161.38,215.5h-28.25"/>
      <path class="cls-8" d="M2153.2,167.24l19.89,19.89"/>
      <path class="cls-8" d="M2229.88,243.92l19.89,19.89"/>
      <path class="cls-8" d="M2249.77,167.24l-19.89,19.89"/>
      <path class="cls-8" d="M2173.08,243.92l-19.89,19.89"/>
    </g>
    <path class="cls-3" d="M2358.08,635.52c3.35-3.36,6.72-6.7,10.07-10.07,15.23-15.29,23.92-33.59,23.75-55.48-.05-32.4-21.96-60.71-53.37-68.99-26.82-6.98-50.71-.81-70.88,18.4-3.69,3.52-6.98,7.47-11.05,11.85-4.07-4.38-7.36-8.33-11.05-11.85-20.17-19.22-44.06-25.39-70.88-18.4-31.42,8.28-53.32,36.59-53.37,68.99-.16,21.89,8.52,40.19,23.75,55.48,26.69,26.82,53.56,53.45,80.33,80.19l31.27,31.29c9.17-9.21,18.08-18.19,27.01-27.12M2249.83,671.59h142.07M2320.87,742v-140.81"/>
    <g>
      <path class="cls-6" d="M141.99,122.29h213.06c8.67,0,15.64,7.01,15.64,15.68v162.39c0,8.67-7.02,15.63-15.64,15.63h-213.06c-8.67,0-15.69-7.01-15.69-15.63v-162.39c.05-8.67,7.02-15.68,15.69-15.68Z"/>
      <path class="cls-34" d="M160.98,142.36h67.34c3.97,0,7.23,3.25,7.23,7.23v.31c0,3.97-3.25,7.23-7.23,7.23h-67.34c-3.97,0-7.23-3.25-7.23-7.23v-.31c0-3.97,3.25-7.23,7.23-7.23Z"/>
      <path class="cls-34" d="M327.24,142.36h43.45v14.76h-43.45c-3.97,0-7.23-3.25-7.23-7.23v-.31c0-3.97,3.25-7.23,7.23-7.23Z"/>
      <path class="cls-32" d="M217.48,211.25h22.5c3.97,0,7.23,3.25,7.23,7.22v.31c0,3.97-3.25,7.23-7.23,7.23h-22.5c-3.97,0-7.22-3.25-7.22-7.23v-.31c0-4.02,3.25-7.22,7.22-7.22Z"/>
      <path class="cls-46" d="M195.3,280.14h22.5c3.97,0,7.22,3.25,7.22,7.23v.31c0,3.97-3.25,7.23-7.22,7.23h-22.5c-3.97,0-7.23-3.25-7.23-7.23v-.31c0-4.02,3.25-7.23,7.23-7.23Z"/>
      <path class="cls-46" d="M244.42,280.14h43.6c3.97,0,7.23,3.25,7.23,7.23v.31c0,3.97-3.25,7.23-7.23,7.23h-43.6c-3.97,0-7.23-3.25-7.23-7.23v-.31c0-4.02,3.2-7.23,7.23-7.23Z"/>
      <path class="cls-38" d="M217.48,245.67h76.84c3.97,0,7.22,3.25,7.22,7.23v.31c0,3.97-3.25,7.23-7.22,7.23h-76.84c-3.97,0-7.22-3.25-7.22-7.23v-.31c0-3.97,3.25-7.23,7.22-7.23Z"/>
      <path class="cls-41" d="M160.98,176.78h67.34c3.97,0,7.23,3.25,7.23,7.23v.31c0,3.97-3.25,7.23-7.23,7.23h-67.34c-3.97,0-7.23-3.25-7.23-7.23v-.31c0-3.97,3.25-7.23,7.23-7.23Z"/>
      <path class="cls-41" d="M263.92,176.68h34.11c3.97,0,7.23,3.25,7.23,7.23v.31c0,3.97-3.25,7.22-7.23,7.22h-34.11c-3.97,0-7.22-3.25-7.22-7.22v-.31c0-4.02,3.25-7.23,7.22-7.23Z"/>
      <path class="cls-6" d="M141.99,122.29h29.21v193.71h-29.21c-8.67,0-15.69-7.01-15.69-15.63v-162.39c0-8.67,7.02-15.68,15.69-15.68Z"/>
      <path class="cls-23" d="M141.99,122.29h29.21v193.71h-29.21c-8.67,0-15.69-7.01-15.69-15.63v-162.39c0-8.67,7.02-15.68,15.69-15.68Z"/>
      <path class="cls-20" d="M370.69,166.67h-198.97"/>
      <path class="cls-20" d="M370.69,201.5h-198.97"/>
      <path class="cls-20" d="M370.69,236.85h-198.97"/>
      <path class="cls-20" d="M370.69,270.08h-198.97"/>
      <path class="cls-19" d="M171.2,122.29v193.71"/>
      <path class="cls-9" d="M143.75,149.75h10.01"/>
      <path class="cls-9" d="M143.75,184.06h10.01"/>
      <path class="cls-9" d="M143.75,218.37h10.01"/>
      <path class="cls-9" d="M143.75,253.2h10.01"/>
      <path class="cls-9" d="M143.75,287.52h10.01"/>
    </g>
    <g>
      <path class="cls-44" d="M753.96,959.43c2.23,24.48,14.47,122.4,20.03,155.77l94.47-2.56s4.68-10.69-13.24-22.25c-3.34-2.23-5.01-6.35-7.24-8.8-10.12-11.23-9.01-24.6-7.22-36.5,1.22-8.35,7-32.38,11.56-51.4,3.45-14.03,6.24-25.37,6.24-25.37l-104.61-8.9Z"/>
      <path class="cls-25" d="M753.96,959.31c1.11,12.47,4.9,44.18,9.02,76.67l89.34-42.28c3.45-14.13,6.12-25.49,6.12-25.49l-104.49-8.9Z"/>
      <path class="cls-30" d="M856.33,1088.5c-3-2.01-5.9-4.22-8.35-6.9-11.12,5.78-17.58,14.58-20.24,22.48h-28.61c-7-17.25-19.36-24.27-30.6-26.16,2.11,15.25,4.01,28.49,5.45,37.27h97.59c.1,0,.33-.1.33-.22.22-2.11.89-15.8-15.57-26.48Z"/>
      <path class="cls-44" d="M697.22,959.43c.88,10.34,3.67,33.93,7,60.31,2.45,19.36,5.13,40.17,7.56,58.2,3.34,15.69,9.12,34.05,9.12,34.05l91.37,1.23s2.88-10.46-15.02-22.04c-3.45-2.23-3.79-7.12-6-9.57-10.14-11.13-9.02-24.6-7.24-36.5,2.23-14.46,17.8-76.77,17.8-76.77l-104.59-8.9Z"/>
      <path class="cls-25" d="M697.22,959.31c.88,10.34,3.67,34.05,7,60.43l97.59-51.52-104.59-8.9Z"/>
      <path class="cls-30" d="M799.58,1088.5c-3-2.01-5.9-4.22-8.34-6.9-11.13,5.78-17.58,14.58-20.26,22.48h-28.59c-7.01-17.25-19.36-24.27-30.61-26.16,2.13,15.02,4.01,28.15,5.35,36.94,0,.22.22.33.45.33h96.8c.45,0,.77-.33.89-.77.1-3.22-.22-15.92-15.69-25.93Z"/>
      <path class="cls-17" d="M791.82,1081.05c-10.76-11.3-9.68-24.96-7.82-37.06,1.44-9.57,8.78-40.17,13.57-59.76"/>
      <path class="cls-43" d="M658.49,983.79q0,.12.1.12h93.03l143.77-.12q.12,0,.12-.1c-4.01-70.77-15.37-130.3-30.84-178.93h-185.48c-11.13,50.96-20.37,112.72-20.7,179.03Z"/>
      <path class="cls-44" d="M727.76,656l-8.54,14.22s-22.59,53.63-40.27,134.64l38.04,6.12c0,.1,18,9.9,18,10.01,4.01,35.49,10.99,31.39,20,66-6,13-6,23-3.24,29l50.81-9.87s.12,0,.12-.12c-3.45-24.8-8.68-51.18-12.13-89.34l73.87-11.9c-19.69-61.99-45.83-106.17-71.32-132.98-.22-.22-.34-.56-.34-.89l.99-14.89"/>
      <path class="cls-6" d="M809,685c16.82,13.37,40.99,57.31,60,136l-79.13-3.25-10.38-95.87s-62.49-19.88-62.46,15.64c.02,24.45,3.01,76.07,17.98,83.48l-60.59,7.03c4.41-65.97,29.74-115.03,29.74-115.03l8.85-28h96Z"/>
      <path class="cls-44" d="M844.31,589.66c-.33-4.12-9.01-7.24-10.46-7.68-.1,0-.22-.1-.22-.33-.1-3.79-3-42.5-25.14-56.75-10.69-7.68-26.36-12.13-47.73-7.46-35.83,7.8-44.85,29.94-45.73,51.75-1.11,25.59,6.67,46.41,12.23,59.76l1.23,26.82,64.53,15.57,1.01-22.14c24.59,5.23,35.71-4.79,38.73-10.91,5.22-10.34,4.22-25.71,3.11-38.06,0-.22.12-.45.34-.55,1.55-1.11,8.46-5.23,8.11-10.02Z"/>
      <path class="cls-30" d="M816.83,586.66c1.9,0,3.45-1.55,3.45-3.45s-1.55-3.45-3.45-3.45-3.45,1.55-3.45,3.45,1.55,3.45,3.45,3.45Z"/>
      <path class="cls-45" d="M810.49,520.23c-.22.22-.67.33-1,.1-10.8-7.68-31.49-13.91-52.53-9.35-10.45,2.33-18.7,6.35-18.31,5.13-.59-13.36-9.29-38.85-29.97-56.75-25.93-22.48-60.97-24.59-78.23-4.79-17.25,19.91-10.12,54.18,15.8,76.77,22.37,19.36,51.4,23.6,65.72,20.78.61-.4-.95,8.6-1.4,16.73-1.11,25.59,11.13,46.74,16.69,60.08,0,0,15.57-5.23,23.7-18.58.45-.79.34-1.78-.33-2.45-5.13-4.34-24.49-22.48-9.91-37.94,15.14-16.14,33.72,6.33,38.06,12.13.55.77,1.56,1.11,2.45.89,6.55-1.78,32.49-9.57,49.96-24.05,7.22-5.89,12.9-13.02,15.35-21.25,6.67-24.25-21.82-31.04-36.05-17.46Z"/>
      <path class="cls-44" d="M807.25,922.37c3.46,12.47,9.35,19.91,10.69,21.59.22.22.22.55.12.77-2.33,7.68-14.25,5.9-16.24,5.56-.12,0-.34.12-.34.22-2.33,5.35-10.91,8.46-16.36,1.11-.1-.1-.33-.22-.55-.1-10.46,7-15.92-1.68-17.36-3.34-.12-.1-.22-.22-.45-.1-19.81,5.11-16.91-40.07-16.47-44.63l48.95-13.35c2.45,8.9,4.68,20.02,8.01,32.26Z"/>
      <path class="cls-25" d="M794.02,649.07l-.79,16.48c0,.22-.22.22-.33.1l-14.03-23.14c-.1-.22.12-.34.34-.22,5.34,3.33,7.91,4.44,14.8,6.78Z"/>
      <path class="cls-17" d="M823.28,611.58c-2.01.89-9.12.67-11.13-5.23"/>
      <path class="cls-17" d="M794.02,649.07c-5.35-1.66-10.14-3-14.8-6.78"/>
      <path class="cls-17" d="M763.97,594.45l-8.9-8.9"/>
      <path class="cls-17" d="M795.14,937.94c1.56,3.79,3.45,8.68,5.56,12.25"/>
      <path class="cls-17" d="M779.55,941.28c.79,3.12,3.02,7.12,4.46,10.02"/>
      <path class="cls-17" d="M761.74,937.94c.79,3.12,3.02,7.12,4.46,10.02"/>
    </g>
    <g>
      <path class="cls-34" d="M1026.66,639.12c-.52,20.67-17.98,36.98-38.79,36.98h-89.76s-26.84,23.37-26.84,23.37c-1.42,1.29-3.73.26-3.73-1.66v-59.72c0-20.93,16.95-38.01,38.01-38.01h83.22c21.45,0,38.66,17.59,37.89,39.04ZM898.23,676.23s.13,0,0,0h0Z"/>
      <path class="cls-6" d="M971.56,637.19c0-4.47,3.63-8.09,8.09-8.09s8.09,3.62,8.09,8.09-3.62,8.09-8.09,8.09-8.09-3.62-8.09-8.09Z"/>
      <path class="cls-6" d="M939.2,637.19c0-4.47,3.62-8.09,8.09-8.09,4.47,0,8.09,3.62,8.09,8.09s-3.62,8.09-8.09,8.09-8.09-3.62-8.09-8.09Z"/>
      <path class="cls-6" d="M906.84,637.19c0-4.47,3.62-8.09,8.09-8.09s8.09,3.62,8.09,8.09-3.62,8.09-8.09,8.09-8.09-3.62-8.09-8.09Z"/>
    </g>
    <g>
      <path class="cls-34" d="M1058.46,87.08h83.22c21.06,0,38.01,17.08,38.01,38.01v59.72c0,1.92-2.31,2.95-3.73,1.66l-26.84-23.37h-89.76c-20.81,0-38.27-16.31-38.79-36.98-.77-21.45,16.44-39.04,37.89-39.04ZM1149,163.23c-.13,0,0,0,0,0h0Z"/>
      <path class="cls-6" d="M1075.67,124.19c0-4.47-3.63-8.09-8.09-8.09s-8.09,3.62-8.09,8.09,3.62,8.09,8.09,8.09,8.09-3.62,8.09-8.09Z"/>
      <path class="cls-6" d="M1108.03,124.19c0-4.47-3.62-8.09-8.09-8.09-4.47,0-8.09,3.62-8.09,8.09s3.62,8.09,8.09,8.09,8.09-3.62,8.09-8.09Z"/>
      <path class="cls-6" d="M1140.39,124.19c0-4.47-3.62-8.09-8.09-8.09s-8.09,3.62-8.09,8.09,3.62,8.09,8.09,8.09,8.09-3.62,8.09-8.09Z"/>
    </g>
  </g>
  <g id="Layer_6" data-name="Layer 6">
    <ellipse class="cls-35" cx="752.5" cy="786.5" rx="14.5" ry="24.5"/>
    <ellipse class="cls-46" cx="752.5" cy="780.5" rx="14.5" ry="24.5"/>
    <ellipse class="cls-6" cx="753.5" cy="779.5" rx="8.5" ry="15.5"/>
    <path class="cls-22" d="M801.66,758.75c-.61-21.78-18.12-39.29-39.9-39.9"/>
    <path class="cls-22" d="M827.74,759.27c-1.01-36.3-30.2-65.49-66.5-66.5"/>
    <g>
      <path class="cls-22" d="M775.57,758.23c-.2-7.26-6.04-13.1-13.3-13.3"/>
      <path class="cls-22" d="M801.66,758.75c-.61-21.78-18.12-39.29-39.9-39.9"/>
      <path class="cls-22" d="M827.74,759.27c-1.01-36.3-30.2-65.49-66.5-66.5"/>
    </g>
    <g>
      <path class="cls-21" d="M1382.91,198.61c-9.87-9.34-25.31-9.34-35.18,0"/>
      <path class="cls-21" d="M1418.1,164.81c-29.61-28-75.94-28-105.55,0"/>
      <path class="cls-21" d="M1453.28,131.01c-49.35-46.67-126.56-46.67-175.91,0"/>
    </g>
    <g>
      <path class="cls-32" d="M1203.52,230.82l317.67-2.32c47.75-.35,86.75,33.52,87.05,75.63l5.16,705.58c.31,42.11-38.19,76.55-85.94,76.9l-317.66,2.33c-47.75.35-86.75-33.53-87.05-75.64l-5.16-705.57c-.31-42.11,38.19-76.55,85.94-76.91Z"/>
      <g>
        <path class="cls-6" d="M1223.12,1065.75c-42.05,0-76.49-31.43-76.78-70.06l-4.91-671.81c-.14-18.82,7.72-36.59,22.11-50.04,14.44-13.49,33.71-20.99,54.27-21.14l290.4-2.12c42.05,0,76.49,31.43,76.78,70.06l4.91,671.81c.14,18.82-7.72,36.59-22.11,50.04-14.44,13.49-33.71,20.99-54.27,21.14l-290.4,2.12Z"/>
        <path class="cls-46" d="M1508.2,252.57c19.93,0,38.68,7.11,52.8,20.01,14.04,12.83,21.84,29.9,21.98,48.06l4.91,671.81c.13,18.26-7.49,35.5-21.47,48.56-14.07,13.14-32.86,20.46-52.92,20.6l-289.76,2.12h-.62c-19.93,0-38.68-7.1-52.8-20.01-14.04-12.83-21.84-29.9-21.98-48.06l-4.91-671.81c-.13-18.26,7.49-35.5,21.47-48.56,14.07-13.14,32.86-20.46,52.92-20.6l289.76-2.12h.62s0,0,0,0M1508.2,248.57c-.21,0-.43,0-.65,0l-289.76,2.12c-43.55.31-78.65,33.1-78.36,73.19l4.91,671.81c.3,39.9,35.52,72.05,78.78,72.05.21,0,.43,0,.65,0l289.76-2.12c43.55-.31,78.65-33.1,78.36-73.19l-4.91-671.81c-.3-39.9-35.52-72.05-78.78-72.05h0Z"/>
      </g>
      <g>
        <ellipse class="cls-40" cx="1291.74" cy="286.96" rx="10.79" ry="11.59"/>
        <ellipse class="cls-40" cx="1450.45" cy="286.96" rx="10.79" ry="11.59"/>
        <rect class="cls-40" x="1291.74" y="275.37" width="158.71" height="23.18"/>
      </g>
    </g>
    <path class="cls-40" d="M1502.58,865.06l-275.87-1.75c-29.21-.14-52.76-24.2-52.62-53.41l.19-63.83c.14-29.21,24.2-52.76,53.4-52.62l275.88,1.76c29.2.14,52.76,24.2,52.61,53.41l-.18,63.83c-.14,29.21-23.48,52.39-53.41,52.61Z"/>
    <path class="cls-40" d="M1502.58,1000.69l-275.87-1.75c-29.21-.14-52.76-24.2-52.62-53.41l.19-8.62c.14-29.21,24.2-52.76,53.4-52.62l275.88,1.76c29.2.14,52.76,24.2,52.61,53.41l-.18,8.62c-.14,29.21-23.48,52.39-53.41,52.61Z"/>
    <g>
      <g>
        <path class="cls-6" d="M1726.54,497.3c-.11-.22-.33-.33-.44-.11-9.84,14.71-21.01,28.31-31.51,38.37-12.94,12.38-24.66,19.46-34.83,21.12-3.43.55-7.19.77-11.28.77-29.74,0-72.09-13.82-94.86-22.22l14.48-72.97c39.14,6.3,72.31,14.59,72.64,14.7.33-.77,36.93-73.41,70.76-108.35,16.37-16.37,42.9-17.69,43.12-17.69l67.45-3.32s4.2-.55,10.83-.55c15.59,0,44.89,3.2,66.56,24.88l4.53,4.64-18.99,165.43s46,98,47,248l-265,5c-7.52-62.09,45.83-273.96,59.43-298.36l-3.87-44"/>
        <path class="cls-33" d="M1786.46,1050.79c5.09-24.55,7.96-49.43,8.52-74.08l-3.54-5.2-100.17,4.65-.11.55c.22,3.43.22,6.74.33,9.95.44,11.5.44,20.12,0,27.09l30.18,56.94,64.79-19.9Z"/>
        <path class="cls-33" d="M1984.93,1050.79c1.43-24,.22-48.98-3.54-74.08l-1.33-2.21-101.61-4.2v6.3c1.66,3.76,3.32,7.29,4.54,10.17,3.98,8.62,6.96,18.46,9.06,27.75l27.75,55.17,65.13-18.9Z"/>
        <path class="cls-46" d="M1732.49,526.77h121.64c.33,9.34,36.6,55.89,45.33,112.72,2.76,18.02,4.31,38.81,5.86,60.7,3.32,46.55,7.19,99.17,25.1,136.1,2.1,4.43,4.2,8.63,6.19,12.72,16.81,34.27,29.96,61.36,36.93,89,3.31,13.05,5.86,25.76,7.85,38.7l-102.83.11s-6.52-14.26-10.17-22.34c-14.7-32.61-32.95-73.19-47.43-111.44-7.63-20.13-14.59-45-20.68-70.32-6.19,21.45-11.49,42.45-13.59,61.36-2.11,19.02.66,43.45,3.64,69.32,1.55,14.49,3.32,29.41,4.09,43.46.67,10.83.78,20.56.56,29.85h-103.82c-1.11-23.55-3.43-50.86-6.64-88.78-.55-6.53-1.1-13.38-1.76-20.68-13.05-155.45,36.48-303.5,45.87-328.37l3.86-12.11Z"/>
        <path class="cls-27" d="M1786.69,834.08c3.2-29.08,3.31-28.41,13.59-61.36l-17.58-90s.12.11,0,0c0,0-14.48-70.65-19.34-32.17-7.52,61.25,22.99,182.31,23.33,183.53Z"/>
        <path class="cls-39" d="M1684.86,892.35c24.65-3.1,43.23-24.1,43.23-48.87,0-26.54-20.79-48.1-47.21-49.2-.67,24.99-.11,49.53,1.88,72.97.44,5.42.88,10.5,1.32,15.48.11,3.21.67,9.62.78,9.62Z"/>
        <path class="cls-39" d="M1838.76,887.04c16.36-8.4,26.43-25.1,26.43-43.56,0-27.2-22.12-49.2-49.21-49.2-3.31,0-6.63.33-9.95.99,4.76,18.14,9.84,34.17,14.93,47.66,4.98,13.26,10.84,27.64,17.8,44.11Z"/>
        <path class="cls-15" d="M1801.06,775.81c-10.84-44.22-20.12-95.41-26.87-139.97"/>
        <path class="cls-33" d="M1490.71,536.55c1.21,0,2.32-.33,3.31-.77,2.66-1.44,4.43-4.31,4.43-7.19,0,0,8.29,2.44,16.8,2.44,6.97,0,12.16-1.55,15.37-4.54,0,0,.11-.11.11,0,1,.45,12.45,5.01,25.05,9.5l13.98-73.29c-30.18-6.45-57.94-7.74-78.5-7.74-40.58,0-62.03,2.21-65.23,6.85-.56.67-.67,1.55-.33,2.44,2.98,9.06,37.59,10.72,52.25,11.24-14.44-.52-21.19,3.9-21.52,10.21-.22,3.75,1.88,7.4,6.08,10.94,0,0-2.54,2.77-2.21,6.52.22,2.99,2.1,5.75,5.64,8.41l3.87,2.65c-.11,0-4.86,6.41,3.87,13.49,7.85,6.08,13.05,8.84,17.03,8.84Z"/>
        <path class="cls-15" d="M1729.13,536.59h127.32"/>
        <path class="cls-29" d="M1705.86,523.4c7.19-8.29,14.04-17.36,20.35-26.87l-3.65-43.89-16.7,70.76Z"/>
        <path class="cls-14" d="M1640.74,476.96l7.3,15.04"/>
        <path class="cls-12" d="M1510.94,455.51s-41.02,21.67-42.24,30.63c-1.21,9.62,37.04-2.77,37.04-2.77,0,0,12.94,17.91,27.2,22.45"/>
        <path class="cls-12" d="M1498.56,528.15c.33-5.19-6.31-9.73-6.31-9.73"/>
        <path class="cls-12" d="M1469.92,514.11c10.17,5.97,26.31,10.61,24.21-4.31"/>
        <path class="cls-12" d="M1462.62,496.53c4.65,3.21,26.76,17.58,33.06,9.73,6.3-7.85-8.51-17.03-8.51-17.03"/>
        <path class="cls-34" d="M1982.27,1082.85c1.22-11.83,2.1-22.22,2.66-32.06h-55.51l3.1-20.57c.11-.66.11-1.44.11-2.1,0-7.96-6.41-14.37-14.37-14.37h-26.43c3.21,16.91-.44,26.09-3.43,31.51-3.09,5.53-12.16,11.83-20.89,18.02-6.86,4.75-13.93,9.73-17.8,14.04-1.66,1.88-3.1,4.31-3.76,6.08l66.86,7,69.46-7.55Z"/>
        <path class="cls-36" d="M1980.17,1100.54c.78-5.97,1.44-11.83,2.1-17.58v-.22h-136.32c-2.66,5.53-3.65,11.72-2.88,17.69l137.1.11Z"/>
        <path class="cls-34" d="M1778.61,1083.18c2.99-10.72,5.64-21.89,7.85-32.39h-58.37l3.09-20.57c.11-.66.11-1.44.11-2.1,0-7.96-6.41-14.37-14.37-14.37h-25.43c-1.11,15.7-4.31,22.66-10.95,31.51-3.53,4.75-11.05,10.39-19.01,16.47-7.08,5.31-14.38,10.84-18.58,15.59-1.66,1.88-2.54,3.21-3.42,4.87l-.34,1.1,62.36,10.85,77.06-10.96Z"/>
        <path class="cls-36" d="M1773.53,1100.54c1.88-5.97,3.65-11.94,5.19-17.69h-139.42c-2.65,5.53-3.64,11.72-2.87,17.69h137.1Z"/>
        <path class="cls-10" d="M1885.68,1049.08l12.67,9.45"/>
        <path class="cls-10" d="M1677.05,1049.35l13.44,9.18"/>
        <path class="cls-33" d="M1782.15,380.88c33.95,0,43.01-32.84,43.12-33.17-.11-.88-7.41-78.94-9.06-93.98-3.32-30.4-19.35-31.29-48.21-31.29-4.31,0-9.4-8.73-14.26-7.96-24.55,3.65-42.35,6.3-49.31,24.55-2.88,7.29-2.44,17.8-2.1,28.85.11,4.1.33,8.19.33,12.39,0,0-8.85,5.19-8.63,9.4.33,4.86,10.06,9.73,10.06,9.73.56,13.48,1.11,27.42,10.84,37.37,3.87,3.98,11.17,6.3,19.24,6.3,5.53,0,10.94-1.11,15.92-3.1l1.1,12.16c0,.34,7.74,28.75,30.96,28.75Z"/>
        <path class="cls-26" d="M1765.57,330.69c-5.42,11.38-11.83,16.25-13.93,17.57-.34.23-.78,0-.89-.44l-.66-7.52c0-.22.11-.44.22-.55l14.37-9.84c.56-.33,1.22.22.89.78Z"/>
        <path class="cls-7" d="M1750.09,339.97c4.31-2.76,9.51-6.52,14.04-9.62"/>
        <path class="cls-12" d="M1773.42,296.74l9.95-8.84"/>
        <path class="cls-12" d="M1716.9,304.72c2.56.65,5.63.65,8.1-1.72"/>
        <path class="cls-30" d="M1718.47,279.94c-1.89,0-3.43-1.54-3.43-3.43s1.54-3.43,3.43-3.43,3.42,1.54,3.42,3.43-1.53,3.43-3.42,3.43Z"/>
        <path class="cls-37" d="M1814.88,325.38c3.09,0,5.53-.22,6.96-.33.89-.11,1.44-.78,1.33-1.66-2.1-25.43-5.64-64.13-6.74-74.41-3.32-30.3-19.68-45.66-48.54-45.66-4.31,0-9.07.33-13.93,1.1-24.55,3.65-42.79,16.14-49.87,34.39-1.65,4.2-1.99,9.51-2.21,13.93,0,.77.56,1.43,1.33,1.55.77.11,1.77.22,2.98.22,4.65,0,13.71-1.55,25.21-11.5,1.22-1,2.88.11,2.55,1.55-1.88,6.85-1.77,11.83.33,14.81,1.44,2.1,3.98,3.21,7.41,3.21,4.09,0,8.73-1.55,11.49-2.66,1.11-.44,2.22.45,2.11,1.55-.34,4.09-.45,12.16,2.65,17.91.44.89,1.66,1,2.32.45,4.09-3.54,16.59-13.71,27.09-13.71,4.2,0,7.74,1.65,10.28,4.97,14.37,18.24-6.08,38.81-11.83,44.12-.77.66-.66,1.88.22,2.43,9.18,6.41,20.68,7.74,28.86,7.74Z"/>
      </g>
      <polygon class="cls-6" points="1735.83 453.02 1671 752.17 1678.67 794.66 1740.6 789.82 1767.34 429.58 1751.19 352.13 1735.83 453.02"/>
      <polygon class="cls-6" points="1801.06 410.2 1856.45 783.74 1915.7 790.31 1924.14 736.58 1892.02 587.94 1818.63 410.2 1801.06 410.2"/>
      <polyline class="cls-14" points="1751.19 352.13 1767.34 429.58 1759.65 552.77"/>
      <polyline class="cls-14" points="1825 348 1807.19 428.15 1856 784"/>
      <g>
        <path class="cls-42" d="M1752.41,563.2c-7.85,4.98-14.93,10.61-15.15,13.27-.22,2.65,4.54,5.75,11.5,5.08l11.5-8.62-7.85-9.73Z"/>
        <path class="cls-40" d="M1806.7,657.29l-65.01-112.66-74.63,43,65.12,112.67,74.52-43.01Z"/>
        <path class="cls-6" d="M1853.51,460.08l28.26,40.1c-.33.11-31.62,15.59-55.61,26.98l30.29,68.66c31.62-7.52,87.9-24.66,109.35-54.73,35.16-49.2-35.48-139.77-66.34-169.16"/>
        <path class="cls-33" d="M1751.3,650.55c13.16,0,80.05-49.32,80.72-49.76.11,0,10.17-1.55,24.65-4.97l-30.07-68.88c-10.17,4.75-18.91,8.84-23.33,10.83-40.47,17.47-50.75,25.32-50.86,25.43l5.53,9.95c-.33.22-38.81,26.65-45.33,36.49-2.32,3.42-3.1,6.63-2.43,9.39.77,3.43,3.53,4.98,3.53,4.98-2.54,4.75-3.09,8.4-1.66,10.95,1.99,3.42,7.08,3.42,7.19,3.42.44,3.87,2.99,5.75,7.52,5.75,11.61,0,32.95-13.26,33.39-13.49-.44.34-14.82,13.38-12.94,18.14.45,1.21,1.77,1.77,4.09,1.77Z"/>
        <path class="cls-14" d="M1869.06,482.16l-15.04-21.34"/>
        <path class="cls-14" d="M1881.77,499.07l22.78,3.54"/>
        <path class="cls-12" d="M1713.71,624.01l48.65-34.27"/>
        <path class="cls-12" d="M1719.24,638.38l51.97-34.27"/>
        <path class="cls-12" d="M1760.15,630.64l18.8-12.16"/>
      </g>
      <polyline class="cls-14" points="1719.24 437.76 1726.43 496.64 1709.95 536.59"/>
      <line class="cls-14" x1="1870.24" y1="505.82" x2="1774.19" y2="551.08"/>
      <path class="cls-14" d="M1909.9,619.32h-34.33s0,32.45,0,32.45c0,16.45,13.36,29.82,29.82,29.82l15.66-.23"/>
    </g>
    <line class="cls-2" x1="1185.87" y1="348" x2="1185.87" y2="665.74"/>
    <line class="cls-2" x1="1552" y1="653.87" x2="1175" y2="653.87"/>
    <line class="cls-1" x1="1520" y1="787" x2="1205" y2="787"/>
    <polyline class="cls-4" points="1469.92 553.66 1439.66 510.79 1418.1 539.4 1383 473 1216 544"/>
    <g>
      <path class="cls-34" d="M1227.92,760.27c9.58-1.47,44.8-1.47,54.53,0v10.52h-54.53"/>
      <g>
        <path class="cls-46" d="M1227.92,770.79c9.58-1.47,44.8-1.47,54.53,0v15.39h-54.53"/>
        <path class="cls-41" d="M1227.92,746.23h54.53v14.04h-54.53"/>
      </g>
    </g>
    <g>
      <path class="cls-46" d="M1457,812.58c-9.58,2.53-44.8,2.53-54.53,0v-26.58h54.53v26.58Z"/>
      <path class="cls-34" d="M1457,830.75c-9.58,2.53-44.8,2.53-54.53,0v-18.17h54.53v18.17Z"/>
      <path class="cls-41" d="M1457,855h-54.53v-24.25h54.53v24.25Z"/>
    </g>
    <g>
      <path class="cls-46" d="M1304.07,773.54c9.58-1.74,44.79-1.74,54.53,0v12.65h-54.53v-12.65Z"/>
      <path class="cls-34" d="M1304.07,745.18c9.58-1.75,44.79-1.75,54.53,0v28.36h-54.53v-28.36Z"/>
      <path class="cls-41" d="M1304.07,727.55h54.53v17.66h-54.53v-17.66Z"/>
    </g>
    <line class="cls-5" x1="1287" y1="915.55" x2="1502.06" y2="915.55"/>
    <line class="cls-5" x1="1287" y1="933.7" x2="1502.06" y2="933.7"/>
    <line class="cls-5" x1="1287" y1="951.85" x2="1502.06" y2="951.85"/>
    <line class="cls-5" x1="1287" y1="970" x2="1502.06" y2="970"/>
    <g>
      <path class="cls-41" d="M1265.61,965.94l-17.24-27.54v-16.52h1.76c1.62-.18,2.89-1.4,2.89-2.88v-.18c0-1.49-1.28-2.7-2.85-2.7h-14.39c-1.57,0-2.85,1.21-2.85,2.7v.18c0,1.49,1.28,2.7,2.8,2.88h1.8v16.52l-17.19,27.54c-.91,1.49-.38,3.29,1.09,4.19.47.27,1.04.4,1.61.4h39.7c1.8,0,3.23-1.4,3.23-3.06.05-.54-.09-1.08-.38-1.53Z"/>
      <path class="cls-32" d="M1265.52,965.94l-7.88-12.69c-19.95,15.84-13.53-7.38-27.78-2.52l-9.5,15.21c-.91,1.49-.38,3.29,1.09,4.19.47.27,1.04.4,1.61.4h39.7c1.8,0,3.23-1.4,3.23-3.06,0-.54-.14-1.08-.47-1.53Z"/>
    </g>
    <g>
      <path class="cls-28" d="M1380.62,448.17c23.41,0,42.38-18.98,42.38-42.39s-18.97-42.38-42.38-42.38-42.39,18.97-42.39,42.38,18.98,42.39,42.39,42.39Z"/>
      <path class="cls-41" d="M1380.62,435.21c23.41,0,42.38-18.97,42.38-42.38s-18.97-42.39-42.38-42.39-42.39,18.98-42.39,42.39,18.98,42.38,42.39,42.38Z"/>
      <path class="cls-8" d="M1380.62,372.36v26.39"/>
      <path class="cls-8" d="M1380.62,408.98v4.32"/>
    </g>
    <g>
      <path class="cls-28" d="M1428.62,768.17c11.81,0,21.38-9.58,21.38-21.38s-9.57-21.38-21.38-21.38-21.38,9.57-21.38,21.38,9.58,21.38,21.38,21.38Z"/>
      <path class="cls-41" d="M1428.62,761.63c11.81,0,21.38-9.57,21.38-21.38s-9.57-21.38-21.38-21.38-21.38,9.58-21.38,21.38,9.58,21.38,21.38,21.38Z"/>
      <path class="cls-8" d="M1428.62,729.92v13.31"/>
      <path class="cls-8" d="M1428.62,748.4v2.18"/>
    </g>
    <path class="cls-13" d="M328.53,877.44c-16.83-75.48-2.14-166.3,28.58-169.95,29.15-3.51,38.82,69.62,30.01,88.67-6.66,14.39-19.41-.29-6.59-30.8,11.75-27.86,46.12-84.94,78.35-83.51,32.23,1.43,4.37,59.37,4.37,59.37l126.77-46.91"/>
  </g>
</svg>